<mxfile host="app.diagrams.net" modified="2023-03-19T01:25:28.110Z" agent="5.0 (Windows NT 10.0; Win64; x64) AppleWebKit/537.36 (KHTML, like Gecko) Chrome/110.0.0.0 Safari/537.36" etag="Y3twd7vX1XKNxPng6Gjy" version="21.0.8" type="github">
  <diagram name="Page-1" id="gTJqD3wn9wgoVLmnGakF">
    <mxGraphModel dx="1056" dy="549" grid="1" gridSize="10" guides="1" tooltips="1" connect="1" arrows="1" fold="1" page="1" pageScale="1" pageWidth="850" pageHeight="1100" math="0" shadow="0">
      <root>
        <mxCell id="0" />
        <mxCell id="1" parent="0" />
        <mxCell id="-i5JZtjKqTrFo0PbQZQr-10" value="" style="whiteSpace=wrap;html=1;aspect=fixed;" vertex="1" parent="1">
          <mxGeometry x="295" y="102" width="665" height="665" as="geometry" />
        </mxCell>
        <mxCell id="-i5JZtjKqTrFo0PbQZQr-38" style="edgeStyle=orthogonalEdgeStyle;rounded=0;orthogonalLoop=1;jettySize=auto;html=1;entryX=0.994;entryY=0.591;entryDx=0;entryDy=0;entryPerimeter=0;" edge="1" parent="1" source="-i5JZtjKqTrFo0PbQZQr-1" target="-i5JZtjKqTrFo0PbQZQr-13">
          <mxGeometry relative="1" as="geometry" />
        </mxCell>
        <mxCell id="-i5JZtjKqTrFo0PbQZQr-61" value="Private Endpoint" style="edgeLabel;html=1;align=center;verticalAlign=middle;resizable=0;points=[];" vertex="1" connectable="0" parent="-i5JZtjKqTrFo0PbQZQr-38">
          <mxGeometry x="0.2736" relative="1" as="geometry">
            <mxPoint x="26" as="offset" />
          </mxGeometry>
        </mxCell>
        <mxCell id="-i5JZtjKqTrFo0PbQZQr-1" value="Input EventHub" style="image;aspect=fixed;html=1;points=[];align=center;fontSize=12;image=img/lib/azure2/iot/Event_Hubs.svg;" vertex="1" parent="1">
          <mxGeometry x="566" y="395" width="67" height="60" as="geometry" />
        </mxCell>
        <mxCell id="-i5JZtjKqTrFo0PbQZQr-39" style="edgeStyle=orthogonalEdgeStyle;rounded=0;orthogonalLoop=1;jettySize=auto;html=1;entryX=1.013;entryY=0.35;entryDx=0;entryDy=0;entryPerimeter=0;" edge="1" parent="1" source="-i5JZtjKqTrFo0PbQZQr-2" target="-i5JZtjKqTrFo0PbQZQr-13">
          <mxGeometry relative="1" as="geometry" />
        </mxCell>
        <mxCell id="-i5JZtjKqTrFo0PbQZQr-62" value="Private Endpoint" style="edgeLabel;html=1;align=center;verticalAlign=middle;resizable=0;points=[];" vertex="1" connectable="0" parent="-i5JZtjKqTrFo0PbQZQr-39">
          <mxGeometry x="0.5443" y="-2" relative="1" as="geometry">
            <mxPoint as="offset" />
          </mxGeometry>
        </mxCell>
        <mxCell id="-i5JZtjKqTrFo0PbQZQr-42" style="edgeStyle=orthogonalEdgeStyle;rounded=0;orthogonalLoop=1;jettySize=auto;html=1;entryX=0.567;entryY=0.083;entryDx=0;entryDy=0;entryPerimeter=0;" edge="1" parent="1" source="-i5JZtjKqTrFo0PbQZQr-2" target="-i5JZtjKqTrFo0PbQZQr-1">
          <mxGeometry relative="1" as="geometry" />
        </mxCell>
        <mxCell id="-i5JZtjKqTrFo0PbQZQr-44" style="edgeStyle=orthogonalEdgeStyle;rounded=0;orthogonalLoop=1;jettySize=auto;html=1;entryX=0;entryY=0.5;entryDx=0;entryDy=0;entryPerimeter=0;" edge="1" parent="1" source="-i5JZtjKqTrFo0PbQZQr-2" target="-i5JZtjKqTrFo0PbQZQr-4">
          <mxGeometry relative="1" as="geometry" />
        </mxCell>
        <mxCell id="-i5JZtjKqTrFo0PbQZQr-54" style="edgeStyle=orthogonalEdgeStyle;rounded=0;orthogonalLoop=1;jettySize=auto;html=1;entryX=0.02;entryY=0.9;entryDx=0;entryDy=0;entryPerimeter=0;" edge="1" parent="1" source="-i5JZtjKqTrFo0PbQZQr-2" target="-i5JZtjKqTrFo0PbQZQr-48">
          <mxGeometry relative="1" as="geometry">
            <Array as="points">
              <mxPoint x="800" y="260" />
              <mxPoint x="800" y="407" />
            </Array>
          </mxGeometry>
        </mxCell>
        <mxCell id="-i5JZtjKqTrFo0PbQZQr-2" value="Function App-Read/Write/Send" style="image;aspect=fixed;html=1;points=[];align=center;fontSize=12;image=img/lib/azure2/compute/Function_Apps.svg;" vertex="1" parent="1">
          <mxGeometry x="670" y="230" width="68" height="60" as="geometry" />
        </mxCell>
        <mxCell id="-i5JZtjKqTrFo0PbQZQr-63" style="edgeStyle=orthogonalEdgeStyle;rounded=0;orthogonalLoop=1;jettySize=auto;html=1;entryX=1.003;entryY=0.845;entryDx=0;entryDy=0;entryPerimeter=0;" edge="1" parent="1" source="-i5JZtjKqTrFo0PbQZQr-4" target="-i5JZtjKqTrFo0PbQZQr-13">
          <mxGeometry relative="1" as="geometry" />
        </mxCell>
        <mxCell id="-i5JZtjKqTrFo0PbQZQr-64" value="Private Endpoint" style="edgeLabel;html=1;align=center;verticalAlign=middle;resizable=0;points=[];" vertex="1" connectable="0" parent="-i5JZtjKqTrFo0PbQZQr-63">
          <mxGeometry x="0.7644" relative="1" as="geometry">
            <mxPoint as="offset" />
          </mxGeometry>
        </mxCell>
        <mxCell id="-i5JZtjKqTrFo0PbQZQr-4" value="Metrics Database" style="verticalLabelPosition=bottom;html=1;verticalAlign=top;align=center;strokeColor=none;fillColor=#00BEF2;shape=mxgraph.azure.sql_database_sql_azure;" vertex="1" parent="1">
          <mxGeometry x="860" y="235" width="47.5" height="50" as="geometry" />
        </mxCell>
        <mxCell id="-i5JZtjKqTrFo0PbQZQr-45" style="edgeStyle=orthogonalEdgeStyle;rounded=0;orthogonalLoop=1;jettySize=auto;html=1;" edge="1" parent="1" source="-i5JZtjKqTrFo0PbQZQr-7">
          <mxGeometry relative="1" as="geometry">
            <mxPoint x="875" y="290" as="targetPoint" />
          </mxGeometry>
        </mxCell>
        <mxCell id="-i5JZtjKqTrFo0PbQZQr-7" value="Reporting Dashboard" style="shape=image;verticalLabelPosition=bottom;labelBackgroundColor=default;verticalAlign=top;aspect=fixed;imageAspect=0;image=data:image/png,iVBORw0KGgoAAAANSUhEUgAAAewAAADDCAYAAABApyI3AAAgAElEQVR4nOy9+ZNdx3Xn+TmZee9bagEKhY0gAJIgQVISqYXaW3bLGlu21bZb7u6ZHneHo2N+6F9m/pn5aWIipmM8S4/H05bDbsuLZKtlU21qp0iRFFcQIIh9KaD2eu/dm5lnfsj7XhWIovXAKiwF5SfiAVX1lru8e/PkOeeb54iqKplMJpPJZO5p3PIP93yAtynjmHkBELn53WPOEWST947PePt4K9u+m3ObrZ2LTCaTydw2VHmvdUhD9vaO22ZbPy2TyWQymcxtIRvsTCaTyWR2ANlgZzKZTCazA8gGO5PJZDKZHYD7YG+TzbRk47972wVUNwvMRO6MUOt2CAsy9ymbCFNuB3dGoLi5qPNuiTXfT+C6/Ww+1tw8BmxN9Doud2z8GVtUdZ8d97iI3JG9yR52JpPJZDI7gGywM5lMJpPZAWSDnclkMpnMDiAb7Ewmk8lkdgAfUHR2K6qCOyMMuBN6k823cQ8JH3Y073dN3UfnV7b/aMYX+Gy/Emjce+523Jv3/nELItu/7fGO+zaovm7h2t3u73vr3/X9M4Z8QIM93km8c0K+O/WF3D9f/L3I5qrjO78ft4/bcTDjjWbbrdy9NVX29q8KGfuV233ctzSo/SIe9927xuHm476/xo8cEs9kMplMZkeQDXYmk8lkMjuAbLAzmUwmk9kBfOAc9tbYLCexWbJhK+K2WxEgbHV/7kSu6j5LxmzC/ZZvuhPcTeHX3SQf9/a87ha2vN0fOP6Wb0HsO95x71xx2l0x2OOKi8YVTrzfl3STAGH0z/btz51SwN5vA8/N3PcHeJu4WwKou8mtHMsv4nHfT8cMt+O4d+oYm0PimUwmk8nsALLBzmQymUxmB5ANdiaTyWQyO4A7kMO+OVmwtdacW33tB9+f8be9c0UNmUwmc7+zE/LVm3FbDbaO/rmRrffr/aAVd8bv4fvBt9ts6T6vuJPJZDI7k507GOeQeCaTyWQyO4BssDOZTCaT2QFkg53JZDKZzA4gG+xMJpPJZHYAY4jONhdqvZfN269t/l7dQu83fT8l2xgI4wvMxt3HzY9btqiEv/dFEZudn3GvgVtrUXhvsflx33ws45+fTCaTGY/sYWcymUwmswPIBjuTyWQymR1ANtiZTCaTyewAssHOZDKZTGYHMIbobDMB1c1Coq2Iwe4UaRe3dx/v1HFvKkRTHWvLY4vB1l/8ns3s1HMGH1wEN57Y8v23ncVlmczdZ/z7eFzx6Fa4FeHpZtvOHnYmk8lkMjuAbLAzmUwmk9kBZIOdyWQymcwOIBvsTCaTyWR2AB+o0pnIZgn6rYl0NmNz4c72b2cncCeqw21VlHevCQ/HPu4t7vfWquJlMpmdzrjC1a2ONdnDzmQymUxmB5ANdiaTyWQyO4BssDOZTCaT2QFkg53JZDKZzA5gDNHZ+LxPMa4tsPmbb95OJNX8sqA2vWv0mo3VwCKGQJqnGFCz4YURJKb/ic1n7TyB0K0U2LqXxHtb3e+detyZTOb2srVWx2O/cps/b3O20WBvrujeCu8/MN+4LQFEh1vT0ZtVtPldSEZ6g3FGGwNNMsyiCLrh/feS3vlWGeequBePbtyrebN938p7M5nM/clWna7b4bR98M/cVg/7rqEGUTAKOvSSJablNgKKIZlmAbUgESEiBJLhhqHHLWoAS9x5znUmk8lk7mPuC4OtIiM/OnnbQ286hcPXnzcQ2yABJYIEbgiBY9DGE1cqsjeWyWQymXuF+8JgB1GigFGDUYNsCDkokSiBKBFRxZj+hucEFYsijZcdgBoAq5LtdSaTyWTuGcYy2Pdep8AbLalIMrgxRka+tiZ/W1VTBrsxyAbFGIuqEJtE9VCWJgbECDFG3qNcu+vcmqDvVipvfTC21nrylra0za+7e8edyWQyW2Gsftj3EpsNmNHHpBE3ICZiEIw4jCmovRI04qsaDeBcAVFQTcIza4TCCD7EUXRcIvfgLOXm/RFu7oc9fu/XzT9zfLZqucbtCTvep+2c485kMpkPxn0REm/bEsEQtMKHihpBpIBQEmILkTZiDEIgaMDaiNAH7YNWaPSUxjY57iRQ89R5aM5kMpnMPcN9YbBjCGgIeLFoMUutU/Traa7NO06cvMb581cY9APGRg4e7HD4yCyHHphhol1hzTJOV3BUECpMjBTONp98r3nZmUwmk/lF5b4w2EECah0U06z6Xbz6Vp8f/OQkP3r+KhcuKSurULZKynZBiNdpt8/xwH7LR57Yy2MPT/CZTzzKzGRNu1gjhGWUCssaOfyZyWQymXsFWfrB7g1WafuLT2xJnARAREVAHTBcPw1gUIkoFiMGrx3mq3185/lFvv7Nk7z2BqjsQmU3xraoQ4X3HmdLYuxDXKFd9ploV8xOw8c/Ms3HP/IAx47uZnamZKq9gHN9TBM6NxowTXEVkUZhHg1iNe2j6qjN4rpKvRG+IRvWfRsUi2I2FHpRRFJOXZRUBWbDGVAkCeua1mwiQ7HcZkq0m7+d90/bjlvs5ubXbaXd563lkW/ezq3lqzd95uduY/PX3cnjzmQyt8at3JsffOwbn81bU29lf2Tx++sGe/P+0+PtyO3AqqDiiSJo7CJSYcUjKoAjGo+njQkFXvfzF99b4Q/+5DSX5rr01gqsKSlaJVH7aOxTugJfF2mttThAMBIQXUPCAi1Xs38PPHhgks9++gDHj0/xyNEO0+0eLRkQBktI7AMV1jnK1jS9/hJiIq2yACIxpkc6PxZt1ncLNZYBqgWRkohNExFCU8glJKOuijExTQhGa8KT4U92PCISm8puZhOj/X4Xybgir00ukk2ui7tpuLa///T45ywb7EzmXmU8u3Qr9/b4NvHO7M8OCYlvOJhmuZXq0NMyBD3Iq28KX/vTtzh7tk1RztAyntIOCIM5JicinTISQ2SFkl4FIXQxZooobXwsKNwEa6xy+toa717r8aNXT7Jvj+Ghw22eemIvTz8+y8MPzrBnumai3SP6eXr9ZaydAAy9fh/FU5SAgxBDKo86PAKFKKbZ6RqoGlOcvGpBMJpqnEcE1WEZmBvXladjN6T66Xnwz2QymV8UdoDBThXLaOqCN1Hh0c9RC5b70/zpN1/g9AUwxX7QSGmuMd1a49OfnOWL//QpHjmyh/6gz/deOMFrr5/hxMl55hfnGdSWdjFL0BaBSUKcIgTPrlbJwpJn/pVVXvjpBQp7hqMPwoce383Hnz7IY8ce5MEHJ2ixjAkrqDVEhSoMMKog0hhaSU1G1KJaNn8JJM86edWIoihBGgOtbsOxN0Z51IhEmnKrAk3B1Uwmk8nc/9zTIXGjgkpIpUW1hVAjGhBNoWBvIkFn+eFLE/zP/+FVzl7fhZdZXLjKAzOLfPU3HuA3f+1xdk96jC5jjWHABGs95epczWtvXuX1N6/z1qllrs4bltYKvE5iTAfxoNERVRALrqypqnmsrNHtRB48CMce3c0nHp3m2KFJjhydZWoalHk0LmOlh6FqwtwkI6wFydTGxlCnvHWU9FABVHCYUSRBNvxMUxYm2fCUO785z5FD4re+nRwSz2R2PjkkfneR9/6qo/CwiqACMZa8ffoac4tC35eUbSHWi3zu07v56m89yq7uRUJ/jk6RDGdhOpTOM3tkig89vJv+lx4gsJcf/uQsz/3wFG+cmGPuGvQiiJkEt4toOgzU4c0e1B5gNUROnF3mtVNzfPsbC8xOwtGH4JlnjvCpTz3Egwf30ioWKc0SVtYw9BsjXYPE5IGng0Bxw8B4CoWLYrVqRGYKhHTMjVctjdFODcayij2TyWR+UfiABls2Ubttv9d9Yx2voTcpWFukUqQoxk5w9vx5BlUHayYRDeyahF/+/GNMlNex8Qpl4bGaDDYx0i0i0IMwh7OOwBm++OkpvvDpJ7l6veL0mWu8dkp448QCJ989z8KqQXyBtV1C6BJ9G8tuCuniC+HyIHDlxBovnrzMn/7tOY4echx/uMNTT+zhkSN72LenZKrbx3EN1ZqIxwhYcYSgWAoMRSNQi0QdIKLYxmgr66VSVSQFwoeu9h3o2b0Vr/IWtnJPlf3U9dzLPcL452e7IyK3wtY8ks0Y00tJG7/53XfguG9L5ERvrmI4/rbvzL10O457+6Nnm20DNlVg36Xr51bGmnvbw4YN30k6IGtsOokmneB+H1ZWalTboEqoe8zMwqEDE1iuJW9WHarJ5IcmtzxaOUXESh/VAc4u88jhLo89sptPfarFWu8Il+YCL792iR//9F3eeXfAwuI8a2sFzu3B2TbLwdLzBiO7MHGa3oLnwtwyP3hhkZmpJY4cLHjy+CGefHSKjz55jEOHpui011jrXyZU80x0LZaAhj4afZqISNncsMloW2PwwSfD3ZwTRRC1ZDKZTOYXg3vaYA9XNad/m6CxGEKM6e8i1F6o6pjaWceAE0/poDA1hprkp0taGoY2a7cbOdhIia0UzuBDj/7qCiJC11narYKZw5Mcf3CWr3zxIc5frnn7nSVefWOOk6eXOXvuMmuVYaLYRVFOUA0MIRiKYi9S7Gahv8LSqRVOnD3P3/2DZ++05ejRaR59dJKnnzrAY48cRXRAy/ZAFwh+EdEa59qoRjQGlECQ2MTAhfWZWM6FZjKZzC8S97TB3ogMy4yoolFHuVyRgsoHKl8RCHRbBmdBNGAUBNP0w04qc3NDCDmpz9O66VSQpbQGZx11vYqVPoYeTpdw0mH24d185JEpfv2f7uPi1ZqTpxZ45fXrvP7WHO+em6dvoNYuIXaJWoJ0wLWpCSzVwsocvH15gWefn2fvt85ycJ/wmWeO8cSju3noyEFmpmeZaNfU1XWcgCGkEHqosdbeECa7A5HwTCaTydxD7BiDPfQsQ0yhYhFFIxhXgrFYW6Bq8X5AjGCMbULfzWpnSa03bUwV01RSay4lYgyoBoy45MGHiJrdiATQGkeFMzXiFxE8XTE8sr/LsQPTfPHTDzO/fJzLVyteeeMqP3j+LKfOzrG06gg6hUqXqAUeizqH2hLVmouLgcuLFa+fvMBU5x32z0Y+9MQePvL4DL/0iWk6LeiUipUBoj1UPSqBYWW0dEp0fSIjG/4O3OiBb1zJPfxpaPx107/e/BmZTCaTuZvcYLA3l7XD3RI1JCW0acqHeBRDNIIYJVartMw0AzQZK0kFPzGGZNYCViosNVHaTfkRj5rh2uVURUywo57ZqRhLbJ7tgWojdRvmzIG06AqjA9A5nF1mdqZgZpfj+KMdvvqVT3HpqvDSq9d4/qUrnDozz/yisNIrqOoOxlg8pukoZhgEw6DXZel84NTZmm986wx/sK/mw0/u5ZmP7eexhyZ5cP8kU2WfUgZYKmyocBIxWmCtUGufOg6QQomqIAZVwUmBiCF6sNp0I1PTnNuAmgDDUq8bK7wMT/4tsjURymZCxq2JPjYTc2y+j1sTUd4todWtbPtOLE+BrS6N2doymM1fe/uPe9PrLG18vK1su9Bq83tpXMbdn/Hvr61tZ/zvcGvHPS7bf7+Pz47zsNNPyZuUcW7u0b8b/ckbn/3529tQtOQ9r3H0UHrNGmpDlOsc3TfBoV+Z4stf+hjXF+GNE+d5463rvPbaNc6eq7i2CGI7uHKGIJNojHiJqFbE4BjMlVz6h1We/c5rzEzA8Uc6fPaZhzn20B6OPzrFzJ6AcSv0l65RxEBRdmmJo6p7SFTKsk0MgvcgYsHURFthokGw0CQUhsvLZMMR3lyKZT3P/97zkslkMpk7xw4y2PcmZhiJ1oioR7WmZSq8LlPFqxyemeDw50q++KlHWFwsOHFqjjdOLPLGiSXOnL/MwrJldSB4LTGuRFxJkC4xFLSLvSz2a3740yVe/NlbzOwOHDliOf7ENI8c281Hj+1ldtrSMoHoFyltF2tq1AdEA+0ylTCtNYwU5klst16jPNUrh5EhlgA3TFBSfOOGUHw22plMJnPHyQZ7iyg2qc01NkY7gq9wUqe8t1SECFYD5bTlyOdn+W++8CjXFi0XryovvHyBV16b462Ti8zNw2ofTHsWD6wNHDEYnJulnHiQy2uLnPvZNX70+jztzjwPzb7Dk492+OynnuTDxx9l16RnotVDWaIaXEN0DagAcLaNaKoe1zT7InU8g1EmXCLgmyNLRr1ZQ5bT2ZlMJnOXyQZ7iwSTyopKVExMdcMNqR2mqqJhAIC1ESeeWC8T9TRT7ZLJoxM89vAMX/6VJ7h81XHi7SVOnFzgp6/3uXRlkX5tiGWXgGVxrQ8yiTJBVUeqKLy+tMKbp1b5xt+/zKH9jsePTfLEsSk+/MQMxx5+lE5nFSMrOO0jMZV1TYmnpn65pFafqYa5gGiacGBZL31q3lMKNZPJZDJ3g59rsG9HxaftriijNL2ohzlZabK0TfERHYVzhz9/sP3Z/G80nbUM0STNVoTUs1qSCj25tBZCF1CsamMS+0S5wmynZPfRNsePtvBfOkS/PsKbb13gxy++zUuvXuXsxXkWVkDcFNbtQmMLH4Ra2ogt8TLFqbmKd+fW+C8/uEa3dZrD++GTHz/AL33+oxw7YuiW1xD6aFjGmYrCRXysUAJl4fChxhkDsSTGiCscMYKva8Q0IfGNooHRGvYbz8V4IpS7V9XsTlUw224B5+2ov741EdPm+z2uIOdOVLR6v+1sTcS0/bX6N93yNovlbqUS3KbbHrPy2lbvr3HH4nHvpa1eP/fa/mQPe4sYjZhR6Ljp0CXrJUPTgqoI0Ywqk4mmIjAQMNRE08ewjIrBYWnJJT73sQk+/tRh5hYOcWlOefm1K5w8tcqJt89xbQ4q73CtXQST+nsHOlSxhTW7qQcDVs+scvbiZb79nW9zYK/y6LEJPvLkEY4/eogD+xwTtgazDHGZfr1KYRUhEEJBVBgMaoyBsuWoveeGgi15EXgmk8nccbLB3iKWxpjpUJyVWmmuG21DkyhmlB+WYXg5NHnjVOCFtHCN0s1T+zlKNRzYVbJnus1nPvEQc9cM584F3nprkddfvciLb1xjsQe9WlAzibMT1N5S+TZBC2KMDOrIlfkBL7+1xl//3escOghPf3iW44/O8MTxPTywb4qpTg+jywz6S3SLDsZ4FA94fKibfV2flKyL0DKZTCZzp8gGe8t4RGqSEbMMG3hIY7xHy5qJqKmbwHwchZeT4MuhWkAsAJvWSsdBKrNqPR2zhF99lV2tDrOPz/LRx/ew8sVZri3u5e3TC7z86ju88fYVTp9fZs07vJkA2ljXTt5ymEKlhY8DTpyb5+S5BUp7jb0z8MSxkg8/NsWnP/EQTzxyFCsX8XFAjBFbpNXrYRTXMRse4U6e5Ewmk/mFJxvsLRK1AzrRVFMbFnpJorONxcfUVATRxqA7bspjiAI1KjVr9LFFQWFaSDD4QcVEt6SqBtSDs0TOM9EqmHyg5MiDbb74hRmuLe7lrXcqfvrKNd46tcbJd+dYXDGotDBlB2zEWUMIU4QwRSXC5QXPue/O8V+fu8Z3nlvmnzyzm3/9G47ZvVNgAsHX2KJJzOvQu24mFLJZL+5MJpPJ3C7c7S7asrnGYivVqxRjZCSgMMZgxDY1w9e3qaM8axJ/0VQz28rypM3P1TBXrU1t89iI4Jqtb9gNo+X6cqrmsa7ADoiEZmV0CyKEUIMI4oTVQT85tmU5KjQq9LA6wOiAg1Nd9j7d5ZMfOspqv+TaArz59nWef+EtXj+5wuV5GPQMxu6mtF18rVTR4opDRO3z6tk1Tl64wpl3S37/3x3n0YfXkPptCr+KUUdtDMEo4DHRjUqijnt+xnntloRoo7VqwzREWoMepCTYFhp6tIxHgyVo6kFuqEY16bVprLJeqFUwYhoBYyDiQT1OwLr0Pda+ItQVpetgtEzvkwqvqxjTQtVssqP6j/76fqg2QsZtZ7s/c5s/T2GsCkm3/KHb+NadsI+AiWlFCzhUItEMEKO42mLF0q9BW3tQv4o0ETQdTtBHHzwcfYYi1GH3w5T6k+HQbBQl1X+wojhVIoFA03xJitH9IQSQGsQTCZjYQqIFiUTjETE4HNXAI0WL2rawMWKDAXWoKMEERCKxXqWgomxZTDnB8mqPwm3W1XArQrT3e2bcMfGD427vAtvNr5ytKoTlJnMhGx7v+dswXzwq1rWV432/9+qGZ5X1ViMb36kb9npDFbXGsCR70ZQyiekCU1HQVPfcNO76sIwqgJGm6xg1oss4lmkVhm7hmN09wbGjU3zh0x/n4jXHW+/0ePXVc7xzeoUrc9dZWROC6RBiF7UTBOmyVLX5/isrlH/9Nr/3Lx/gkf1TWAaoT0YwpeIjRuI/Mp6Mpzp+v3N46wy/2OFi8XUtgWsd4OylCm9nEA0UvodImyhtVBRDP71bm1SG3LiKIMZA4YSyJbRahrIIoItUPhJCD2uVzqQhVh6CgFpiVFzRJm6yAm6r1/2295u/DfZ/2/dx9M82fuYv4D4CzfiTDKaqSde6KN57BENRTHF+wRHCA42RTum6FFFLE+L1OzcQh8ZXTfNII7N1ULbBlgFjPQV9nC5hpEKkQtUTo8eaMo1/jeFHDSq++Sw7WtcjQIiCK2ZY7Le5utKmsA4bLRJLogjeegx9Jt0q+3cNCDqPj6Slq5sqtbd2Jm9iExX97egXnkPid5DhDbLBJDQh9KEITZtKZMnwyPBKk5hU5aMwdJP/lgIlKdWT6tyDTW05Y5jHSJupyTYTk12eODbF7/zaR7g2b3n1jTneOHGNl352kXfPrLG4ugz2AEW5h4Wqz988e56HHxIOf+Ugfb9CQQA1jbqdUUnTez0g/rMTq/wff3yai9dBouCCEhG8WqIEjOjIMVcdRg2ahyjGQLtj2L2rw8yeSaanhM98dD9HDu9lZhfEeImltXN0S49ojZVW8rTVAX3u/TOU+UUi+SvajCsG0YLoA85YkDZBJ/n+j97hP3+zIox8i2Z8atJio1UvsiFLlj4WUcEIlKWwa3fJA4cmOfLQLEcPdzj+8DQTRYX4OSxLlKUnhjUQh6pFsKCpYRNasC5stWAs3jt8nObZ587zF9+ap69N1ElBcQQJtKzy+Y+X/N7vPk632wcMpigg+JvOxU4lG+w7RJqpFqCBVP4zIuIRGdZEbwyFmiYXLs0s1zV3WhgZlOGcLVrfhNFTVzIk4qsBRpTSOJCKaABdReM5NBoOTk+z9zOzfP6Tx1hafYKXXrnMX/zNO/z01UuoOUrd2cvSoOLbz53ns584wkN7JjF2BRUZLUczGojDYiv3MNHu49T505y5VBD8XqQO4AqCFaKpMdJPoTdc4ykMw+lpdmxQQqyACmtXKaznL/7yEkcenOQjT+zmM5/cy8ef+gi1nqOwK/QHPVquIC3IH4V0Mpl7Ah2l37QxsAXOtIBAUIeXKc5cMLx2TghxX2M4QZpqiSNhrUSQwdC9GD039LJT1cc+1izQ6lxncjLy8FHD5z92lH/6qaM8MLtGXDtPWa6BSeMX0abP3rAiRTGoOqIItRgodnF5YYmX31yibk0RpenG2ITFXbzKoUMF0p4Be4U69Clks7TUziUb7DuFmqQElyZ0JHUTCRqGg9IMU0WIbiXNNnVD/qiZGa+byJT/lg0hYFFD6dog4EPEVwYxRcoLiaXTSimCtWqe4BfZ027zlS/u4fCBp/jf//A1nv3h24SpY7TKg7z59rs8/+IFHvqN3cSmc5k0yQgZhZ/vbUIdqXqgvgNxCrE1lQZ8VCIWqy0kliAxheKGa+mbZXgheIwpsDbpBrwaVnyXn752lRdfPsc/fO8cH/1Ql6/+9of5xFOPgX+HyCqiK9ufvMpktog2aa1R0x8VYoQYqqTLsCXiZgnxPD7GJi6viITRShbFpTa/AsRhPrtpV6xC9AZDSdtNg3iqXsVcr+LCpRVe+slp/u7bZ/lXv/Vh/tmvfhbvT2D1espfNzoelUCUutEkNSLXGIE6rbJxQnBtqtAhqDb6EkCgcKBaYXQVrZZxKpRl575az+LG8wLuncFHpAktD+2c6vjt4Db8+8HYwntNAPojgyfauHGkNptgiaM8asA6S6hDOl5VjKQ2oqNsuRqQYYtQQUihKx+asLmAsQriERwxCr21NZAexnWYahfEsITxizzx0EP85q88wY9ffIEVCcRYorHgtdcu8C9/42Da4nApOcN93uya2P7rZCvitLZrkxbKFagYxChFo3pXDE4LdOBSu1abluYZbTxsFOsMxgpiDLWvCero9WvKYgZXTHL2ygKX55Y5c+FFvvqVx/jSF45g7FlK0yM0XdE+yPG9H3erOtytMO73dT8d9/sdy1aO+7bk2dk4Bqa2ujEGXClE8dQaqLyhtIKRYU45omKTs6ElEYMYQwxgnW2u8ABGEXFoYTAUxKBEUntfkRalm2YQBrx04gpLX3uDl372Nv/+336cIwc6rK6eods1DOoBaoTYaHaSe2JRHzHDfaHGxxpXtHCNyDMKpHtX0BgweJwqlhIJ79dyc7MTPK62ZpPXyZ2xku7nXRj3nqMgjYEe9rC+tSt7KzfC1lTMVTLaapoc5wZ/VZSgNSoBYw2FKQleIBrKVocQPKoV68Iqi+BSGZbhhTL0wNfbhzFcK60aQSzWpIs+ap1uVAGrPRwLPPLQYaYmoecHqHc4N8HiwgK+NkgpKVTVTDDi6NK8ExfHBxeopV7nYKxBY6Cmj6ow8BGDozQGazwq0I918jia/utiBOeE3qAHpgAchXNg1vDqUFOC3QtmFy+/fYWlr71JXdf8zq89QBUWsfZWLpZxzuM9brVGbGHQ25Sdetzvt9/jHfdQuLqdqKx/sjSaGWMF68DXFVHqRuia5DLDCbpi8HXyYLulEEIv+QtSE6IHjcQAIabeBEXZwceAcw5QrIUYampKaD/IuYVlln58jdndb/NvfvdxZqYOEOIcYjSlDkVRjU3L4rRaQ6OgESQqVoSokdjEF1MUMm1bxIBYVAUjRXLOzc3fzbiTqfEnXXfGUP4Jl3QAACAASURBVOaQ+B0jJqNNgUTX5Jwbz9VGlIDXiGCJgzIpKKMy6EWcEawZ5lcFUZfUkc4TJKDS3IAjL3hDr3AB8BitMXiUQERQEUIIWOMxpqI7ZZmegetzFUHbxKD4GqoKKAxifDOENIrxu3AGb5WIJQjURvHiUY0Y18IiWBWMrmC0T+0rnLPN2vlG+BLBe6UwLVzZIsQWqlAQEZOiIbUK0RSY8kFOXzrPH//nUxzY2+ZzzxwixisI9d0+BZlMQgDiuvpbYgptk4xqcoA8QgB1KC2itkiLVEsK1yLUK3SnhJXli4gHW4C1YA1otIRgqYNFYoWxDmybykdKFQrjqbXA06IXLVorX//WVfbOdvgX/+wocXCVThcqv7GVbxLaigpGHTGWzZKvEnXDVzkiSaQW091JEEswgh/Wj7iPyAb7TqEuCZzUkXLOqdqZWKHvIdIG0yXSRssJ6ijYUlEdULOKkRpDjdFhR60mYKS6QT0uIw8+1S0fXqwVhjotlRAliqTlDjEZ9hgGWFNhDNBMAGIEHwTvhZQ5qdPSMtVmsrH9HsB2EyUSDUQTiFFRtURviQGc6XPkwcAzHz2AxgViDGkiNJqtG3r9wIXLK5w9f421NUugSx0LjLRxppn0aKDvlcniEO9cOM0f/L+vsf+Bz3HswCI2G+zMvYIq0qSCGCm9UyGnZBC1mcgGUoFkGXnkaIFF6bTW+K0vP8nB2UlsUKLpoSYQg6XuQ68fub5YcfbCEqfP9ZhfKYhxknZrD74qsBgiSlDLQKa4Nujzl39/hqeePsiTj8wSw2ks0izpMo2wlSYUTjO2WRQhmJDC8+pQNY3DEkDW19wEE5pju0vn/DaQDfYdw0Ec5nw8SI0Sqb0BncaZg8xfd7x7rsfJiwMGvVV2T7c4eniKRx6epSyuY2URJ/10y0kTutXhgt/IulOdvOBRWVRpFJdYIslgD9/vKDBeMSEQPSNJWTRCFAPiWK+NHkcZ83vfXMN6UK85H7Eg1obCCDaucPyRFv/Dv3uajr2KC/3kXWuKHkQFr5YqdDh3YcCPf3KSH/zkIm9f6lCvCWhNUTgUD8ZRhTbd1oO8ceo8z37vIg//bgsrK3f16DOZIetrsNcn8ukeNmlciiBisc1KEBHfGELBqIDv0S2v80ufnOajHyooQ6Dyi6hJjgAxRbSidFlYLXj59SV+9MISz33vLNeXPFruQ0yN04qIQVWo7QxvnFnjhVcv8+SxA6AGK6ugHQItUEeUgIgnmgCmJtoB0fZAugyXmqYVNwMsFQaDUTCNaDeNgfdPW+AxDfY4OajxB/BbExKl5UQqEJvCFilosp5LTfmY2FyAIeW2xRMkjtpcri/au1nmv9n+JNM09FybBh4SGHmxGIbLs9I+DE9BMg+jMikyLJfSdOuSKr1HQuMjdxH7MK+fiHzr70/x/R9f5eJCWhnhDBw+BJ/5zCF+6yvHeWC2A+EibVvjVTE6vBGbPRA2LBELowNTiSmnM2oBapo5thJMC+cEi6KBpE43jZBP0vIklcD6WduoEL+bRvtGpbowLMDQLNBE1pfMqUnhPrVYa2i1LFoJNq7SMVdpxXdomT7D5XE6zFWYgjqU7Htihqcfe4iv/Ooj/C//8We88JNrrKztQs00URUngoaIx6FBeO7Hl/nnv/4UsxM9WqYHAYKp0SSTafbRYLRpv2oEwaFxQzhQIsakQ4mNQt8MPZ5Gx6HNNS0mDb46PG5SWdzh3YEOvaUN0iOVZiI3LL4zvJZN+puBSGSomhcEFU8qTTsUTjRLcJp7SiUgJpBEjp6kIminyAZr6f1igaIRQ66LR9H1OvxIaJYdpfW12Nhcw41xaaaMRpQYk7ZCkjpzdDWs/7/xWk0Ps2EMGIopNTLSaGhzTxtpxhI1RDUp9TRckommiSyNUZDY/E7KAw+3q7GpltdcpeLQkFTWxqQ6/aqa0jECQSMYgwbTeMQh6VJUmsmkTfelxmanbzZGo8vkpr/KSLyV/uJIyuwCRDFCc402E11ZD5W3OunYnCwi1UWcqbB2MEqTmTQYUUU4tGs3R375MB9+5CBdW/Pn3zrHQHalr9ZEhKHqvE3QDq+/eZ2lXznIbLuFNlEpGT2GP2mz3+lh4saxP11LAo2xjmm8itxim9Jxx7O7p8kYsx/2jdyKKnJzxhempMGi+ZqEJKxq6t8l89kYVklVdwyNstp4gmHdMxyVrhxvf3RkkJs1ixhoOnMpNokjRsVMSOKIZqAcDaoi66ElpfFvq/ScpipCYvZx8t2S/+0Pv8+Lb9as1QcQYwiA8XDyQuDcN+a5vPQ6//73HuXY3mlMfbH5/DRTXa/xveFQZN3j1lGhg0iQkEqLRvDi6UkHVwImvV6DwTpFvTbvqVGpNnx2EoPomP1xbw/NCb2hHOnwKml+3NCgRNQhMkC0g9o+gxApjENUcaGmZWusNGtNpSkOoQaipyUDqFewCEf2TPA//tvH+A+DN/neCxV9LTDaQjTibIRQY900716s+fHrkV/91B7aegGLwdNDKZvTWCO4ZLCNEFWIUdKAHzUNWjY0Icv03SpQVxXWFlhTYE0a0CvfRzBpwDcGax2+agawDfm7NIltfm+W45iiBWIxCpY+EPEB6tBU6jMK0aAh1TBWCc2137SJTVcpNN3dk0H3gAOTqmcRHFbbYHqojdQKIZQ4G5vAK4zuKbXNd1elKJK2iBpR4/GxxpgWxhTpXIWawmiaV9k0HmgYXpOKNisokhEdTu+HERdDCKGZVNBMItK5M0bWDYOv0BiJlNCUqU33exoHRAXRgmG+VfVG71WjYo3grKCNMEvrtB+SZBIMqppOp4OvKwSljp7oLC3TQQkEKqyJGLVEb4jRILZIaSwUa4W4efPr9/wtRdlcNHhbp7EytoA11DjExDQ+mSKdD031CQSPmkgvBpyBVtmlMKCymiqdqUvXH4B6CgkI15DeAkf2HOarv/Mwr58+x5tvr+B1uhmzKoQaDS3a5T6uX79Ov++gVaAy0dyDihXPsKAKrH+fEstU5ayZ2AbRplqhQ8Sm8d4GYqgxrhzbRo5rvza3iTc6ENuxnc24x0Piw0F548x54wPW2z2u52/T/VMiWiLaQtQ2eYwwtgZhGE5OYWczMsTDAWE40xsVD1BHVJe8/5H3kjyoKD7lZqISTRr0RC2qXZaXW/ztf3mTF16q8G43MZQ46zE2efHeW3yc4O//7gqPHRCO/bfH8OESpqzQUAKb1cnN3BobPbEN19Pwe5ZhTGfA4cPw27/9DG+c/iFnryyC3YUxNnknWhBDh17P8cKPT/Nrn3qSur5EWZZIs4Y1RT40XRsiaJhAtYVIxNgApkoertjkQGHTICRC0XGoRoJ6ooKo4KSFqINoCEGTr2EckZjW+ktFSr840BaiBSKS+rDXK8nTViG9k1HVKVWlLFsQXTI+o+IZzZnSZuI+8vLSxNbEFiEKUhiMqxGzQl2tYVzaZ422qf0/LFTTTKi18bx0OPAFwNOWFrGylMYjgSbqkAy9+og4SwyBqBEjjmAiUdIkNYVzA2ZjlADo2wGmbArmBE0RAR8Q41MvAK0QPLboQnQpkiWCDwGtLcZMNifCNxPauH6tMKxSELG28ZqbOrVKRKSfjJZ1RDGUbQfqEQ1YI7QLhzfg6BGiTxONkKKMTpRoBljrERMJVYWhvEMBX3nP/ySHRkIqc6op8qASEWPACEau88CDHT73+Yc4ceo6GiLGtImqDOo+hQvUvk9VDfBeiaOCQ5n349432KPp0bCv9PAmN83MeH1G28TRYPhXHYYH7cgAJ695DJpGHMPw4npQayRpQJvwmugwZFM1XsZw0Ek5a6uKjUmZPGzvkQbFLu+c6fHdH18iFlNUcQrr2oTQA2MxNlX5UW1TOnjuu5f5yi8d4/DeXQS5vqUzm9lIE6GATWbjTXoBSV56uMCTT3yU449OcvbyEsIUIdBkDwzYFkEL3nrrLKrdxkgnD9rQdDmTZionFljF2CWienq+wpoWrpggaBelA9IiRkMdI9Y5at9DfY0lYCRiQsRZj9DDuYB1wqB2I68kecN1E3FZjwapGmIUIhZVB024PgTBFgVeB0RfY2pPWRT4RqSUdAzDErqwfi8Aagi1IcgkGlv0Vxeb+8XijCPGSGEsRgaYFINery4nzZLHYftW8Y1Hn1JIrVab/qBHqmVvMEWHuqqJoWJQr+AKQ9tOEEfh+vTdSZImIcNmO1gKHwhVJMQC5yZptXcRRCAqvh5Qhx6iNeIcMVbEuEzpKkpXYqREY1OBy4CaobBwOBYNl0ylAj2YkqoGkVQ1bKLVplcrxnaSAdc+EnqUDkJUfLBp2SAd6lpwrk3SvyjW9FFdwfdX6HYK1A4nldtt5HR9vnoTG4LVsWCYE08Ge+hbWUR9mlC0+jz4wG5arXl6gxRlwBWYIq2MCWGAklIEgbQC67b0uLlP2CEG+705KcPGC0eb/IbqhkFpFK6O0FxMo/D1GIyye80yiLRCYMNVLGnAsTF54JGCKCbV3ZHhYGQQAkZrbJNvTiGhtI5ateTyXJ8zl8G3p6m8oeMMGlM+U0VTPgtH33c4dwmuzSsHZ9op/LPtN+ovKsOJ4HvR9wz+iosDdk8OOP7Ybp778XX6MaIYfPRYkzwxFVhchqXVPgcmDV7rFLptKqildfFK1JRnjxrAtLB2D3WYYrU3xdKqY+56YGmlZmmlx1q/wliLs8pEp2RmqstU17FnukW33adVLKOygI+rqNQjPy8t0Wk3+VAlat2IjIRoDlGziyhlaobS5E+jM/Sr60yVAzQuoiatix2dE3Tdwx6JHS2qJdKaYXVtGldOEcu6KR1pCFpDXKPdqpFwutEWDLOUAlTNRDbdc9qcR9wsK4MCW03Sqz2uKBAMhRbU9RLT0x4tr2LpQYjNksekZ0hh8JRLDxQE2gQ6BJ2iVxlW1+D6gufy1TUWl/qIMZSFZXJ6mpndk8zsdkxNVHRaK0Tm8NrHSWwmE825SAuSNxiZ4ZhkUeNQ2cMgtLHFLhDLUlVTxQJTO7xfYLqzDHh8DERtY8pZBoOC1bUu8/MBX1s0OMoiMD21yuEHp6n7Z6hCTYi2We653bzXYsp7fm4qKxIwOkzbpNfECIVzmJDqPDiU0lnERsQItU9hEjEFIUTaDrodR7vtuK/k3LeJn2uwb+VyGDczPT4bPeyNW9Ebn5fmJyFVA2vytToMWw/XKjdF78fe7rBMJTAsITosdDLMLQKodvC6m0Gcoh+SFy0oLRNp2TVKswS6BtSsh+/To/KgBfSC4oqCQW8VV5apZCCBKB41inEFaxUsrdUY26UOJdaETc7PLXBD+GlDZILxvvedOV3YTOE+HITg5mtu/XdBoa5wrTV2TQtFkYpF+OgIMRCixxhF8dQBFldW2L9LCaHGGWk0ihE1msLDWFR247WFxt0sLHd4+dU5nn/xBK+/vciV67A2aJIvyblFI1iByTZ0S3jkaIdPf+Iwz3xiHwcP7sbZ67TNAkZSQYtUua3d5NhSBCiqorHNn/3lm5y/PoWnSxQweCQoRaFMTQe++IWDHJ7t4kwfDUO5wNDLTpGlVFca0IJAl9ffGfCd777GSr8DpoVRi8YI0md2V+CLnzvAY0cdw850iSblIKGpKZ20GVFLXj9Z8+z3LrPcLxgEh3EF1aBPx8HMRI8vf+kIDxycwjkgrKZlPKQOTSmVa/HaIsgMgzjDaj3F86+s8vwLJ3n5lStcuw79ARRtqGuoKyhKmJ6E2Wn45Mf28qVffpKHj8zSKeYILOBMD2GAavLch5M9acL52qyuELuLN09Evv+jd5lfbuG1gDhATRcxnon2Ip9/psMnP7wL72ui2cfS0l5+8rMr/NXf/pAzZ2BxHkINU5PwqU/A7/+bYzz0QBdnK6y4dEHEMZpbDOdvG37+x53zjc6SbHjzepQzTYhich6UJhwesc4Sq4qUcoBqkKINxmiKYvgAJmKB0kWmuoZWK+Wd0Q07dTuCB/8I22+/tn87P9/D3kzA8H4vvOllmwu9brU62cZtpLJ4dcoPaar3HIOCWowpCWHYls2ORF+CpJzfLX35Q+M+DLnHRnGY2tKJccRYEFybEPfy0s96/P13T/HKG3Os9sGZyLHDk3z2md184XMHmJ1aQquL2JYhxNQhp1/XRHwaLAWi97ScJYhPhQdIHliQSB1rXBuCBuqQWtNt1hFKR3fkDaetUaGuPyD1Eh++NIShYKspqDJUt8sGRTLrDxG5LRfz7UZEGFaFlebYksL45snLjaQcbavosri2xL69kyk/GTyREpGkrkfqlDt2YFySGabJXkhNU9TjjKXyBusmWPVHeesd5fnn3+W73z/HhSvQ810GcS9q26gUSaEMqVFC0y62qmCx77n00hovvX6Kmb8+wUef3sUXPv8on39qionOIvXgKp2WoMGSxNSKGI8pCwhdLl7bzZ//zQLeWaooSOzRtiV+sEar5dm79zAHPjtB0KtNOHnYvzhdA65w9Ks1ijJNIKuwi+ffXOQPv75KJB1nHFSIBMqyxuoyT334Ixyjh5U10gSiKQTULDNUQGyBj32CTvDmKcuffXOJhdUOsdyFjx5CYMIt8cTRwO9+9QAi56irNdqNWt8ai5gUDK+CIbp9XFnYzQ9eXOCvv/UjXnnX4EMXdD9CF3UFa1XEGUVKzyDUzM175heUcxcD3/q7H/GJp6f5yq8f5eNPz9BxF5F4lcJGJJpG3W/ShKNZKxxwVL5Lrfv5s788xfxKIJoJjK0IanGmR9v0OHpwF08/vp8oBW+fEf7kL37Gc89fYaluE+MEQhtxBb66xktvLfPf62xKp4QaxBFjfZML8n5jQLqFU6RFlU0mrjdf8xs/MwUYpbmWwAmpOmCjlE+VGiOrvXm6riSVMu1y7vxFBrU0E9oCaw1RlZYRYn+Zj33kON12jfoeG6tlD8Wtd8xmb6UO8qbcXFEtCRffu53N7eRm3OMh8ZsJweMEVAPGphyXkNbdhQBlUSIRDEVyXSka9WYqFH9ra/KG+ebhspIUFjdFi0EFaIulcIRvfec8/9+fnOT0BaDYR28gTHRavHnuCv/wwjnevFDx+//qOIdn+tQsYiWAVoiJTZUymvR7mgyoWYXYbo6rqforaSISJaCmAlOzadPlzAdE3/P/RtZvMB8UV5bUdWj67TalHocFazbk/0QsdaW0nEXpM6jW6E5MsuZrojvA/GqLv/7OGb757CXefHON2htanX34aMAm4RexideIwQ+zMcYQjUWLFvgWy7HNwqXrnJtb5PvPv8C//s2H+fVfe4D9ey21XqGQQVMUxiLRprSMKB96+lH+4r/+hEHoMqCdKkjFpNSN9RInTi7xq//kCMEHzLDS3oaUT1RBXEGthioUDMIUP33jAos1GLcXp1NYA2hoOiet8cLLF3n68Q4Ttm4EdmmhpkGSqtoaQoyIayNhH2+efJvFnkGLGfq+BeIoTIt+f57Hju1ierLC+DlK6aMyiUggak3whiBdYrGfU+fb/D9fe4XnfrjMtcU2nak9mNAUMdKkM4mhTsvrjMFKG2MtVVR8gJXlNt989ion3pnjX/zzR/jKl49QmoBzq0S/SrvspIqAjUIlNccwRCq8EWqBgUzjzQTWdql8iYsFsMIgTDNgH+cur/G//l/P8qOXIdrD1C6VEzbSQnBEaeNZRimapUseFdfky+8GksZXdenRfJMqhrLTprdWI24fV651ee4H71JVuwDBjloF18TBIgf3wdMf2o2VpSYieofd6h3GDjPYaTmEdalKV2qEXtFtC6Wp8FpBWKN0oLERtkgq9zmUg9za1hoPWxjdhEFBowIFxkzyszcCf/xXpzlzVXBTR1mtwE6UVAjlxFG8XOfr376CsZ7/6fcfonA1jlVSwfzGGOt699eRoANpuurEZkZsN6yt9SQhkb7HM8x8MDZGD9771DAlkq4fHyHS4crcdXwNKgVq1pdRSTQIhlYB3XaBqFJVFUUn0p6cYKVnieUB3rk4zZ9/40W+8ewKc0stWp0DFNohqCVowKIURjEiSPAoQiGgJuV3fVD6dYAoFHYSV3ZRAourFf/n105zZanHV3/rKMcOGer6Am3XiN6aSnuRmief6HJgP7x9fhmhAzYSJSJS4H2HE6cuMagO027BcI2xDBXR0qxGFkMVwLhJlhcd75xcwphpMCVeG0V8E4YX2+Gnr57lv/vtDzf9ildTSF0NEYeoR6RZpmRa9FcnOXNujaBdQnCEQFoiFWskwoeePERpK6QSrO2w5iOls8QgRJlioAd44eWK//s//ZCX34ioOUB7chf9QQ9n05hgjMfaiC1SIaMQhRBTy5hoPNYIUnRotY9ydu4if/Sn7zCoPb/95SOU5jKFRKo6oBQMI2Jp2VaNSJ9hi9tgaoKtiUQqDYg1UBii2cVKtZc/+MM/4oXXIJZ7ETuBxtWmhoRvDGESZolqs844pcs2FP2+vYy2sTHqmL5bbdZrp54IBQuLNdPdQ8yv7uYbz57gxFlQ00khfCISa4Q1Jto9fv1X93H0wUjVu8pkp0NV30+9tbafHdIsdN0opZl+wBglqqcoYc9MicQ1CrOC+gUefKCkLNINY6RCpCbNfse/GLTxrlUar1eSaEKB2ivWdej14K+++SJnLhjEHWAwgNJJUn5KoDcI9KoOlc7w/Z9c5+ylAo270qx+OOA1+Z9Ud6CZLcc2Eov0dwIWn55XUshtFGbNbB/v51kP83fpf+O61FWLM+8uorQxpgXiSQVxfBMVEQ7uFybaFmdAowcTGYQI5R7OXGrxH7/2Fl//2xUWV3YhMkuMXeo6LQESFKIn+h6xmodwDROuYOrL2HoO45dwDHAmYF1qblJH6FdCFbusFfv5o69f5j/96UmuXt9L2d7XTFxTrWjRiEjFvt01Tz0+BVUPR1rbHdWDsYid5ML/z96bPsmVnWd+v/ecc+/NzNoLBaCxNbYGGuiN7CapJsWWSJEipZEsidKMRstYDk/YMZ5P/jD+6q/+DxwOh8cxYU1YI49iJM1QJIekSFHiIi4im0svQAONHYWl9i2Xe+855/WHczOrgAYkNJsLRPYJZKAqK5ebN8991+d9nluexcUBqgUj9LaOcilCVCKGoAZsh/Pnb7K1HGnZcawYRGvQEjEerBDImb9RsbCYHNzQEUVJIC3EEmPEGEMIwuKiZ2EpoHaSEAVrtUGYb7F3Nxw/NsNgsIx1ObEpHSfgZ06QXZy5oPzbP3yZF19xeHOImg517CUObBcR6RH8IurnKdwtcnebzN7CygJWliH2cFbwMdDzUMssC2sF/99/usZXvrqCsp+oY/goDd1vAswJlqE2dBopG+6igGhAJCBWUFNQ+gm++JVrfP1bNepm8NqhX240gK6QKIWlTHtsuCt12JZ4sxXDt7LuTgwangkxREkcGVELMLOIHGJjax9f+NICn/zLawzCGJg2YixowFJTuAFPPzHBhz5wmLHWGkZ7RP/2iOo/tB7yDHsbfTj8KcZAFWqKPOXMYx3LB3/+NOcufYsr86vs3gu/8POPMzfrEF+ClCTXONSWHkpS7gQTychBb0ePIQFKGuc41Eo2xqbRF+dYWekxP9/D+3GczaGOFJlFQ0U9qOi0pqmqCh8MN27D9ZuGw/vH0biEySCGZKhEJbE2NbO5xHZTUq0TsENDYwRgW/v6Hws96A9x3ffj32VcdIhEHt4/HL2Jb3zKXT2zUdVDJI3yxIyNLcflK12qqkXMPGRpbKpp8iHiObRvEidlGr3KGrpT02Z1s8N/+vj3+Mxf9SE/gXUGqQeYaIixwljFmBLRPpn2mOhEdu3KmBzPMaosr3ZZWtukWwo1bbAdQnSIcdhCQCI9KRif3M8XvnyD2fGL/MFv72FmbAMr/ZHzMHjaruLJ44f4RDwHsYWnIMQSsQZLi60ty63bytH9Ywi94WQzNPwCqgFjEpFHHXK++9I16n5G5nJiSAM/RgSxLgmmVBXdLty85Tl5OG/mHIZTHoKxlhACxubU3rK4XLO8GgnaAiuICUTfo5V1efSQY8+eSH+wyPj0OFU/oiYSxOBlkkvXlf/j3/4d569MEt2+1GeVHrCOkBF8l/FWxeOnZnn26cd49OAM1ikbm31eeeUyL31vgZXNNn2fk2ctvGT0+56p9l7Wt67xXz55llPHZzh+aAKhP2qepREsA5JhaCExtRoktjAxw1lPopSx1HXOZrfDn3/ub6h0mqi7UF8x3q4JvgmsmnMjDJr9aIiS2OjeVHGt6UEPSZzegOu6oxK9E9jL6EmpqVgkAhSGaokJJCgYvHbo9se5fK3i05/6Jn/91U22ZDcikwkHExXRmjwrmeh4fuefPc/Rwz1Cf5lWPsQCbF+j/3Bp/F7Iufv9/JOxHmqHrWQNaCdRBFqNRBwqY5R1mqxkcI13PTHF//a/Ps7WWsnEWM7MZIlWqyAZOppBden1YiR3BRoqRCuMKCFkRDdOHXMgT/0+W+FMBXEdowOkHsdmDkLq/5V+GfQgW1sgZgyviuQZfa+obeMs1FomzVgtsMZy9fo673tP6rXjDdZYMF0wDZEGQ+y5J9oaD5jYSffZmOJpgagRq4ag8f4+6+5z2QDHhrcE9k20iaqaQDr3CdZlyP411O/mPoCzHyn72U48uzalwWGfVYBIND5dzpqniRG1GJQYawpX46jRAD4zWNPQGjZlxzRuFdEo2KxNwDAYBDKT8+m/mefVy4pkk7RsF419KiYp1ZDnJe3WGh/54LNkDDAIznm87qIvx/mLL97gz/+qj7p9BB/xYcB4Z4J6M6OTCYPyIrO7NnjyeMFHn3+cp5/cTXtiADIg1xbed1hYUb76nat87bs3eOn8EhWH6VdtonjEbmKiEIKjF/fwJ5+5yeHTj/KRdz3CmL2KtZ4QLSYavK5z4ug0cxOe+d4S3iash9UeFqH2M3zpWxd578+exvsrqLQgFBgZEG2JB8KsbAAAIABJREFU14ocQWvDetXma98bULs5VMFqQDJDFR0+KJlGrAplDS9dGvDeF/Zi/DgdrfHap2wYN6kGlGWE1lE+97VXqSWnrntkbUevzGhl4xizyAd/7jGm3SqdzjT9fkmeOfJQ0o3TrPX38Yd/9jKvXp2hNDP0/QJj7Un6WyVFPoZhnceORX79Vx7j539mjulWRdutUpc9xGb8kxcOcH1+jj//+DU++8V5qvwg/SqjlWdUVQ9npjl7bYM//a9n+Df/6iQZy1igiOl6DMagkrLFaBRv0mSAASRGjG3oZk2Hr37zCtc229S2Ta41Y3GJfe2KPXvbTExZ8pal3w/cvuWJNZR1ReiM0YvL6KCmnRUPFLiPEh4j2KFMbjM6Z+I2k6SJye4mJS+fRvXUYuhRR8vHP3+Rxx7tUFcZnSKg3iPaoawc126vcv7qJS7N91nbzEEeSZbCr+Fcq6kYrPL0yYLf/2fP8u7TG4T+bQrTbiR/y8RaN7qmGxSRCCGkaGPIbBd3frIhN8foZu66741n40EByG+O2vT7Xfc+nnuBsx9qh21GJA3pwIc9k3hHeciS6xoHJlvYyRxCHzRl1RoNagqSpGQihsioEWrqWGPdGEFn0PwAL59b5+yFZa7PL6DeceTIJE+e2stjh/ch/gqZGZbY0ww1ahnKuu1cw/xMd/yU4I7DfvgQAskotL27e7qd/e/YvHetn7zY8Qew3nCqdn43CQ8QGpaTygewFpPnCQHrmz7ckLlLwLocJKOsMqK0cMVevvyNAX/2ye/Sq2axWY5qjffp74XLKFcXeeLZPRx/dBojVzEmEjXHh2kuX6/49Gdfw7lx6tLhrMPmhvWtVSayAtVFDh3q8rFfP8YHnz/AY3M5hBXKsILNlEGvotWeZHpuhkPHHuVDHz3BH//pt/j4p65giz0MYpsyGnKTpiKM5HQHjs994RV+4d3vwesqoV7FZNrQ6/fZvXsvhx/NuPnaFrmbpa4SP3ZV14h1zN9aYW0jMtfOmkDPNkhfC6qE4MmLaeYvbbKwHAkYRA3WKpUvMS7HNmNWEUPlDZeuLuPDo8RgiaZq5m8NPgRsliPkbPbg2o1NegNLlrlUataETZmcMuzbO0HutlBf4yyEWFNFKJnhq9+6zrdfWqYOe5HM0OlMUA1qJtst6t4NnjsV+Ff/4ws8dToj5waxt0ILS2E8EcizNk8en2P2D14g2u/yZ5+7jisOE2pDJ5+mrgbUdcb3Xl7ltXPKM4/vB242qOadW1CH9euR/4jGUNU17SzHl5aLF5YJWFquj4sLvP/5aX7pF5/g6ccnGR/ziBMGA2VlqebyxTMcnFlGest0ij5J0Mbh5a11Nt+Yk8Zh3YOhfYrk+DjDpz5znlD2yCxEB3VI+bWVDB+VIDmBDmgHZ1JbRGKXEJY5sDvjwz93lA+9fzdPnRRMdRlLSahrolFM4VB/P9v2Zi3eT6aFfKgdtjRCHsCoBJTmPoeEKE05RiMmlqA1GvoYCRgcUW1D2p+Yh5BENxK0IhqDZLtZXtvNpz53lc/+9WXmF9JMpjMZsMpjh6/xkQ8c4Fc+9AizrRWQXlOidtBQTf4Ihw7eXm92jUQeGp5rMYi1ONcmVgOCcfRihrE5ualGgZICQS115cBOk7f3cnuxz2sXuvxff3yNywsZebvDoNqkyDzqXKK0jCtM5D0+/PxxpiYGSNhCjFL7Nj0/w6c/+ypXrwH5BEieAEh1oNXOMGGR/Xu6/P7vneJnn59mIrtF1dsgE0/uAiEGio4Qqh7BL5ObFrvHJ/hvP3aCjmnxp5+cZ+BnsPkMgifGAC5HdIKXXl3m2y8t88Jze/GDLVp5qqjUZZepSXj6qX186/Xr1DqJSIYYh9eKzGRcvxmZv1HyyMlJQuylmCialI4BIUCWT3PuwiL9AQRrIESceDIXCAwIMSdiMZIhtsP1+S3WN2FiskMIPZBIiIYYIzbPgA63b5XM345UPkvXe7S0ixYS19i/t+DRAxM4s070NS4zDGpPNC0W1yb4/Jde5sZtKDoFPniyPCdEj4tdjh60/M//w3M8drSPra5gZJ3MKLFKUreJiromqDI3m/Mb/81xXrpwg0u3VvAyQVkP0fEdrt5Y4Nsv3eapU8cwutC01NJ+u1eQrUAdE/mNFYszllDXdNoeqzf5tY8e4Hc/dpK9e3vY+hJGe/g6MJV3mNk3zpE9u2kVFSHU2JgAhHcyu/1glkCaemCom+1TmyIYvLbTzHrw1AiaJRY2QsS6JmGJBmMLICBqmJqa4LnnHufD7z3O8890mCiu0t84x0Tew8QaMRFvhTLUZNL+0YDo/pGuh9xhDzPrJs9Wy5Dcc5h9iloiFq+KM5DnGRoh1El5SJrOS1JusmmulRp1UyxtjvO5r6zwf/+Hy3TrHNw0HoclJysc3z5/nfnb19A44J//yhGc3YCmAyX6trN+2Jc0gJ+k8Z0CthACQcHEjJpJvNlLNuYI1fLoeQkA1QKZ4NZtz2vnVvjSl1/h698uud3fg23tS0I0Vql9QI0Fs4Xqbd79Lnj+OYf6eazpJyCVTHDttuELX14la83RLVtgHHWoUAHnIjZ2+dALe/jozx/CxNdpscJkGwhQhppAwMeARTDah7iJxE32Twh/8LF3cv78bb5xrsemzgCmKbsKeWuGbtnnk3/5Ku988mcbUYkeIYKxNbDOO5/Zz8znr3J7YwA6hg+SYh2XsbIBr1/c5LmT4xh6qaUQFMSmkWMyuv2CM68tImYSFYeqEkOfY0fmWFlfZ2m9bgCcFptNsLpRcuHiKgff1cF7Teh3n67pEA3iJrh4dZ3VTbD5eJrL9lkz97vBsUPTzE4pGvqgHqMOVfBM8J0zW7z0WsC1ZhIdaKioBpAbpTBr/NIHD3PiSIWTm2Suj6FGo8MVLapQEwlILqjW9DfO88RjT/Lz75vj2p8tkRVj9AYVQRxZnhFqw3fOXuM3+seZbrlRF/veDjt9PjEZufFoXVPXyWb1Nuf51Q/P8i9+63EO7l5iUF0is4nFLNOImB4xlBhRqiq12epgcFmned0HIE55M0uHgi4mterEU3ohBEORjVHG5vOZgJiEU6CZHhAAA0Fr6lBjbSQOSr73vfOwtcDm7UmefccETzzxOLG6jqlXqP0GShjOsL69/p71UDtsbUrIaXs0c67RIThEfFNqdkTTAE4QBnWFwadNBCR0eGxoIQ0eSzQ50cxy7rLy//zxqwx0D5K3qUJI0b4EKu/IWgdZ2bzGX3xmkScf289zp6cxujnK3BLX8ds77GFdw5nolCU091mLdY6ohrOvb/Hv/+jvaLsuJjZcyCQq2No7FpcG3FrwLCxENjfHKMMsuImklV1WZHYco6AqZG6d6Sn4p7/5FPsO9MjYInOR2luw05x9fZPN0rDZbyGmBdFjrKYMvFzk+adb/NovPkHLL+FkgNVAXQUgSwpKOCxKbjKMRDR6okYIa8x2NviVD5/izLWXWe/2iNoizxxVGcA7ok7znTM3uHxrwMmDHZQtfFDGxnI2ttY4cewAe+dgeasmRktZecgiXpTaZ1y+1qc3mKGdRZwzBG/AuAZtPsHSqnDhShc1+1ExWAtO+jx1+hEuXilZ29wiaEGIUEtGr2zz6pkFnn/qUYyvyYuIFUPuMgKWaMa4dG2Z7sCiNsNJkqaNVZ/Z8cA7nniETDYIdY/cChpjKv/7cb7+rQXWem2yYo6y1yfPhLKqELvFI3M1H3xhGmuXMa6mCjUiFmM6VNEhrkjKYKEiamRq3NHbusn7nj3JZz+3yvI6WJOj4qg9tIs5zl9aYHlDmWzZZKOavuv9aIVCtBgtMQSywhBjjyOH4bd+7SQHdm9g6nnGcqVSwZOqDgaPUmOdwavHZAW1VzQTYvVG4pS3fuFEiI2AkUS0kUzNbZZIqwygEYl9iDVx6OC1mfFvqqGSpz55pY61rvD1F1d46ZXr7P6C8tQ7Z/knHznOqQNtWpmDuErWjPm/ve6/HlBe887Nl3zhg2SXD95Mv+d7Y1Ga7AjFRJdAETHQ6mQMygHW5YhWCbFKGyUnBKGOAWsN1hlCFHLbpj+oyfNIXQey9jRf/+rLDAaOqB00QibDqFKJukkMLZybZWHlFn/7d7c5fXI3LdMjhpAyDKnecG7u/1kSTDNGbRjGQuoD3uuxI2ax4blSUMU0V6YIxKgP9hX8kNaDyms++F55IyvQW15DrMNQfrQJAOvgsdJifr7L7ZtXUSJRty+F4cRAjA4xbWJsEaVAcouRPrUqqoKTFibW5KZHIUv8i988wXNPTSO8hgaPUcugr9Du8LVvn6WMbcTmoAGRGpWAaEVuS375I8/yyGyfsazLYNBFrSeaxNQXjEk6UFGI6gh41JhE7ygDjF3gqad28fSTk9z+Zg+JbYKPOGsIGlDJ6QV4/dICzz4+h6lXCRLxdU3uIq2OcurEON89uwp2iixzRDugDiWZHee111eo4xO0uIaIYi30qwG4DGWMs+eWuLmQ2gheI+Mthws9PvRzx9F4nZdfWUXFgbRRLCF2ePHbt/jdXz/BmMvwdR+jliLLWN0MDCrD+ddX6HTm6NdFoimNSl7UzE7CyaPTWL2dZGAVVA1ixlhcMrz0yi2ybD9lGcgzg0bPzNQEZXeB979wnLk9A4zZRLSHMyFldmq2ZRlDTSZJoU3IsVlgz942c7sKbi6sY1sFPiiGnLrKqEU4e3aBI3tyVOwoSPS+RuxQpau5CVgx4FMmGmKF2E0+8HMHeOy4oaqu0jY1vspQlyhujSG1/ADxkVwytAKHIVZJeORB7emDAKjSsTZEUcOJmugIlWDE03Ieq1tYAmUUonE4lzLsGAJGHD4qYnMGlRJxuCKjpEc0E0RmuH1lhQuLK7z48gr/0+8+wy8+f4pQnqWVDajiEEi73UGPOyilVRsNdPsgKPIf93pwcNs9n32PJz/cGbaYhgc8NmVtS5ZlhNoTYsAj1MEhbhd1XdDdAh8iRUtotwU1JbVfwRmlLPvkJsPhMFGpuobuGlRlRrRN6VwNSXgAcls2fM8temWL+YUBXlxTWq0bT/T2kP/DvRrtbhlKuRgEnwInLEGn0NAhSsDfMdICqe+tGDFEUVSrxFHtPcYYMqdIWKUwW8y0u3zsY4f46PtnmMhvYupNkAJI8qcrqzULyxV1HEuoXCoMJVEdlsj+3RkH9lhys0L064ipUAl4KxBpGJsNliSkocYQRYgCIQ7IWGF2Zppjh6fJv7VEYFtnOkk0WAY1rK576tqQe0AM3oMzCmGDk8emGGtv0fd14siW0ACoMlbW4NYSjB8s8LGfyIsyg1eh9mNcvLJMv07oaIkRX65z5FHL3rkBz5ye5K8+HxgQGYRAVIOh4NYCLK4Epg9NEcMWucvwlcfZCdbXLIuLipI49UUj1ijRr3Dy2Dh7ZgTbjFLFRkwnaoubt2t63WY8SCASccbQ620yNdbiwMFD5J2A70eEkqQylkax0thm0rpO41RCLxgkn6M1Ns3Y5BjiNoj0m72UgFmVh7WNAT7mREn7K1XdGhrXu2evYqMTLmmMb2ZKeO+7HqVl1xHtYjJHPWiAqtKg2GjkQe8QSxnK+27DW38Qa/uVdPt3FVrOYcI6jx8dZywvifWAGA1JRTtQ+UhZgQ9J+KbyIGYScTOJ5ikKHkesHcbupi77XL28xh/9hzPEzWP88gePsbXxCnnrYXfCP971UDtsaLbNSBM7pMzSKt0yQLGXfr2LV14peeW1VS5cuE2vP2DPnnGOHZ7mfe85yu7ZAmsWKIoe3Y0Nxjt7MNFQl5Z+NyImTwGBJnUtVQui2GgTDWVmMbZFFZKBVAmpHL9D+/bt9bCuHR3FHdicoUhDJEO1Gf2jbgzfkHNOG6eVBAkExWiixYwygLhJzhYHdsPv/9OTfOCFXUyNL1F352nb5JhUHdZ2WFoZsLRcEzWjwUonQgxy1NccfGSK/XvbWG4Q6j6SGYLZ1pgezd03LFrpXwokrBVC2GKs7Tl5dC8ts0QvpL1pADSRm3hvWVjYwleWxHophADGQjlY5dTJOWan5rmx1E8tpxHntGNlXbl4tc/xQ+PUocSamPSONWNzM+fVM8tpJDJL7Hy+Wuf0iRlmJzd46vEJpsdgYWuAM3kCSalleQ2uzHc5dWIa371Fy1jKQYXLJrh6rcvtxXRwiqIxkkmFaJ+nTh9ncjxi6hKVSGxkM0MouHxllUE/IhasSVWSygdEInlrks1em2+/vEInf4Q7aYqHWJcETpXmvEe1BNthow6UYRJcxEclcTTUgFB7YWllkxDn0IYjO+kOmB22oSFVSbAzxDTHHD3794xx6ugMjpsJY0GaN0+yrDrqDavaZh47jo4zQf0Tqv8HetUMZYlH4YAl1gNmpyr+u997F0+erMnpUZgMK4ZofCraB8fGZuDqtXUuXlnnxZcWOHdhnturgfb4HjAZ/V4gdzkEwdg2Z87d4OOfvsjRw7McP7QP5TY/PrrVh3891A5bRsIMwy5Nom3EZkgxwUa5j//8qUt8/HM3ubmSMeg7oE2Rl7Sza3z9xSV+52MneO879lIOLjA23qEOmmYkJU/ydK5oSPGHc34BpMJKARrxscLYZGwT3/fweAxR7NvMoA/xUlxTZt/+kkRppCaHMomK4HEa78pUtjMYNM2CZgZCbx1hlT1zys++e45f/vBRTh03jLUWifUSnaxAghAwhADWtllfq+n1AElUpSZ1J5Ox1Zq52TEmxyMx9FN2a9qEJgO0GIwm8E80VUJxK5iYBCZcZiCu4esN5mb20smUXl03Ttc0U0UGKFhe6hF9lvZ5JkgURAOx3mTv7imOHRtvHPYYQ5MNlrIueOXsMh94vkNBDlqCgnNtbt8suXK1j5g5Eit4JDOeJ0/vIbe32TUlnDg6xe0Xu2StCbxCrJUoLV6/ssaH4gFUckJsgpBYcObVa/T7BdImsQuGQIgDZnbB8eOzEDcQEpVolPQ8rxk3FnoJoWya55msOV8VN29v8of/799CXAdxTZZMkxHsdNhxtAucsXg8tjPGwkqHoLuIWqHaw4pFo0GkxVa3JkSBzIImTnRjZCQ8Ovqv4QpQsc2xDzh+eC+FriN1ibU5IRgyW1NrJDac26k8nbOtalYzZNUj5gxpY39Qy6jFqDSgwibDJ1D1t5hoLzLRXqLQPm0tccYTJKTwx7WYzdvsn8x54bk9/PovHeVb373BZ79wma98fYHgdtHKJ5JiHYDpYCeO8M1z5/mTT7zM//Kv30ObRd5uZN9/PdQOG7QB9TgSqMEBDpU2VdzFX/71Df7oP95kfeCQbIwinyaS4YNnq9ri699YJHS/x6O738ehvYeo4m3qvJcyq6jUoqkf2Ri31L2uENPFxzHEgWSeqCXgGgGFrEnA8iYKfttjP7Sr4c3WUQkRRsPa4kH6qNSYCFkwo0w8Ee00xBHiwSjOOdp55Mhh5fETj/CuZ2Z455PjzO3axFc38NrHWEOkDRSIHWqzOLY2txgMwEhSIkoUlSBY8twzPRuw2RbR90BbqOZEUQxVKuRrQKUm2F5iztIMo3ly2lWknVt69Sad9jRjYxXLgxKijKgxDYJxLXpbG0hMhl9M4uRHA9bAWFt56qnjfP3Fs0TfVJxIylNR27z62k22to7hOlnSNkYRHPPX19lYB7IOPgRyiXTa8NjRPTi5iXEZ737naf72xa8R1TcOIEPsOJevLrHR3cu4S6VvIxndvnLu9dsgswyqCiMZ1ggxlBw61ObQwWmCXySTQBQlSjL+XoXNbpnccAyoRoIk2VMnhizfxepGpMjmGEgvBWpNVW1nG2ToXVXAeEF1gJYer22saxH8ABGPMQ6NEZdZQqOJnpKL1HsUI/f0O0P1PaXGmD4H93do2ZJMBY1FYo7TATZaTOrQoZpY9lRzUrbuU3ChrtnXP9jW3JAmeTthyiiycTK7QJEJmZRMOKGulYEm7gJVEh7DBDIbCNVNpvIWv/C+KY4ePImN1/jSd5eItqCKgsktPVNRY8mKCb728iZnzvV49rR526L+Pev7c9iJPuoBH/z9n36VYR9lKPVYkkY/5rh8vcMnP3eOrWoMMZMQLb7ZuAYQW6B2jpevbPKHf/Iq/+ZfP0PGQlOW0zQ3KymDMrFGUYI01KUhRyHptwZw0kGjbUpZzUcSnyzyTvCVwqjydcfnYPt5kFSJjEDUJmtnSCI2Al4NKQR3UgmqbL/WsMX1QKvhJBR2yms2xkl0++DeYn3//sfzAC/8pt57pwNuftcdn2lHViBEpDFwghmBaaL3tGWFw/tLqlJT+3J4KM25zR2Mj8PB/R0eO36AR/eP88QRz/i4JXcVRpaI/S2cSZrT0DBYSU00lhg9JoOVzSr19PKKlM8nohXUo5Ts3j3JoN9lV1HQryNq6vSoGLAEkJTtZDEjSoYxgqVMfVpbsLVV41pCK4sUCTuFxhZEQxRPMAkN3e8rIZrEwGeKdIa8JyssJq7y3Ik9/MV4yc31SDdm2BxiZXC2zc1bS1y8bvnZd0wj9XWQnK16hq+de406H0ODYOpILT1OP91i3y6IvQ2KsRaPn5imlUEfZTCoGMta+Npw6XKXpUVhem9BZjbpxzGWtjIu3oLo2rgQqYKn1Smw3S3ee/ogHVlGTEkpGVYT+6FPw1jE4OhnRbosCYmqAcHECBKIxlJLwVBeMgVzDRiRRA8iI80BRZ0BMgTBSQaxojA5yiQxKiJ9avGEYQ8cm7J3TcHMsKJtFUxIxWUjBh/BWKWTwXjL4PGJb50K1BHUodL0pjVLO1xJ+AvYNhLNcT7oijokQxm+xhtpeFUgSE3QBHCkEVkq1VMoWMkxEUrtksCTNNeVNMItcSTQJDqAWHPkEctv/9ZRLt/a4NpiH2hRlhGbOZypyWzB8tomX/7OPKdOzpGbZTJTYUWTPrp4hi0AAUwUot0RZI1s2I7rfyhS85ablm/m+XcbwPs99/t93PfpsO8BHL//272FcOkNOEDxiDi8d1y73ufGgqJmAkIjTmDqUf8pGcac9V6Hc5c2WVnzzE1Abi2oh+2tm6JViUQFsIkYZVgvU0j8wE0/dHRAcTtmafzHzjhd7jr2nafr7lNyr8fd8b/c+dr3f/bft3a8yHCT33G0P6j1xs34A0d/73wrvfuXbYc9PBZRizQVmhgqMJF2y/LCs0f573/vBJOd3p0RFYo1SqdtcabCmRJDjZU+mazc+T6ijFjsRtlZxMeIkUhsyoUJQZz4xiMOrxlWSgAMeVJfiqmUG9U35D8RowlYRVOmDBhkBMLUFChIAdGRmQzRxgGpJY3XRKIJCQbVSHY6J2CU6CMaA5lT0B775mD/nozb6wOMmUTxQFIG6/bh2g2PvqODxoBG4daycmF+i1paRA3kRrGFcvrxacZbFVYVKxVzc4F9++D8jQHGtpOzEMfmFly/3uXkvjYhriJujKs3eqxsAuJw4hMRCzVT48pjj46Tmy7GBGq1SRhHh04MVAO1SYp+EhP/grMFhWR4X2JsRV2tYbPUQ04UltsZ9s7+sJDIghPDmkXoQwPEEwxEsLaPM3XiS09RUgPUS5H3tujH9s4yQ+CYkuhwUYIqxkSMhEYjoBEcgrvK3Xen7A9+Yd15tW9f8/dyHVFigtSpRTQ5ShVtAlmLUQOSsAF39ASbICN9/iZT1khmNzl6eJxTx+e4tbpOTZooMApWBBMzfDC8dnEV7EHEdIkxTeCIDDUT0k3vOJv3smF61/1vbT2o7bpfsnJPPewHfJ97PfYhL4nf/cWYUZo5f+Mm6xs9xE7u+BJTxDwcoZIGibmy6un1PXamAOofyyd5e/3o10jQZajbGzOcs4gtqcsVsrzF7NxeJt11cu2xzUOeRuiKzKCxJPoBGst0UeUTo1e/0zDcecV57ymcoOrJHUnnGdt0SBsyH0DUMeiBNR2C1ySAERWxO2OqRLStGhETd1zdBg1C7joEzRA6xJAyMiQwNM2KRbWk3clAKmyWFKhSCpqMovclU1OO48fm+M75JZydpI6CNUIISunhwqUlqnCc3LQIocXlyxvcuFGCjKF4XBaZHKt56sn9uGyA1YhqZHJSOHFiD69eWSRvTRJ9xDhHtw9nz93mAz9zAI0W157m3OuX2eoBmQGxGKMEv8GBwzlHjs2A3GhIkLa/Y2kISxJIMEmdmgQUJ6jiQ02vu8TuXRbo7ZgIGH3d27/usP1ititmQ+MZGidMhMxBbqEQj5UaiXXK7ImEGIbhG8Nc9ocVt/7Ylm7rCgwBajv9d/q8BqVm15Tn1Im9/NU3bhK1jTEZkACFEYeVSa5cXmPQr2mN2+3z1WTPKtqAfod1gXuUMn8K1j8Oh72DyD2VogyDflKvidogMEdV0eEMbbpwjC3wHpQcY3Ledtg/RUuqpjSWRrmEHI0RNGCkIrdK7jbJ7RodGbBTrQ2lkSyPWBsxNjmQSh+MVcpIytGiVnQ6jtwZesGlbFkCgm9kVXMWb28S4hhJk800oDIZodmbD4PiQAfNwQ2zQ8XajNrn9AZCv0+adiA08ocpU4qxZmqyAFuBeLRuMlFriRoIscRkm5w+PUfxhZvUGqmjwVoDOIyd4NK1Tda7MDc+TozjnDu3RK9v0aLpa0ufR3Ypxw53CP46zlZJFlPWOXFiluxvFoiSgoWiyKjLgvMXN1jrHmaq3aaqW7x+eQ2RgqiaKECjR3SDx0/MMTsbQfvE4FPFpDkvaFK/6hRjGPqoOoTEihiixxWwf7bFP/+NpzmxZ4OkJX93OTmp+Y0yRGgqcbF5l8T4pSoY28FXgpWAlT575xRnPIZqmJcnngJhlJmmAt0/EjXjB16mCSaHyncBzHCsDYZyo6olmayye+4gGtNYpEjadxoV7yHPJ6jqdVbWtpjoGKyYFKwFTeJIO5z1TzPQ96F22KmkJMOcJ/XyxBBV8BGsyyh90shOF8YQ2ZvEBkKkUR1KP4cA7m3J1Z+eNSq8VKABTCSTxHptAAAgAElEQVTLI9iIRItEwUaHy9tJ9GOID0CIMVKVFc5lWJODKtEHbNaUJUdBJDv+335jZwRico4T4xm5C3Q9qLgkaqPKkAv/xq0FynovrVwaV2wx0TX+JKbAAwfkSUs5JkapKCBUDd2uYX2zYqvrEzgSTQVeSf1FS8nszBhZFkYtHBAwSfXNWkPQLU4/fpCZKeivV0Rf4Js2U1ZMMH/rNjeXS8Y7bWo/xquvnSPGKby3OBMhlJw6Nsm+vRna72FsCjys7XHysb3smoblTSVoIv5R6TC/sMnNpcjEkWmu36q5erPC5Xvp1wExBkugcMpTp+Yosi6mIa0ZzjcPnasVmOy0cDKg8koUwWCIdcCbCiN9Tp0c5/0nIsGvNV/TNp2mNmd+WHhFlMxJEvtRCyTFrUjAWo8vDQaDaIY14Osy9ZgFjBjUR0YsjdIUuH/CksLR5xpVORSiaSAzTatILaKRWNc4K6mlYCx1DBipG2KrJJss1uDriDEWDannjtmWQkrnckdA9VO47nDYPxwlse9/h4qkLEOan1MfNmmvhqhp1rUBPCSa0OHlloj8TYN0VRjNRcpdX/b9WIK0mac0I43jZj53x+N/JMprD+uSN7qp+/XCH/Q8PWgf5473EeF+72s039YQlwQ8qvwAiRU5HqJiSZFcGKp0DXeJCO1WlohKmvuMc9D0de84ljv66OlviV/Z4EPN3PQEk53IRuVBUjlQfUWIUEXD2uaA9Z4yMdbCSIXEpDSHOrRBqqt4FIPTNKObRG1SRjOoItG1uDS/RBkEMS6N5YigKkDAUbJ7NqMoINaNU4mkDEgUYyxon7lp5dRjBfN/t4k1Y4iAD0rQjPUtw/lLaxw+tI/F9cj8QoXXucSNQMDEilNHx2m5AZUMx46gldXs35NzYG/O8lqFkSTKEYNja1BwYyFy7MguLlzbYnkDAjlRPWJyjFZMtOD4o5NouEXUGmtdQuDLMJCPWFOye5fB6Aa5m6AaVLTygtxarIn0+xUba6tQd3FmIyG9myxbowJuu3dsGnbF4JPin+Zpf5oBQSqiF6J3GCmSD1aXerGE5jUSXiCMtqpus1bJ9n5JLG3aAEGHtun+Xv2t2pt7X1939X5VR0nS8BpPT3vjm6tJNtfosNpjk9uOHmttqmxqAuHZzhTrG318ALWS9L5dxIhFRQmhRAiMdVpo7GNFkm02ctfp0Ds4FX7Y68HP+VuzfQ/6uLtqNPIDvg035Z23N7PusMfDzS5mZFqHvY7UPxmCqbYd985+1PA1djrpv49gc3gxDXtYd0rnDc/XT+eS+3zf93rkg+6VB39+c/8/sMvTLHICnG2XOg0iTRagIRlt9UMIUnNTjCaDjdZI9ClDH47P3AFQG4WI6aY0TjI5QdHA3EzOgT0Owibel9SVxyKIWFwxyY0Fz4WrfaKbZaPXJ0pF0iImBQxqmhJrnY5Bk6OKSNPba9Gr2rz4yhVqSUGGiCGGSAwey4C2g4N722joodqUHJtK1PC4TazIzRbvfGY/1vRwLn06MULloQ4tzp5fptI5zl5cZ71vUNNGjMMSmGjBY4920HoTNCYQHQYTK2YnIscencLQwxmT7LBk9H3BpesDBn435y5tsjUwBLU4KxijaOhy9FDGnllBmnK4xp2Su6lcYKXPwf0ZuQErFTGGBjgFgqXfg7NnrxNDB1VDCDXB12iom+9bMbHRRI9gYjrDRiKJmiTlkLlL1YssS+C/GH0a9aImjVqRSvRiGTbARbfREfffsTLa0n8/hehbs8f3fLnhPtYdW1u2n3e/44kSUOMbrv7GGjfO1JmUWFmTI3aS9f4YF64sIiaNWopYVKGuU+DsTGCsDePjRQITmmRwNd4JtEund2j9fxTrrdivB33sg7/mw91UGTlfGDlhGfYyGIEQtgtj3ON7HDrtNwKD3l4/2Ws0ojPMsjVDNU8Zk2bQGPth3xG26UJG/zcsZyJDkNb9LqZmf+0IGEUEZ2DXlHD6xBSZ3cKaulHcAmMNnpxbK/C1F5fpVY+Qd3anINJUpD6rAc1J40UxBRIMHbajrg2tzmFePbfJt1/u4U0z1tQEm3luyWyP/Xvg2OEJqsE6IAnZTCNZ21QQLBHHFk8/sY+pSYhxgA9lKpeHiErBK2dWWFob4+vfnmerckTjsGKQ2OXxY+McPlgQ/eAOpi/1JS3X5/TJWTK7RZK1ALGOnjecOb/G6sYkZ86v0q8dEbAqTRhU8fy7jzLZrnCmxjmbuKSHfdKmFGvNgCOHJ3hkF5hYkucFWNcgmSFEx3dfvsHiehvj2oDBWsFZhVhh1GPVYzU2N7CqqX2BJ+HzFSeOugRi2j/OKcY0iGmGmIMhCn24T7ShO/1Jsz8yKvmnsauaqH0CPYKUROOJJlBJh3Pz8OKr1wnq8LWnleU4k6HBUGQZJvZ57Mg4rQKMCWisIQ4ncdI53fGOP7ZP/ONeD7fDvrN70dy2o6vtry6VZERNEwfL6OnJ6G4b3rfXT9GSukmZKyA0zsk2TrtoaEkzolG8rdLNeILENNrSzOpHE4hNWfrOIBLu3JfN3mw0hKMGrImM5RXvfGKOsRZYeg36PJVj+z5gWrv50t8u8cUvbmDMY9RhfLs8m9wRqAN1DaFJ+kvEkblHGPQO8KUvLbC4ArUWqRwbUpZitEL8Js8/N84jcy5l2AjJwKbj10YkRVRRv8WePRkHDmb4uIWqx0gq8RvJuXYdzl8IvHJ2g1pygtYYU0Hs877njzDW6RPqCjG2sS5p9CrWSxw51GZiAmCQQKHGUHnDtet9rl+Dm7cq1LTwIRBDINQVM1Pw9Ok5crOJpSZz2+2NBDBNXT1hwPRU4PSxKVwsUykfRVwkhkR5euma8vkv36QsxxEZow7SgOW6GLOFMV2MdDHSx9BHNAV8IgNEukDNoB/IzDS5nUPIE5d7PtwSdznr5ruSIYHqT5j5SURSQ6Y1SdeGE6I1dGulH9vUMsut1TE+/Te3eP1qADuebDWCxqayQ41oxTuf2QMMCL6PxhorghU74lEfopnkhzYn+vCvh9xh0xjIBsBxD7KWbcRgkx2N5hzv7Fb/9Bavf4qX2sa/JvzBSIVoOFdKM/M6YtLLEM2TEYoFxFZzK0ALhiQWKQKM976RSucqIfVhJRCqdY4dmeb4sRZGSjSm0SNMJJpItG1WVsf5xCcucPbVCqN7UkAhMio1jj4Pw/aPoOQM+i0+86lX+OY3F4myiyhttNEotkaoyi12z1k+/IF3kNseeZZeL8YGAT06bppMNZDZklOnDyGmxGUQoyd3NpGu+ILvvbTA7cWAV5torLVkZhKefechjHTJrCSHGz0iEWugLtfYu7fg4IFEbSoAIvggrK1FXn1lgdXVgDFFU5lwBB84fGSGAwfaoJugNUhs5tCHAhtD4pMBebHGu991mFbL42OPMiS+8TQiPc5mb5xPfOYi3/xul2iOonY/VZykpk0tGV4sXly6mYxaJpJmurSpTU7NOGL3IeYoZ86WbHYn6fsxSp/2xKhFd1cVZpQ0/IQlDKImyR2ra6pXBSF2CHEW5BBRT3BtfobPfWGRz37hGmWYRGQCISNUPqkequL9Fo8eEp55ag+GBN6zRjG2aUfqjiQM3VHN+Olb7uEGTjmUOiFjMTsAQKm8NKTQG45zbWc5prmAhoYZkkMf8gXv7GHvQB3uAIQMezipmrrdJ7+ji/ojPnfDgtsdfdw39QI7+iMj5MY/1EP+0a03fT71Xr8MP09jPrWhWtQco5r4swGRQBQ3GgEyahn1W0YF8R2vrcCDGIpR+6UpS2sghi6zkxUvvOdRLl65wFYvEFxB0BqxShUiRTHNd85c5d//x5f4zV89zNNPHGa8tQXaReMgjYmpoaIg2jEqnaFf7+Ib31jkTz5xnvnFAooJ8ixjMBjQto4iU8Rv8r5ndvPY4TEIN8msIUSzjbZVMNEkCmAU5xQXt3jq6CTTxUUGHsqqKfWrYs0UZ15bogzjBGwal/Zd9u+FXbMBMTWIJQSfeNNNAtA5C5O55+TxCV58aQtrIGoidKl8zqvnlhkMbIJ7R8WYMahWefzILJPtTTRGAhkatr9nEZqStSKidDLPU6cm2L9PWb6wSWbG8SGSmwzRjMzuYn5pmf/z351l4Cd5x9MHmZmcRGUejV2MxIaoA6LGBjtQAJNEyRjUU8zfMHzvO/O8/N3L/Mt/eYIjh2cQVtOIkg41sbethTbZpzb2KNHSNuQjOkw4BKMG0zzfm7rZaj+461Kadk06MtsEPTUmpln3Icf+cBRS1KfKDuk4nSTegLLuUPMoIYylsa0UsQEpMIpkVL7D8nrG2fM9vvjFs3zlW6t0mcRmU1R1QNRhXGKQM26TnHXe8+wMB/cphe1jaVTyEIKkdoTELB2rGsAnASZNkxSGJKQtzWDkcNxMH27n9n0t97AY63utqBYjdUJfNuQR22KDsWENCjsoTJNDFoUoSjANrWNzUUjj4IcbN/XAG9LKHc4sGfT0c9SYGKJoNKobQIZq2lQ/yqUxvTcyDD/eTJR5H1CD3vX7j229mfffDl1GzlmGsOFthx0lNMGcIrFo0OEJaGWyGiVLCNbR98+2sb3rcLYxEvc4zjd8DSkstM3frI0ULPOrHzzJmTPLfOZLiwR3gKztGAx65HnB1qCkaO3may9vcG3hDO96xwS/9AuHOX5kltx2QQIxGiprWe8Kr5zr8tKr1/nM529wa2EcshliFCQOwFrEGdaXL/LEEfitjzyKjfNY6UOMCWwmjtjMfFsljd6YxA9owxZP7N/N8T3wypUBxozhgyfDEKXNhaurkE1DiJhQYX2Xk8cmsdlKQttriXO2mQOvCZLRylvU9SbvemYP/+W/dtPYpQ8U1lEH4dXXl0HaaEi6ykEdLdvlHScP4vxNglhibI16yaPQVeomRhJiv+LgIzUffOEAV29eo+8jlc2JxNQTj0Ipk1xZDPzv/+5bvO89+3j/z+zmmScOk5v1JNmpoXE/EZe1QCfo9Sc4f3mNL33jCq+cqbl1c4upcfBSEOpNXE6DghgO3TSVFm1m4GkQ401FIzlsi8GOZrWNGqwaggFvAk4Nb5DmfIvLoM08eAbUCBUS24k6dQj1MWXatJJofbURPXJOKCv4zF9f5Hsve2xcS7KzkgSTonpiEFbXSuZv9bm1pNxaMnQHOZE9KAUak/qh90qtEUKN1Au8993wqx89wFi2iPNdhEgQQzBCtBEbA6IFJuZIzEYtp1QVS/Pz23P1mtpemNGo7wOzaP8jWA/1HDamQvA0zPJsg3qGIy/alDGl+XOBxLyJtHwi9pfhbGVT9nx7/dSsIBZvwIultgB1w0RZYl0Pn0VCtkG0A+wPWNpcNI0JedFmfGiTsdZtfuOXD3P1+rd59fIS0e/DSIcQFawlGMtmaHP+RuDG8hrfeaXi0N4ZDuzbxczUDIO6YmV9jVuLa1y6tsK1Gx7MDLYzg1dDlNRzLcjR/hKHHoHf+e2nOXwExC6j9EfI7TsCHY2jbCShcyvmdrU5cXw33zm/BJ09lMEmnW1VYlCCChiLkxJj4PSTe8mLPhKGWJEUPGnDzx////bO/Mmy5Lrrn5N5l/dq632f6ZnRzPR096zWKDSWPPZ4JCGQlwhbGIGBMEQYExAYMAEEBAE/8TcQYX4yP+AfIHCwOGzCELYxciAJyzaSLDkszYxm7+l9q3rLvZl5+CHzvqrufiW9nqrqrurKT0R1VVe9927e+/Ldk3mW73GOwirHj+/n6JEPePu9gNceGiRmWg89KgVePVVtCe1ljh+H4yfmMWYFRG/JoFZYo3YWf+99Q6FXefWTj/Daa8v8xm+/iZk/wtgXWFshxlFYx1CO8NrFS5z7nff48jfe48lHFzn71Anm50rm5+ewRezSt3yl5ty7A15/823evXSJD645xu0CVgzVEjRFQVsIpRHEmTUJiqwJz9lJ445ABTKKJajiY7azeDANqkOQhigB0xJ7qW82necp/tztoLtq6i6/Q0I0joEiLbpgTJ9gjvKbX7xAO7pKZaPksEhM+lPVWGpnChpfM3YWUy+gdQ9tWwrXErSH0selMrxKL/LMWeEvf/4sT5y0+OEHqJ2fzB1SX3NVWTXClGiYxxe92H9cDV5iq1dHgTMWbwLOtjEUImvd6TufbW2wpcvKTTFGNW5SetAldsRFqE/7Tbvq3l7rHmc1LSizexAVTGDygY3+F5vKdvpYX2N9hTHRc7OZmNSu0ycPjsiYnjnPx545wc/9zOP82199jW+/8y6LS8dpfQBjaXxLYRcwxSJD1/DG+5633xuh7g28bxFb4EPAlBViD1D0KsaNgBqCbylKgeAo2kv0ywFf+Okn+dQrB6mL1zC6QmzRaaOrWgETM9+jh8rGBW5QrI7o90c8c/YI/+13LzLWNtYci0dCbL+ILzEKlY44uheeeuQIZvwepkjZ0CrRI5Za43rXYsqW/UuGk8cL3vjuNVQq1NQY20OdwZoe3jfUpia4czzzxBJHDlSISTHriaLWajb2mncbK5a2vcLDhxb5/I89yrvvXuU7586DOUxRLjEeW7xanKso62MEGfPdd6/xxlvL/Pbv/SnzcxVz/RofWgbDEYYCdI4gfXxxiEYsWpQURUNZtOAtNhRJ5EYQdclYR/ds7AjXosbhTbzOscSwmGwiVMvYZIMqphNQYH25rj7ExpCJSz7eO+P3kGQ/Q9oIxSYmCrTR9Qx4F13eztcEDuJCMVk0iQgaomyrawLOR5U9dQW4gFGLSImRHkGVghXmi8uc+UjL3/5rH+PFZ2v88HXqsiSEAlnjNY3veYOagNoBamJeQlS3M8klLql8s0LS+1FgIcQ5oQ/QnX97G2wlTi6NXXNI3WrWGmVJ5QR0DmIRkJYgscFHR+hWtJldQxe/thpDKAHiXNL4oba+wIYi3cBmkxydDZ3cdLpdjGAwukLB+7z68klWGst/+K+v89Z772DDImrKqJhp+ji1qJa0oaWUqPgVqFEpoUg1rN5ExS+JPa1L68E3CMscOzjg8z9xkp/47Al68jalrqRPQlrQTrobhdUbY8pyDs5RW4tvLnHqieM8dNTy+gc3MLIYY55GQCusCuIdldzkmVMLnDhoKRnEHaZ24Ymk7R/iJ9ZKS21XOPPkPF/+6kUaWsY+PsYHQaWI1wlHvzfmpRcfo1+PktFIyXxJkU5uy5eNuz1Lvwo07gOePX2Cv/vzz/Nv/t3X+NYbF6JEKnvxbUFdKSG0tK1SVHsgLKABBg0MxnHXaAw48WnXWRO8xk5sIcqjatNgXItVRZ2fxL67xURX839LTYGY5ALvFh5hTQgmJEOkE2fi5prslLUunfBPTNgLIsm1vfrIOLIUckh/6JU1bdPSjhWkpAkGNO6sxXQaBHHhV5YF1oD6uJGSpI9PuIENVzm0d8iTJwN/4wvP8cJpi3HnCL5BizqGB7ouZBOxrBAXP7FtSBx9mr9xARJAyxgmJWBw0UuR8gI22Xl2X9nWBjuSVn2y2gYvRZeT2zuuvmPbRAumjQITomiIkgfx3hHLdKCLfq2Ng97J6odl/Vix3PHg215zalLUNuJ7X4Kdh972PTWFsOqxKbQikjpkq08+miLFwD78Ye98qkxigDG+WgAlxga8W0bDW/zYp09x8sQBfvlXvsS337iMCxWmXEJFGTQNprCIRDMlxqDGoLYX3dchEMVeJHV8GoG/iTUjDh2En/+rj/LZVx+D8VvUcgOTEraCEF2wGm65QXcL4FhqA73acGN8laOHTvDQ0YLvvn+dYGpEGrpUTMFjdERZDHnisWMsLbQUqjiXEjuTLjdiYk9qI1irVLrC4yerKJyiwygkbCrEmmSMHaoNi4tjTp/ejzUXgChc06kZxlBX9K5NNmIiqFeGwxXEjhALz509zi/+/Ef55V/5I1576zxOhVaW0CaVq1mDtTVtAFuW0fWaSo28Kt6EmOfiA+JbrPFUMmS+uM7eeVjse6rC4X2LkTLuAlOXNFLmtGjyaBD7RptJC+A2/exRsbGM0PjkmUiewZlj2LPcWzojHZLHqVOJjPk+MawQW8NKmruxyiImOw6Xx1R1RdO2lHURvVU+YLrbcrc00YCqI3gXxWgI4B1ihvSLhkeOwE9+9iQ/9bnT9O37uPHrhNDS7/dxAYJpEW3TPCvie5103mNyKNgQYuiaaNwNqU2yRBndqAoYu9l1u/E7r8XOZFsbbFUfV23aJX0RVYqCp6oMog0lBkKRamZjNqZI7EcbGrDWUi3ED3ToVoSS6v+63tBT5nvsIhMoi1jT2sW/Y8wmGf703BhLXyuMumZdrd1vtxtppNol7LGjpVZ1ItPU3Tjigq20FtEWVLECBB9jlM0AYwtsXRPUbKy+ceqFK7AEjLg0rJrWxRtkUYwI4Ts898Re/tU/foX/+cX3+PJX3uD1ty9xbbhCYeYR04+7FikwpodQ4LHAGBgitBTi0WaFuhxy7Di89NJJfuSHn+T0yctI+xqVWcaGFtEaL0U0hoQkAmPi/BUzcV+LGorC0LaxMUotN3jx2YN86avv4bWFJJOKtqAQwoC9B+CpM8doGRAFoFmNi6MEhbIswTVoGNMrax493mdxHpavjClsSXADQhui2Ik2jAZXePz5/Rw42MMWAWnDZIJKaigxWXZPjIVHrFIWZVqYr1BwjuefOsy//KWX+B+/9w7/+ysXefPdK3hZiAYWS9sqmIqozR61wicLO2NjK1E/wJpl9lSOE4csLz5znB99+SD7Dwxo5RpiGxQT70EUMc6qFVUxB64ljDxzpsGrEtohhakQP0A0NiUjRPd0TAJMFSkz3zBmb1/bLbbWPBVjDW3rsKZCTcDodUxoMD7W/avGBW1pbZQPtdD4MUEEIWBCSIm78X23SWtdzBijDb0SFhc9Tz3V56UXnuBjZ5c4tm9AHb4GLGPKmHAX/CAtJEI0tp06FhYxfSQYCulThIBtx3hp4pwlGWkaMJ4gYKqaoDV4EyV+b7v7ytqWbDuMbW2wJzErga4eu7Q1o/GYo4cWqM1lekXF8kgQW4GJzc4lCOqF2laUhWeuirusQnLS2W6iHX2Xxx/2LM1fpRGDmBLvJbpmCzh5dEQ7vEBZtZuvSKA9oCV2cGoJErOFg4lxxJKbWIZ85JDys5/bxysvvMBX/vg8/+9PL/DGu5e4PoSVMYxHEEIPpSTgsLahLjwLPVio4dETPZ56/BAvfew4p56cY37uIm58jSLVOnfxUhGHSBPDR0ryWkncwWiK4UvAqcGaAudX6PdXeO6peX7oB+DyzZUUr4w15JqkO5941HJ4n0PdIFZU0NW8k0rHwAUfm3a0Y4wMOLCv5qVn4dxFZdQO0JDKi7Rh1KwwvwAfP7vEkozQ0XCSK9r1ub/tQk+UtkQagqSOaCiWAeLe54lHDnLsZ0/y8Y8f5Etf/YD/8wcXuHYNlpchaA/oMRq2QMCagLGKNWBpWJiHfcfh5ImS588e47nTh3n0oR57Fobgh7i2TWG41ZyaKInc0ow/oDBXef4s3BhdxnkIAaqyQJ1jroKeuYrlQKpl7qf3pWv4srkhvLi4SUlYSpRWVYd6pTBKcDd55KGap081eB0wkZSENbLMaWeOBTOKoZ8uWxtBQ0tpA4cPzHHyoaM89shhjh/v8fAJy3w1xrqLUTyoZxiO69j9DBcbgWjA6zwSVvOOVDzGRH2A8eAch/df58UXYOCvgBYUIeXfS0Fh4aFD4IfLVGWNoU5aCM2mXsf7yfY22GpZzRCPzQSsBWsbzjx1lP173+L8hfOU9hAOE28KxLhLaQ3BreCbC5w+tcCBPSB+tBOkYjKbxLNnCk78g6cw5iBOW4xdIHhL0DHCNXpmxEJ9FfXDuNjbTDpXHjbtaFMnJwXoMoodNlxgb3WdhYcWefTECX7qx07x9rlrfHBpwJXrI65e9QwHsaORsZ5e37C0WHJwf5/9SxWPHN/HviVHaa/i2tfR4TKlLCQvUErKTNnIMtm5xMSnTmrVpLIYJSQnvmCLAucu8/STj/DP/+HHsNUcEurJ62g6Rw3X2Lc0wI3P4xkjZimef6pZV4l7pujpgOCjTOk/+6WPszKo8aHAGkflS6DE41AzxjJi3pxn1A5ibTbpuk3iw6uBre57EEnXNnVpVk9ZKoPlt7FVn+ee2sdTH3mMv/hTpzn3/g3OvXeTy5carl1r8KFCjGBLoaxjHPb4oZpD+ysOHOizdwkW+g6r11H3Dm7QYAVK24tx4Fs2cQHDmMIs88zph/gX//SjeHpxHhjBmAr1itExC70VCnMeo2MEO/ES3W3R5vedjmt+NtqFFqMnxGLQ1lPYIT/y8uN88uX9aWcdH6MaQxpx37R6jWMCWCyvklACFiPERQ9jYEBhHCJX8H6ZKoAxDu8dKyuKsWV6G2MIQAEJZlJ+KxJQEwV4jECvNHz6laN89JMLmHoOGyyFNxg1OCkxtsWEC8yVl7C6QlEaxs1m5qbcf7a5wa6Sb8h34Wt821CYMUePlrz0g0f47795PmrX0o8xD2IHJhMc3l3m4ZOBT/3o4yzNDyl9Q7bYuwd1l9i/0EP9gMZdpyqWCIUl0GDLEVYtEhymLPCbnpUbYpw1CUvERJlUnZ0EMgKxS5GRBmMbpL3GfLXAkw9bznxkjtbVhFDGeS0G1dRrWAKFVcpKacZvEtwKbXodaxTVhk7aNEhXZhVSPFBSmVFB9ACk5E483sSo4HDsqKqAsEIlF9k/rzg/xOhCdKtLCwK2mCM23miwNdTlAqPB6g44Hl9ivDoIVoQQWkSH4L5Dv6pjJi8jimAwpiQUivQMzdCDeurK4LRzEUu6wXcGW9fET6PymwQbY8OSMtUx1FWBmBGueY8+1ylrYd8jJc88Ok8h+whq6brzhdgEHRFDoVEyM3AJZQxuBDKmsB5JoiqqRcoMb+g0IESiFyXGty9wZGkPg/F5rBkjtqB1AVvUlEWJa65R2i5Zr0KIoZOBUmUAABe7SURBVLitCKKtdQTHy+gxxtKv+4R2zKBdplfXGHeliyrF52mnLpfK1tJ70SkGigpiOjnWOPOKVEYZxWgAE9sbewRjLEUheB+9GgAei5oCCWE1VS/p99vCYFoIbkDBmMX+FYJEj2mpZTLYFrEGsUPc+DL9+WJi7K19cDyr29xgF3RrQ4npN0CgqjyVv8GP/4Vn+LNvnufN9y7jdRGoAYNVh9EV9h1o+Myrj/HyJ07gbv4Rc7XDheqWFbp0cc81n39h7Yq0E1IJtyxTu9KIu2Z6yLzz/yC3fKTktgfccn9azaXQOx8pq4++JcYla34SlbT7i+cyOaLe9oN0jRi6V9juMaD4gbfUhFYRHbPYMxTiGI4HqHEIY9Aa7wuMicZrUxE/cSFGN2d3o2MSgw2iUFqGboyhRW2LtYoRkHAdawJioghHvFlG7eygEBTUSdxVlAbnAj6UWFNgdQwT6dV4LSTp7cdjR6Wz1T3qaqay10A938cwpm2uU1UDCI7SekQqSDtgTMAUgnOC821UBQvdK3bZvdGMGhGc76RQoTAhtmA0sWt3ZcZUxlBVyo3xTRBL1eszbnzqerUmKVDjTJ14aydTMUrMGgWTMoljty6LD5bSKAWO2rQM3JDCVhgZgl6KMU3jovhHKscDg7YldTWHlMJw7KLr3VhInahckiQtjCA+NYeBtMNPHdbciMrWOH+TUloINf2yIISG0I7pWYMJKY9Au8/hVplrpesbNpmKITBux1gC/doQWKZvRtEbgiVo7IwopjPQqZe7KGiZxhxd+HFXnO4TQQkaQGxMmgwhLSLTO6OOghFKwEuJlwpPQd2FbCbzFoIT8AYrUfu9rB2N91iBQqPokTUtTgO9XsnIFzROkNLElrgPkPb4FhtsmZqPM2uNoZHhZGoZQkwUswXD0ZCF3gpnjxv+9T85xX/8zbf4+nc8ly5eph0ZluYsx44Kf+7TZ/ihTxyAldcpTMB5wainCRY1FXjB+oDY6E6zAQqNX0NRyqqmHY8pjceYUWzOHtKU9wsQzETNOLr+WDV0kn4p3VeXjXlrhm63YhWJrknRGIf3aXcQBS2aiSazBoti8fjoivOBYhKTiqPRGLTEYCGkchET40E2pLKNIMyX83h3gbHfh1FDD7ASlaeKSlF1eIVAEUVslKTr6yejv/90C5mYORyJu1AFTJrhLoBjjBQgWDT0AbCFEnSTjfWacZFGR7dDnNQTrw616gZpSRrfq3aoOztNu5euxacSf7RGwGtMvjQQ24CaNYvP294j6Yp23CQmHIwHCgjxhqBtgwes7GHcBhATd1AmLgQkiVh4F+PkdnL3b4mtb6Poh2ig7CqYktRkfJyjFAupRAutaIS487TzaKrIlMnO6PZYbvrMTP7bLTV9zKFjbbesAWWyKUYqWg1YU6LK6vs+MRAphJHOR2yg9cvxOnfH8jGT3Gty4mobBUOIndfiWJvk06iggMatUFQmegBE8CFmh3cpNV7LNevzNCa5451bh2n32OmJaJ2uRZiU8sUMdrUaA45BKWnxrFkgSVj9UTuXeLzmIl1ZWkcq9YrDj72uAZ+uj5g4c0AJKiD9yeuWCCVx7sbS/bjILLp1hu3uOgZtlSLJCAfjJ7PDCrTNmKLoxwVtE13pOzqb9ja29w77lpVmvNkpnrKyBL+MqvLE4wf5e79wlMs34J13LuIdHDu6n0MHCuZ6y4h/izC+zkJdYMTQBqUqYTBeQWSZqpxnHDQpEdl4BHGoCTifOsYYKMQkG6woniB+Vfpy8mlbs/vUVUfdHTfvdXfRTB7bRZmmE39vifWiRpRCBO8VY2Pv3qAewhiljYIIUhFjZDVolUQmYqZli419lCtw4hBT472iHqoixjpjh5y157ndmD4mXffvctvft5q7v2a3jl2nz4cppT93Pu57n+sa382aR8ktP8X1xu3zePor3nJ8Xef364531QU1+3uz+ny97f9rH3P7XNDb/j7zsaYObFprj+nvw1pW95Hf75EbY61nbf3rsNZDMturrfe37/fe3XEMvf1HueX3t7xeUra8/c667ms/QGxrg722E1e3bFP1MSYmDW3TMhw6jBOOzJUcPVNEF0t4B9Uh2rRYdVRFgTphOG4p53q0zYiqaHn4xCJ/+LVrFLKISy61WB4WV+MhCVKMlq9z+NChKDogLYojGDfFWMOdN75VJk7nbued/t+VpkyawM94fXzTRM1mDbRYlB4+VPigBB1TmEBZRQlXr34y0S2xFte5Eaa0SLFIEyqWR6DGYkxBaD2lFSTVjk7Uq+5qhJlMJpPZLLa3wQbuMIiq+NBgxNHv1SAjKgy4EW3ToiZQVYIYcM6BCj4YhJK6N0fbOoxYeqXy9Kmj/PpvXKNkgFITtJiUPqizUdxABiwuwuknD2BlBZEm7rBTRq12Bjjplk9f9yVDnAxeV1YxEZeASTnI3ZjC0hiMCK2WmHIfo2aJi5cdRdVj756Kuh4xHl/B+5tYG2NIIi0mSShSKJTzwAHefOcmg1HsthMlCjxHDiwh2iSjratnMlHKyoZ717LOLjOTyWwd29tgdzvYiVBCNFCiAdVA8C3eN5RSIcZibSyocIHUk7aHSiwFG/oRxjdU0qdfVayMrvHC0w/xmR++yG///mVEDU6X8MTyhFItxrSU5iqvvHyY55/bgzVvIoxjQwOFGDTsvrrdM2n3PN0p1DVjZ7I7v+OsZ74+RhyqFdg9fHB1jl//rdf40ldvogJHDlU8d/Ygz509wbHDB5mvbwIjCm4gMgKBpilQt5drgyX+1+99nXGzgKOiDo652nPyoSXmelHur+szHu30qpBMZjcgU1zvOuV3mUxmK9ligz27Cs96z1+NBNtJkowxUWVHNKkRSYs3w5hoMqkxjYZXJBCkRUoXGzK4FnUtpSj7Fhb4+3/nVZaXf40v/9FlKnuNwCKqlkKuozheeXmev/IzT3Fo7wUKN8BoLIsRVQoDUdEpJfKkXfIkmWYtISqwGQPGCuo9rW9T8gZ47wkpVcWKmbT37P5V7ZTe0jVRUHU0XlA7z7deH/Hvf+0mQz9HYA9ff23AF//v+xzc8z5nnpjjxReO8czTj3LiKBhuEpxH7R6u3FjkV//T1/jdr1yg1YepbY1tL3HooOOZs3upqyF4RbpevyagqT95vmHfJTpb9q9MXcxNT+Cc/vyNvC+zHmf28Ww3NnZ9Nsa0hNvNH8+9miuzsk4S3EaOPXNS3oPFtt5hx2SXtUabZCjiX0nt6wAkpF2r2pRclfrJShczNnT9slHFMqKUi2DhH/3iD/GlP3ybr3/zHO+fu4aRkhNHLM8+f4IfeOEYRw8OkeYCRdIn9yox+1ijGpFqLGuRrpl7ikmvjWuLEcpCYi2tRp3bYo1Yh64jkfq9aJyj6C0wQjh3/gpNC06XaHUfsIT3Pdxlx6UrA37/q6+z/+B3efyxBR55aA9z/TmuXlvhT75zhT/5s6sYe5TGKfNmGcM1Pv7RBV584SCDlW+w2EvjSwsKFWGze/VmtjuzvN8PTvlMJrMd2d4GW+M/UeovJu/fmtGYaokpQYtbMrJjEUBU8umMp2iBJve6iMfKTZCWhX7F5z5zgFdePsxoaGlbw749yvyCx7tLNIPLLPZapOlk+QAC4/Egjcmh2qlaRZlHvXWwaRwtwTeIUfDdzrwzhqyfgLoOdW+BsfOYsuHpU0f4yEOX+e675yms4omdj4Lv0coiAXjz/IB3Lq5QfvUDjMC4sTjZg60eZdy2FGYFaa7w9JPwk597AqPvs2dPiR8nIQfRlCWfxWcy01g/FJTJZDbO9jbYQGf5Vo1bZ5SVKFWYjDFdQldXq9oZ+fi4+JcCpUqiJ2PENBha5uoK1QHzpbKnrtAQVaXa5THGBuZKRb0jaBVVc4JHTUDEUNVgbGwa0HWIWVMPQ1cjagzUlUFxWAPOxRK1tTe4tXvyWRi3grGW4K5w5tHD/NLfOs1v/c7rfOft87z9QWwViNaMmjm8nUfKPTR+jtY1FEbAlrF1oHOUDKnkCmdPwS/8zec4eXyE6AXGY4+VCsURxUAkqWRlMplM5l6y7e+8q7vm1Ls3NQGJv4suZb3l0Z2bPPYiVmGy+42agyGa7zUlVOLBB0+vMBgdxsQ2U9CqQUyRFHuS+IgNNG6EtX327j3A/HyfohBaXeO+nxjqhAp1r+LQ4f3U9XCiimTt6uX/UPsSE/WJazsgtG/wyRdO8tyZF3j3guebb1zlm99e5uvfuMH7F68zDmNanQNTY1VBWwIN6JiKhoXyJmefXOILf+lZnjkTqDhHYca0TlIXNJ966VrQPlHgIe+mMplM5l6xvQ22rrpepZN2nJQTRYMY9HYVpOSWS27mTie503ZefZFowAUBk/oLaMBrcvuGBpJ04kTdSYTgoWf70AQOzJ3j1Y/v4+233ocwhysW0crQOE9whsIXVGbIXH2D0yc9Hzk2QhuhUYcxFvGGUnuxX64tab1gbIyJi5aTxYpQUKghjKOQiZEeViuMxB67GkrEBNr2CqUMeORIzUOH53n1xf0Mf9ryxvuBr3zjMn/wh9/ljTdjx6CyjApEi3Nw6nHh06+c5Ydfeoi95VsU4SZGHMFbiomGdZLYRDDZWH84ZLoHZbbETJ1+yWdN3NlI9ufduH2mZxfN+LhpB5ty3utWWMw4nlmZ+TgbHOOmv+Y6c2VWZk4G24LznnX+7FK2tcG+JVY6eR9XjfX0OdnFsNc6mO+sjZ722nEtEJsyrP45PlfXBJgNBoJi5Bqv/NDDvP7WDX7/S8vcaK7htYdIQWWEkgY3fJcTJy1//lMnOXagJWiLKQR1inN+tTZbY9cZQ0jtAe3q8VNWejeSoD4l5CWZSu1KyzwiA6yOsbJCVVoWSsO+pxY58/gRfvpTh7lw2XPh4pDlwZj5+YoTJ+Y4esgw1x9R2W9ThatrLoZltfq6a2RBTNzLH6IPwcbK+Kba6w08d1buyl7P+Py7OZepNmED45mVjRxnwy2X17OFH3I8d8OGznsDx532epvxmg8S29pg3z9uy/66ZcasuujB8MhDli98/iz98tt86avXeOsczM3VQGCxHzh1uuTHf/wUn3n5MKZ9ndbdxNRK60FKIZjoITAKNkgUQpEyLhAkxriNmhQOAIzH6xDskCi8f3sCWJctr5O7RslFFs179BcLju2bozg7j0pN24wozAqGYewYZaDd3Ba8mUwmk9kkssFel9WSrFU3Tfe9E71X3PKf8txjx3n4507zyscavvP6NW4uO+rKcOxYzdmn+5w44WD0dcQM6VVlah4gqDHcqpYeRUqsgkqDiiP2aLKgLUUJVTVCzDKYFQjzpI4Pa8a9uphgIqbvoGwpJYBpcf4qPoTY5SmA+oC1ltKkHsmZTCaT2XZkg70unev9dmO49mfPQg3N8B0OzC3zg88v8KOfOM5g1BK73Awx5ipGllFZwUpAqfEtFFLTuNjjJ4Z9AkEKAobKa+z+pTaKtIQaqy21gV4xh9EFgm+ZLCqmKatJSH8PiAghFLg2LQDEIFpgjKWqKoIJjMZjxoMRc71qi65nJpPJZDbCDAb7bqIh2yjakGq472TWMcpt37ug1JpMcMCrIFaQYoBhBR+uYGxUOjNdZ68QKExBCC0heaqtCViGHNhrWFyA5esrlPVe1CvoIDaNNwUaBNGGsljhwD5YWigwUoDOoZKSvyadtLhlbN17pwFEhdKUGIm14lE1LRCaFgXqoqBXFWjoWmdm7hWzK4t9+MjkvUo5mF1ha/Nfc7OfuxXHmXk86yQozspOPe+cGvO9mWmHPUui5Xa70HcIl3C3CYxrjaDc9vvuu+K1QI0hBA824NVhbJcgJpA6Zns1GAwiRSyP0iGFGB5/9AAvvjDPb33xBqPRHlTnMLVh3DqsKkKLsSOMvcwnfnAf+/cHRIaYArzT28aXFhTdycvavxukE6HRGBvv/i9I2tHD7hT8u5/czfXe0C18A8/diuNs9uO26vmbfYx7cd479b2+28fuPrJk1brcnlm+nvFOMV8tkFAhocb4HibUmFBhgk3PMCglQUDFITLGyA0O7x/z2U89xpOPGoz7gD1zwsB5KCsoBK83KIqLnDkLr756kqq8iNdLtOESyO3lVd0CIbnzU1mcYlCxeLF4AS+BIB5vHN4EvNE0rs2/iplMJpPZHOTGl/d9n/3zbA08pjcs2Gjzj80lDvFuV3trysi6xhudoRZF8Iga0DIqqHXqal0NuQRU2ljDTUEQwaij0BZRJdh5bnCSr3yt4T//l2/xzW8GRjJP6wPqhxxYgudO9/nrP/Msz5yymPAuVbFM0DEabMoU78bYrb/0li8DmDR27cYnYXKOkmrbFYPPaQ2ZTCazLckGeypr1cpWv6YZ7PhzJyoSEBnH36sFrUGjShjiCQJeCkwwlEGx6mnxrEgPrU7wwQeWt98Y8sffepvRqGXvnnnOPHmEF54+wL656xh3FfUrUVzFtIjp+mmbtEDodtdrximx4YmoRsUyUtet9DhBEU3dxoCQ22ZmMpnMtmQmg30XL3fHc++XwV4/Xn03Brt7fOdiXptw1smYpMdolD1FmvQ3C1pGwy0B8KgoQSwmWIwS230aj7fC2JdYswS+j5qSpnHUVYk1DW58hdKMqExcC7jgMSUEve34t5zfmlj7moWFpq+uHEzS4mMiAZv94juMzZYqWe8Du53mxd2McTee91Zcn/vJg/QebowZDPZGuI8G++4yzDbAnec4+7E3dn3uZ1/fzPZg1v7K0x8Hsyyy791naVamjBGmes82//rcT2Z9bzb/+txPHqy5uzFy0lkmk8lkMjuAbLAzmUwmk9kBZIOdyWQymcwOYFvX8Gw8RWKze9bczettQJXqQz8zs9vYrdIVd4xxnUHfK3mWe8WHPp8NXp/7yYM2dzfCtjbY05IkZFqi1haUlM3awncaG06022ZJH5ltzHbTxLwn3MUYHyhNzFnPewuuz/3kgZq7GyO7xDOZTCaT2QFkg53JZDKZzA4gG+xMJpPJZHYA2WBnMplMJrMD2OKkM5k5X2Cams16CjezKfHMfuxZxzMrD5q6Tmb7sjvn6W5VCPzw5333jY+2D7tzjk8n77AzmUwmk9kBZIOdyWQymcwOIBvsTCaTyWR2ANlgZzKZTCazA9jipLPpSRIbSfqIr/fhkhAevBZz22uMmXvP7pwDG0so3bnszvPenXN8OnmHnclkMpnMDiAb7Ewmk8lkdgDZYGcymUwmswPIBjuTyWQymR3ADElnemeO18zqMYLIRntN3vaK6xz29pysu8lT2Ak5DTthjJlMJpPZOmbKEp9qr2dmKyzNnb2vN3bsnWANd8IYM5lMJrNVZJd4JpPJZDI7gGywM5lMJpPZAWSDnclkMpnMDmCmGPaHT3jaaGz5bl93M9noMWaNs3/Y18tktiPT5vmDPne36j633dmt533/mMFgb+ziT5cm3dzX2wo21m/33r1mJrOd2OzP+07hjiqVyT8PNhupzsncPdklnslkMpnMDiAb7Ewmk8lkdgDZYGcymUwmswPY4vaa68U07o362b07zuYeO8eBMrOzvZK87s3c3X7JTvm8t5LtNce3htnsxRYb7OkXdVpv580/1vRe3Jt7jPXY6LEftMmY2Sq2X5LXvTn49kryuncH3l5JXvfnvQaS5PWDcp+c3V5kl3gmk8lkMjuAbLAzmUwmk9kBZIOdyWQymcwOYMuTzu6NKtn048wecf7wx9gadkOSRWYz2K2z4o7z3iUXYpec5i3shnOe9Ry32GBvReLXlKOsl3gza0bGjIO8nyprOXM8M5VdOTFkd9zF72CXnvcDP8dnf1+zSzyTyWQymR1ANtiZTCaTyewAssHOZDKZTGYHkA12JpPJZDI7gHuQJT4bMiWxYCOKaPGp9yqre+uZdi2mXbNM5t4wPaH0wZ+Td5637IZemqp33E13xXlvM/IOO5PJZDKZHUA22JlMJpPJ7ACywc5kMplMZgeQDXYmk8lkMjuALW+vOS0HZSPJZNMTHTZfUW3zk2fujepbZqex/efF3SQXzZocuTUtdj88G/m8T0twjZds+5/3NGa9FlPP+x7dn2flQUuMyzvsTCaTyWR2AKI7YcmXyWQymcwu5/8D9KLfio0vYfkAAAAASUVORK5CYII=;" vertex="1" parent="1">
          <mxGeometry x="819" y="506" width="112" height="44.39" as="geometry" />
        </mxCell>
        <mxCell id="-i5JZtjKqTrFo0PbQZQr-8" value="" style="verticalLabelPosition=bottom;html=1;verticalAlign=top;align=center;strokeColor=none;fillColor=#00BEF2;shape=mxgraph.azure.azure_subscription;" vertex="1" parent="1">
          <mxGeometry x="280" y="70" width="45" height="32" as="geometry" />
        </mxCell>
        <mxCell id="-i5JZtjKqTrFo0PbQZQr-12" value="Virtual Network" style="image;aspect=fixed;html=1;points=[];align=center;fontSize=12;image=img/lib/azure2/networking/Virtual_Networks.svg;" vertex="1" parent="1">
          <mxGeometry x="321" y="108.96" width="32" height="19.1" as="geometry" />
        </mxCell>
        <mxCell id="-i5JZtjKqTrFo0PbQZQr-13" value="" style="rounded=1;whiteSpace=wrap;html=1;" vertex="1" parent="1">
          <mxGeometry x="321" y="147" width="160" height="470" as="geometry" />
        </mxCell>
        <mxCell id="-i5JZtjKqTrFo0PbQZQr-16" value="" style="rounded=0;whiteSpace=wrap;html=1;" vertex="1" parent="1">
          <mxGeometry x="30" y="102" width="120" height="658" as="geometry" />
        </mxCell>
        <mxCell id="-i5JZtjKqTrFo0PbQZQr-18" value="" style="shape=image;verticalLabelPosition=bottom;labelBackgroundColor=default;verticalAlign=top;aspect=fixed;imageAspect=0;image=data:image/png,iVBORw0KGgoAAAANSUhEUgAAAgAAAAHLCAYAAAC+vyAQAAAgAElEQVR4nOzdd5hcdfn38feZtrO91/ROQhIgEOkdAUEQUUT5gVhAqqgodhHksaHSFURAiSgISJHeEpJAEhIIkN5I2WR7L7M79Zznj51NJn37zNn5vK5rJe7unL13dubc97cblmVZiIiISFJxxDsAERERGXoqAERERJKQCgAREZEkpAJAREQkCakAEBERSUIqAERERJKQCgAREZEkpAJAREQkCakAEBERSUIqAERERJKQCgAREZEkpAJAREQkCakAEBERSUIqAERERJKQCgAREZEkpAJAREQkCakAEBERSUIqAERERJKQCgAREZEkpAJAREQkCakAEBERSUIqAERERJKQCgAREZEkpAJAREQkCakAEBERSUIqAERERJKQCgAREZEkpAJAREQkCakAEBERSUIqAERERJKQCgAREZEkpAJAREQkCakAEBERSUIqAERERJKQCgAREZEkpAJAREQkCakAEBERSUIqAERERJKQCgAREZEkpAJAREQkCakAEBERSUIqAERERJKQCgAREZEkpAJAREQkCakAEBERSUIqAERERJKQCgAREZEkpAJAREQkCakAEBERSUIqAERERJKQCgAREZEk5Ip3ACJiD6YFt71bwy0v7ej6P06DrMIU7j9nFBdPysLpMOIdooj0gnoARKRH5lf4eGhTK0QssICwSWtriDcrfFT6QvEOT0R6ybAsy4p3ECKS2Ha0hzh5zids3toe81kLDHBmuPnC0YXcf1IJuSlODHUEiNiChgBE5ICW1XRy8pNb6Kzy7/EVAyyLSHuIJ5fU4nLAiSWpXD09Ly5xikjvqAAQkX1qDkR4YWsb933QQOeOjq5u/710FQH4wvx7SS1vF3rJcjv5/IRMUl2JMcIYsSxeLffx1rZ2Ut0GhtOx719F+s1hQDhkkeFx8LVDshmR4Y53SHIAKgBEZC/+sMk/1jbzvdcrod4PHKhfP1oEtIWpbG/n6kgFXkcZF0zMIRHmBToNg/uX1fPS0rp4h5I80l0ckedRAZDgVACIyG5CEYvblzfwm7cqoTnYw0dFiwAL2sp9fP3NSur8Jt+akXfA0mGohEImBy5iZEBFIKxuloSnAkBEdmoPmdy+vIE/LK4h0NSd/HuaOA3AAhNat/n4BTVUhkyumpxNWZxbgp4UZ1x/ftJxGXgTZAhI9k9/IREBoCNksr0txMtb2/D3Ovl3i36/BXV1AZ5e38LGHvciyLCiHoCEpx4AESEYsbjrowbmVvr44IN6+tddHh0OaA+x5sNGvuEwePnMMibneuPWCa/FziJ7UwEgkuQCYZMHVjVx69wqgs1BdiX/fhYB0Sbg5o8aObYpyOrLJlKarluOSKLQEIBIElte08mZb1Xy49crCDYGunb5w2BgJsxFrxOxaNrSzulPbuaN7b4BuK6IDAQVACJJqDNk8k6ljxuW1LJgcR3++sAgjtl2DQmsXdfKjxZUs6YxMFg/SER6QQWASJKxLJi7o52LXq3g3cW10BGOfmWgWv770lUEfLiikbOe3kJle0hzxETiTAWASBIJmRYvb2nm2gXVVG9oAXMof7oBFuzY0s6sJzYzf4eGA0TiSQWASJIIRCwWVnZw5fxayte37pH8h2p+ftecgJqNrXxrQQ3vVHYM0c8VkT2pABBJEq9ta+fKNyqoWt8Ss03bYHb7709XT8DGjxq4+PltrKj3E9E6PZEhpwJAJAk8v7mVm96pZvP62G7/eG6N21V4VG71cdZz5Tz3SVvXAgQRGTJalCsyjAVNi2c2tnDjolqqNrYmSPKPYUH1hlauccL6phDfnplDprbtFRkSKgBEhrHfLavn1tcqMDvD7GpiJ0jyj1G3vo2fbWpnfX0Hj35mVLzDEUkKKgBEhqGOsMktS2r5w6I6aA/FfCXxkj8ApgWmxZwPGukMWzx45ghy1BMgMqg0B0BkmOkImfx7fQt/WFAD9f7oZ+Mx2a8PWkM89V49v1/eQG1H6ODfLyJ9pgJAZBhpDUT43Qd1XPX0Nmjp64l+cRY0+f3z27lqXjUhUzMDRQaLhgBEhok3t7fznfnVbKzswPSFsF3ij2GZFs8ta+DLDrj3pFLKdIiQyIBTD4DIMGAB83d0sGZbO6EWeyf/nTrDLNjYSnlb8ODfKyK9pgJAxOb8EYvvvV3J/3u3FlrCEBom3eYW1O/o5LLXKrhnRSOd4SHdt1hk2FO/moiNBcImf1vdzD1za8AfiXc4g2LT6ha+u72DYNjimhm5pLvVbhEZCCoARGwqbFpcN7+aRxfWYg3T5N/Nagty0/+24TdNbpiZT5ZHRYBIf+ldJGJDjf4IP1pUy8Pv1RPeeZzvMGYBHRF+Mb+a335QT3tQwwEi/aUCQMRm2oImj65v4Y5XdsQs9RvuopMaa/z8bmE1d6xoxBdSESDSHxoCELER04JvvlPNU29UwvDu9d+/+gC/fLEcj2Xx3SMK8LqGwYoHkThQASBiEx/WdvLEJ208/25dkib/7kRvQWeEn7xbS1vE4odH5JOtbYNFek0FgIgNfFDTybcW17J8US3DYo1/vxhgWVDZwW8W1pDidnDZxCyyU5zkpDhxJPvTI9JDmgMgkuBW1Qf4+twqli+ti3coCSSa5ev9/PK1Co59oZxvzqukol3nB4j0lHoARBLYijo/571VSfm6FghbqPUfK9oT0BykpjXEcx6DTI+D22YXMibLs9e3isju1AMgkqA+rvPz2UU1lK9ohM4kWOrXJ9HMblrgN/nnknp+sKiO2o4wVuyGiNYw2R1RZACpB0AkAa2o6+Syt6rYvqY52vIHNWP3J2ZyYEuQp9+vI2JY3HFMEWOzu3oCIsr/IntRASCSIIIRi3cqO5hX18krm9tZubY5ZntfJf+DMwALWkM8u6yedKeDPx1XRFGai8I0rRIQ2ZMKAJEEELG6jvP93Os7CG/vgEDsJjdK/j23qwh47J0aSlKd/OaYIpxGnJ9DwwKHA7dhYDGYGxh1/Z5h0wRTrxs5MBUAIgng8fXN3PBuLeEtvpj+at3A+yZaBHSE+fOyOuoDJk9XdsQ3JMvgrNNLuOeoQmo7IoP3lzUALE54eitsj/PvLAlPBYBIHFkWtAQjLKzqpKnB3zWZTQZAV4rtbA3xdoWP9tb4Lw88rsDLhGwPpWmD1wNgAIGIBV4NecjBqQAQiaMGf5hfLK3jwaV10BjoOvRGLf+B4wuzdUMrROJ/bsAorwunAZmDfJKhETK1vkt6RAWASJw0+sPcvryBBxbVQnMwmvxlQFnGHvMp4mfbEJ3a2Bk2IaQXkxycCgCROGj0R/jJ4lr+triu60S/nfdrtf6HK+8QTUQ0DAPthyw9oQJAZIgtrurgurlVfLi1DVpDSv4iEhcqAESGiGXBppYgVyyuZc3HjTFfsVvit8Awupa2mWC/+EUEVACIDAnLgnp/mGOe3Urj2paYr9gpeVpd4TodeIu8hC2LcE1nzMoFO/0uIqICQGQIrGrwc+prFTRuaI1+xobJ0jAg280fzx7BzAIv65oD3PBmFVR3YMvfRyTJqQAQGWSr6v1cPK+Kho8b6UqUNkyWBlCYwk3HFPL9WQUAfKo4leqOCI+sbqa6sgPaQtjydxNJUlotKjKIdrSH+NxL21m7rD7eofSDBeku7j1nFLefULLzs1kpTn45u5A3LxjNcUcVQIqja16AiNiCCgCRQfJuZQeHPbmFzZvasGfL3wIsHDke/vrFMXx1YuZuXzUAj9Pg0Hwvc44t4uij8kifkKEiQMQmNAQgMgg+rvPzpXdraFzXevBvTjjRBG4YkOvhRyeX8M2puTgPUL9MyPHwz5PKWFzdweWdlVDVocNoRBKcCgCRAfb6tnYuf2UH1dt98Q6lD2KSf4aLez87im8ekn3A5N9tUm4Ko7I8eFxOLnljO9a2Tu1uKJLANAQgMkAiFlzxRgVn/a+c6s3tNtyOtTv5w8jJmfzpc6O5dFIWqa6e3ya8ToMLx2fy95NLyJ6YqTuMSAJTD4DIAGgPmdy7opGHF9aCPxLvcPqge42/QcHYTG47rpivTc3p05U8ToPLD83H43JyZUcYX3Un2PEpERnmVACIDIAfLqjm/jeqbHqcbzT5F3oZWZzKM58u48jitH5f9eLJOTgdBhe/WQlbfRoOEEkw6qAT6YfWYIQVdX7e3G1HPLuw2JmVnQZTSlM5a2QaU/JSBuQsGYcBh+V7OWNUOmS47LcIQmSYUw+ASB/5wxb/WNvMLfOraaoNxDucXrJ2/dftYNwh2fz9tDIOyU0hy+McsJ8yJS+Fx04r4z8j07jpue0EOyPqCRBJECoARPqgI2Ryz4pGfrWohs4dNt4K12NQNi2Lh08q45iSNAbjxNriNBfXH1bA5g6TBxdW09kYVBEgkgA0BCDSS50hkznrmvn5gho6t3fEO5y+MQCvg5Jp2Tx0XCmnjkwflOTfzWHAnccVceWJxbatlUSGG/UAiPRCZ9jkL2ua+PGrlUQa/dHP2iyjGRbkpXDNMQXceFgBY7PcQ/NjgV/PLmR0qpMfPL0NwpZ6AkTiSAWASA+FTIvffNzIn9+pIdzgP/gDEpETKE3nJ7PzuG5GPiMyhib5d8twO/jmtFzqzje5e141/iYNB4jEiwoAkYMImRb1nWGe2dzGfQtraK6M7fa3UevfCZ5sF/edWsJlU3PxuuITe06Kk19/qgh/2OIvb1YS6tDEQJF4UAEgchBvlPs4d1E1rGuBgBnzFRslf8OCEi9/OWMk35iWO6jj/T3hNOCu44s5JMvNNc9th/aQigCRIaZJgCIHMLe8naverYGVTeA3Y5KUzZJ/qZffn1DC/x2SE/fkH+vSQ3L4xRmlUJYafUpVBYgMFfUAiOyDZcHiKh9febua2vXNe2xlm0AZ9GAcQL6XO08t48ppuXh7cqrPEMpwO7j12CIKUp389eNG1mxshaCKAJGhoB4AkT2UtwZ5dnML58+rpnZd8x6H+iRWAj0gAwonZvLKRWO4bkYe6e7EfLsbwLUz85l30Tg+c1xR1/iAegJEBp16AERiVPvC3PpxI/8p9+Fb2Qg7h/xtlPgBDBhzaCZ3HVfKWWOyEqrbf19cDihKc/Hb2QUEQyZvLarr6oax2/MuYiMqAESi6jsjXLWklv8tq4fWoD2TvwEYFqPHZPLUWaOZXZwa74h65bDCVP796RGc4QuzckVT9HwFGz3/IjaSmH2CIkNsQ1OAc57Zyv/eqYHGQNcmNYCtkk/0ON/DZuTw+AWjmVXkjXdEfVKU5uKZc0bxmZOKu7oGYg8tEpEBox4ASXrvVnXw4wXVLFvVBBH7jven57j5v+ML+NyoDI4r7f9xvvE0McfDnccUEeqMsGBDC8GmIF1FgI3+JiIJTj0AktSqfGGueaOCd5Y32jf5O7rivv6UIv560gjOGZcd54AGxpS8FN74wlg+c2Q+pLm0TFBkgKkAkKTlj1g89UkrG+v80QlnEB1Ej2dYvWMAlsGoyel8ekRGvKMZFBePzaR4XEbM3UpFgMhA0BCAJCULeHBVEze9VE6wOYStkn4sA4rHZ/LseaM5ssheE/566iuTsxmT6earLoNP1rZA0ETDASL9px4ASToh0+KHi2v58es77J38nQazPlXAM58dxRGF9pzw11NHl6Ty3zNHMmNaNni6/17qCRDpDxUAklSa/BH+sbaZP75dTWddAHsmfwvcMHlSFn87vpjjytJwJPpC/35yGgaHFXq564Riph+aq+EAkQGgIQBJKvetbebm/26LdiPbMWlaYBjMmJTN618aR0lacr2FTx2dySMeJ18xLT75uJHoJAjs+bcUiS/1AEhSsICvza/m969URJO/3UTXwhsGp8zO51+fHZV0yR+60vzMwlSeOGMEhx6RD3E60lhkOFABIMOeL2Ry+6omnnq7Gl9zMN7h9EG0mzvFwcwp2dx5SikzCob3mP+BpDgNZhWl8ttPFXLS7ELSi7w7l0KKSM8lXxNCkkrItLhzRSO/+M/WeIfSBzFJzWVw5Ixcll40HocavTgMOHd8FqePzuDfG1q4/s1KAtX+PfZyEJEDUQEgw9rX5lfzzOK6eIfRSzFJzLAg18M3ji7kp0cUKvnHcBiQ5nbw1UNy8IcjzK/w8fSSBvDbcYhHZOipAJBhpz0YobwtxGs7fDyxpA7TVt3+eyb/FL5zQjE/OSKf4nR3/MJKYB6nwRWH5vH58dn4QhavfNQEvki8wxJJeCoAZFhpDUb4+9pmntrazrvL6iFopy5ha7d/e/JS+MYxRfy/o4tId2u6zoF4XQ5GZDq4+6RSvF4nzy6sg5CpVYIiB6ACQIaNYMTinhVN/GJuJbSGbJr8LTDAlevheyeV8p0ZeWQo+ffYpNwUbj+6iGDY5KX36sFvp9eAyNBSASDDQsS0uOfjBn61oArqA9HP2mXAPCb5e5xQkspVM/L47sxcStL1Fu2tiTkp3H1CKaGQyevvN9l02afI4NPdRWyvI2TyyJpmfvFGBaHG7vF+uyT/KAPIdHP6YXl8Y3I2543LItOjln9fTcj2cP8pZdyU4uSZxfUQ0HCAyJ5UAIit+UImd3/UwC8XVBNuDEZv8vZL/vljM7h8Vj5XTspmQrYHt9Nmv0MCGp+Twm+OLmJifir3L6yhrcYf75BEEooKALEl04LOsMlTG1v52bJ62Hlzt1nidFiQ4eYHn8rnh0cU4tA6vwE1Jc/L7z/lpaY9xKOvVaoXQCSG+hjFlhwGvL6tjT+tbIQ6u435RxmAw+BTh+Rw1qhMJf9B9PXJWTA9G9SzIrKTCgCxnZZAhIdWNXH5/BpWfdQAvlC8Q+o9A3AbzD4slwdOLubwwtR4RzSsnTwyg9XnjiJ9ZJrODxCJUgEgttLoD3Pz0jqufXUHbRtbYOd+Lza6qRuAy8EJR+Xz11NKObwwlWF+mm9CmJrrZdmXxzFpUqatXi4ig0UFgNhGlS/EXR83cs/iWkJ1fti5ustGd3MDSHFw9Mxs7j6umCOK0+wUva0ZBkzN9/LwmSMoPTTHVi8bkcGgAkBs464VTfx6XhU0BGImc9noLh4N9fjDcnjwtBHMKlK3fzycOCKdVz8zEkamRU8R1MxASU4qACThBSMWVyyo5t6F1ZhNQfsmf7eDn31hNM+eM5rpSXycbyKYlp/C6v+bQOqhuewaf1EhIMlFBYAktC0tQS5ZWM0/F9XSaeOWf3qWm8tPK+GnRxRQmOrSqX5x5nIYTMtL4b8nFHP87HxIdcY7JJEhp30AJCG1h0x8IZMfLK3jmYU1EIjYM/kDeB189phC/nFaWbwjkT18ZlwmU/JSODvFSflHjQTaQtju9SXSR+oBkIRjWnDz0jpO+u8WnnmzCvyRmB3+bHZzNuBn547kidOV/BPV+GwPG84bzUtfn4Qj3UXXi03DATL8qQCQhNIaNPnLyib+srCGDetaweq+Edss8QNGjpurPjOC70zPi3co0gMnlKZx+4VjyBrRPTlTRYAMbxoCkIQRiJj8a0Mz3362PGZzH/slfgAyXZx3dD73nFiCR7vP2UKK0+D7M/IwIxY/fbWCcGOAriJAfz8ZnlQASMK4bWl91zI/uyf/slQeOKOU88dlKfnb0NXTchib4eZLz2yDej+7egL0t5ThRUMAEncW8Jtl9fx6QTU0B7HlWD+AYTH+qDwePqOUq6bnUZqu+tqOMj1OLpqYxa9OLcE5LoNdSzY0JCDDi+5QElehiMUjqxv55cvbwRfBfok/mhQMA9fUHOafM4qRGe74hiQD4qdHFXBMcSoXv7KDpm0+iJjROSl2e42K7Jt6ACRuwqbFDW9XcfWLFYR9kYM/IOHsSv7HH1PAhgvHUJau5D9cOA2DT4/O4KXzRjN+Rg54uvcKUE+ADA8qACQuLKDSF2bhjo5ot7/d7Er+jjQnJ5SlMS7Low1+hqGZhV5OLEuDrNjiTkWA2J+GACQuPqrzc95z26jY1B7vUHop5sZvGDjyPTxw7ii+OCErfiHJoEp3O7j/+GJyPA7ufrsamgJ0DQNoOEDsTQWADLn3azq5ZlENFZvabNaQignWbUBJGj88Mo+vTc3Brab/sJbqcvCTw/JxAX9aUAMNflQEiN2pAJAhY1rQ6A9z4Uvb2b6+1cbJ30Hu5CyeOKWUU0elK/knieI0F7ceVUhNwOSxZXVQpyJA7E1zAGTIfFjXyelPbLF38vcYlE7O4tnTyzhzTIaSf5JJdzu4++hCrj+hBPJTsNkLWWQ36gGQQRex4IO6Tn72bg0r1rbEO5xeirnBOyB1ciYPHF/MySPT4xeSxFVeqoufzMjFY1r8dU0zHTvasYIW2HEhiyQ19QDIoAqZFk+ub+bkOZt4c2l9vMPpJWvXf10GTM7imZNHcN54TfhLdmUZbn57TBFLLxzD8bPyyC3xgqHeALEXFQAyaBo6Izy4qomv/m87/oZAV1eAHbkd5B6Sybtnj+K0kekY6vUXwOM0mJrv5Y6jS/jxKWWUjsvUVACxFQ0ByKD4oNbPPasambOhNbqfOtjr7miBAa48D0dMzOLGGXkcW5qm5C+7MYDZJalMy08hxWHyc1+I9roAmPGOTOTgVADIgLKAdY0BrlxYzYfv1bIr6dsscxrgyE/hj2eN4PIpOeR4nQd/jCStdLeDb03No8Dt5MqXd9BZqyJAEp+GAGRArWsM8NlXd/Dhhw3YMvkbQKoDz8g0bj2tlK8douQvPZPqcvCFiTn88YwR5IxJt9XLXpKTegBkQFS2h3m/tpNbVjayeVUThG14hKoBeJ1Mn57Fl8Zl8p2ZeWR6lPyl57wug69Py8EwLK4NVEGVf+dcUpcmCUqCUQEg/WIB7UGTW5bV8bfl9VDrj1k5Z6PkD+A0OPPIHG4/toRx2R4lf+mTVJeDrx6Si9th8NN5VdRt7wTAp/wvCUYFgPRLsz/Mrcvq+dt7tdAUtGfyN8BwOzjiyFxuP7aEwwpT4x2R2Fy628FXJucwJsPDpfOrqV3dzBZbHnolw5nmAEifNfkj3L68gXvfqbF18ifDxdnHFDLnpBJmKvnLAEl3O/j0mAweObEIxqYxJdsT75BEdqMeAOk1y4KmQISfLqnhr0sbuo7ztWXyt8Dr4idnlfGzIwpIcznsFL3YxGmjMvjkkolkedTeksSiAkB6LWJZbGgKsLCyA1psmvwBHAajir2cUuwl3a2bswwOj8NgfLaHiKVJAJJYVABIr1jAggofV79Tw8Y1LRDqXuxss+RvQNb4DF64YIzG/GVQOaMHRjm1i5QkGBUA0mP+sMlDq5v54bJaOrd1QNC+yd8zPZv/nKgxfxFJXioApEc6wybPbm3j2y9t7xrz38lmyd9pUFjm5elTyzhJJ/qJSBJTASA9cv/qZr7/WgW0hKKfsVnijxo5PoMnPzuKY0vT4h2KiEhcqQCQg3pgVRPfn1dp00N9dhkxM4f7ji1S8hcRQQWAHMSrW9u49vlttm/5O8ams+D8MYzPcsc7FBGRhKACQPZpY3OQz71WwbqNLVhtIeyZ+LuWXY0+NIdFXxhLSbpe7iJDxdJxiAlPd0TZy9wdPn7ybg1rP26MHupj0+RvGMw4PJe7TyhhRIZa/iJDxmEwPscb7yjkILT7iexkWlDpC3P1W5Us/aARwmC/5G917fDnclAyIYPHPj2CU0dptr/IkIpYvLS9nfaQegESmQoA2anKF2L839azcXVLvEPpA4udWxKmuWFmLh9dOpGZBWqFiAy5zjDfe3wLty2ti3ckcgAaAhAAFlZ08LX5VQSqOuMdSh9EE3+Kk4LR6Vw/M5cTStMoTtPLWyQuTMC0uP29OkKGwc9m5ZPv1fHaiUZ3SOGT5iBXzq1k88rmeIfSB9Hk7zKYNCWLu08o5jNjM+Mbkoh0qfZz56sVZKc6+M60XHJSVAQkEhUASW5zS5CTnthM5Y6OeIfSB9Hk7zYonpzNP88YwaeKtbWvSELxR7jlxR1sawzw4KlluBx2m1c0fGkOQJLqCJk8vq6JI16voHJze8y+/nbR3fKH4mk5PHZqKZ8qTkXnrYgkoLYwf59fw23v19PgD8c7GolSAZCEOkIm/1jXzNdfqaT1/fp4h9MHu1r+o6fm8OgJJZw+OkPJXySR+U1+9Xw5D6xtIWxamDodOe5UACSh8rYQz25rJ9AU2JlL7SMm4Ew3Z47KYHKOx3aLFUWSUsjiuS1tzN3hoyNk2u/2M8yoAEgiFl1j/j94r5Y3F9dBIIL91vkDHgPyPFx2VAG/PbqQsVmeeEckIj30/pI6Ln5uGw+taWJtg189AXFkWJalpz9JVLSFOPGtSrYsrYvu8Af2KgAsSHFSdHgWj8wq4qhiLfUT2VODP0LBnE2wqS3eoeyfYYHXSfbUbBZ9egTT8rVfRzyoByBJbGoO8tUF1WxbXm/f5O91MHFKJi+fMIJzxmUp+YvYlQV0Rmj5uImvL6hmea0d9x+xPxUAw5hlQci0WNsY4Ofv1TL33RpMf/dsf5slf8Ng5vQc/nXGCI4sTrVV9CKyp+g7OGKxdGk9P1hUy8d1/gM/RAacmlDDVMSyeHlLGy9UdPDixlaqdvhs2vIHXAZTDs/nLycU8amStHhHIyIDwgAsiFjMe7+Bi/wRXjxrBJNyU+x2h7ItFQDDkGnBx3V+zl9UC9t90BRgV9K30VvLAFwGhVOymXNSsZK/yLATLQKCETauauIKr4NvH5rLKSPSKdQQ36DTEMAwNH9HO6e/Xgmrm6ApiG2TPzB5Ri5vnDOS2cVK/iI9YVkWROy0sVf0zR40Wbiknkuf3ca3l9bRZrvNyexHJdYw88rWNq5bXEfz2iaIxH7FXsl/1swcTh6TwTWH5jIpNyXeEYnYhmkBAbslz2hPgGkRrA/wn6V1uBwGd8wupChV5wcMFhUAw0TYtPiozs83FtVSvboZQrGrO22U/F0Go4pS+f3JpRye76VAb36RXvG6HMycmMWKxgD47VQIRIsAgPoA/1pcS47L4LLGnlgAACAASURBVBeH52vFzyDRPgDDQNi0WFTVwcnzqmBNc8xkP7BV8jdgzMg03rh0glr9Iv2wvjHAlxZWs2Jp/R6NATuIxmsAOSlcfmwhfzq6kFyvC50jNLBUAAwDP3yvlvsX19Fe0wkRm870N+DQadn87cwRHFuq8X6R/jCtrmO+/7WxhVvfqorOBbKTmCIgy8OUcRn845QSjilLj2tUw40mAdpYIGLx19VNPLCwhvbKDvsmfyxGjs3gztNKlfxFBoDDgEm5Hn44K5+rjy6AXHe8Q+ql6D3MAlqCrF/RxPcX17K+MYCarANHPQA2FbHgzysauOnFHQRbYqt7myV/A7JHpTLvS+M5oig13tGIDDv+iMUfltdz6/+2E7Hd5EDY2RvgMBg9LYeFnx/D6Ey7FTSJST0ANhQxLW5bWsf33qiISf4Gdkz+h87O56nzx3BYoZK/yGDwOg2+d3g+1589AneeHQ/Oit7bTIvyNc1c+NJ2ltdq18CBoB4Am2kLmry8rY3/e66cSJ0f2yX9bk6YMDGLJz47iqOKlfxFBlvEsvjOgmr+PL8a2sPY796xa17A8UcV8NDpZeR5HRSlqTegr9QDYDNbW4L8Y00zkebYDX7sxoIcD/83LZcJ2XZskYjYj9MwuHBCFkdPygYjZsmdbUR7AixYU97BT1c26fyAflIPgE1YFmxvD3L1ghpeeadmj01+7MLqeg9nuLn2+CLuOqUUt9b1iAypj+v9fPnZbazb3GbricMA02bl8cQZXccJO+32KyQAFQA2Ud0RZuJ/tuBb14o9p8F2JX+H18UdF4zm24fna02vSBxYgC9oMvPxT9iytiW6dSDYrwgADAtGZbDiy+OYUeCNdzS2oyEAG1jbEGDyC+X41tsx+Vt0H+dLtoefnjWCa2bmKfmLxIkBZHgcPHJ6GdOPKoCR3Utv7XZvASwDyn0c+8oO3qnwxTsa21EPQAJr7DRp8Ie4Zm4Vb71XH+9w+qB70o4BmV3d/vedWmrHdobIsLSuMcBbO3xc/1Yl1HbGDC3a7106Y3o2z31uDGOzPGpg9JAKgARlWnDNohoefK8eGgIQstv63ZidvErSeOjsMi6emE2GW51OIokkELF4r9rH1+ZWsWVdS8zWwTbLok6DzFHpfHzpBMZlaWVAT+hunIDaQya/XFrH3xfXQXWnzZJ/d5c/kOKgYGImc84ewZeV/EUSUorT4PiydP55WhnTDs0Fl80Sf7eIRdt2Hxe/WM7Dq5vwh+1034wP9QAkmGDE5KlP2rj0kU0xk3PsICZWA8jxcNS0bH40NY8vTMrqWnUkIgnt1a1tXPdODZvXtXQ1PCw7vnEtnCPTuOeUUq6cnoPboYbH/qgASCBbWoJc/XYVb61oItIWjnc4vdTd5d+1xv+GE0r4+VEFZHuceLQ+R8QWghGLba1BfrOigX8uqSfSGLTl3EAckJafwu/OLOOaGXm4NClgn1QAJIhNzUGunlfJWx83QkcEe42/7Ur+rmwP3z65lBtn5jIyU5v8iNhReVuIe1Y18rdl9bRWdNqwCOgKOH1UGj87rpjvHZaP165DG4NIBUACWN8U4EeLa3n+nRoIW9gr+QNY4DLw5nn43KwCHjmphDRXYnW7hcNhNm0tZ0dlJa2t7YQjfd1JycAfDDJ10gQy0tOwenFn3N9f1drH9wzUm/JAr6Se/oydMe3vAb18ucZ+uzVI880OdrkDvcsG84bocbnJysqkMC8XI8HHxcKmxV9XNnDTG9V01vvBdkPq0blIJance3oZnx+fSUGqixT1SO6kAiDOtrQE+eZbFcxbUof9DvTZNdN/zKFZ/PpTxVwyJSehxvvb2n3c/ue/sXHzVrpf6v19yXdNc7Tw7+eGGDIiuE0n1iDs1uiwAgN/0QRlGikYmFiDMFc5Xs+jaZrUN7VQ39jMScccxc9uuJqJ48bEJZaeCEYsHlrdxHXzqqDSpj0BBhipLsZNyuSeY4s5d3xmvINKGCoA4mh9U4Cr5lUxf2UT+LrH/BMoex6UBR6DGdNy+fWxhZw5OjOhqutHn3yGxe9/RFNzS7+Tfk/s9SP281Ts1gJm363+PXsWDIydnzP2ceHePOvdP3Nfz8hg/fV6+NT0+PFdn9v339TYz0/oae9KT2Pb33X2/Xlrt392/w2dKR68Tid//v0tpKcm5qFYbUGTpzc2c/P7DexY3xrtpbSTaLwugynTcnjktDJml6RqG3JUAMRFsz/CtrYQP15Wx6uLaiHY3ZS00QvSsMDtYNbMHB4+dQQzC7wJs/lGW7uPF16fy/9eewvTtF2/pQxzuxV6lkUgFGLapIlccckXmTR+bNziOpiNTX6OfXwLDTs6wXZL7KLPuttgzOQsHj9zJBNzPBSmuuIbVpypABhiDZ1hfvNBA3esaOxa4x+IRF+bCZI9e6Qr+R87O497jy3hyAQ6zrfN52P+oqXMefLZeIci0iMWFlgG2VkZ3H7zD8nLyYl3SPv1UW0nX3llB+tWt8Q7lF7afZnyITNyOb4slVtmFyb1ZGUVAEOo0R/mzyubuPntKqjzs3vSt1EB4DGYOTWbR84YkVDJH+DPjzzG/MVL4x2GSK+ZQGNzM3OfmhPvUA7o7e3tnPpKBWxqi3cofRCzQ2mWmxtOKuEXRxZQkJacPQGJNVV7mFtZH+DlrW3QEmJXwrfZxD8DyEnh8xOzmJiTWJXzK3Pns+yjFfEOQ6RPHEBGairPJ/jQ1aziVL5zaLatblu7xATtC/P61jaWVHfEL5w4UwEwBMKmxeqGAD9eUsuSFU0xY/424wBHiZffnFzItw/LJzvFGe+IdgpHIrz/0Uo6Ov3xDkWkz7wpKdz7yD+pb2yKdyj7leVxcvORhVxyZhkTx2VAit3SiNHVERC2WLe+he8urOGvq5toCQzCsp0EZ7e/nO34QiYbmoN8+c0KlnzYAIHY5G+jEtppkFaQwtPnjeamI4vI9yZO8geoqKympq4h3mGI9Ft6Ria1Cf5azvM6eez0Ml79ynimjs+AxLod9ED03hu0+GRNM1c/W87jm1oI2Wr79f5TATCIWgMRbl1ax+VzK1n1QX3MKVtgq+RvwOhx6bx08Vg+PzEr4bbVtCzYun0H9Q2N8Q5FpN88hsE9j8wZkqWr/WEAE3I8vHThWE45qoCdB4HZRnT41QJag1zzwnZuW1oX76CGlAqAQbKlJcQv36/n7neqef/DBmw74c8ARqXxx1NLOWVUYm6gEQwF2VZZiZngN0yRnrAM2Lxte0LPA4g1LtvDnSeXMHFG90mCdiwEgMYgf5hfzZw1Tfhtt9dB36gAGAQtgQhfX1zDXXOrCDYE9zhf2ybJvzvUghTmfX4MF03KjndE+xUOh2lt9cU7DJEBFQrbZ0z68AIv73xhLGOnRYsAA+xVCHTdl/0NAb7xzDb+ua6JiF1C7wcVAANsdUOAz7+wnflL66AtFPMVmyT+bplujjujhDcvHsdxJWnxjuaALAusiD1aSyIHY1jgdrmxT/LsUpzm4oWzy/jS6WVQ4I35il1+j65WT6Q1xLdeqeTGt6uIDPM5Acm5+HGQVLSHuGlJDfOW1Q/eKSeDzQBXppuzZ+Xx3OkjcCbYeL/I/lh0v+0sug+kGIgWjrXzv12bKA9FqykjLc1udw4Aphekcs8xbjI9Dh5eVAsN3Wcu2OmQMwPq/NzzXh0Tcz18a3ouKQl2uNlAGZ6/VZx84cXtvPJunX2Tf/RWd/1pxTx5ppK/JD4Ti4bWdsKWwaGHTGLKxHHk5eRQ29iEg74fYGcBoUiEitpaykpKOGTSRCaOHQumRX1zMyYBTMIHvU5/WLa7f3QpTnfxh9mFXHVsIeSndHVpAPbpCYhqCvK9Z7bxl5WJuySzv9QDMAA2Ngf5xus7eG9VU3SPbDu+cS1Ss9z8/oIxXDIhk9RhWvGK/VlAJBIhJzuLM048jrNOOZG83Oydx+ualkUgEGDtxk9YsvxjXn/7HTyunt/qauobuOTC8zhq5nSOmDENwzAwDKNrqAmL9nYfby1czMtvzKOpvX3AW1GWAc0tLdguYcbI9Tq59ahCRmS4uGNRHc07fPY7TtiCiN/kR69VsLYlyN0nlJDqsuO9ff9UAPTTuqYA319YwzvLG8G0UzdXLIu0bA/nn1TMtdNy1PKXhNQ9pSwUCnHIpAlceclF+zxK12EYpHq9zJpxKLNmHEp9QyPLV67B7XId8N3ZXVicc8bJXHXZl/f6umF0neKXlZnB58/5NIdPn8pj/32ej9esH/giADun/y7FaS6+Nz2fdIfBPR82sm1rO3RGsNs9MtQY5G/zaziq0MupI9KYlJMS75AGjJp5/dAUiHDpi+W8/E6NTZN/123GcDv5wdllPH5iiZK/JC6rqzd56uSJ/OYnN+4z+e/LzTdez6dPPI6IGcHczyHCFl09B7MPn86PrvtWj647bvRIbrr2CsaOLCMyQEtQ7Z7095ThcXDj4QW88NnRnHREPti1Z7EjzFVzPuGS+dVsaArGO5oBY9O/Rvx9WOfnmMc388H6Vmy1vA/YrX2R5eHeL4/j29Ny4xqRyIF09x5blsV1l1+C09G7W9fXvvwFcrOzcTtdWHsUASZdW0kXF+Txkxuu6dV1vSkp/Pw712JFTLQNxf5NL/By13HFzDoyHxJsF9Eeic4wfX9ZPee/toPNzSE6h8FeASoA+uCjOj/XL6phw9oWCNrtRbArXmeBl68cX8g3p+ZQkOTnYkvisuhq+RsGXH/FZYwaUdrra6SnpXLrD26go9OPYRldLX66CwuLSWPHcOevft6n+HJysjjn9JN3xip7Mww4vNDLY6eUMOXQbPDaNPUETdavauKityv540cNtj8/wKZ/hfgwLdjRHuJzL5SzaFGdDd/tuwL2Fni59zMjmHNyKd5hNrFFhifLgqmTxvf58aXFhRQV5Hdfbed/DcsgPz+XFI+7z9e++IJzaWpr7fPjk4FhwNR8L0+cWsLps/K7DhGy1a2n+/wAk+WLarh5biV/XtNMe8husxt3UQHQCyvrO7notQrK17XaN/kbwPhMfv3pMq6YlpNw+/qL7EsoHGbmtCkU5ecf/Jv3w+l0cuRhh9Lu74x+ZtebePbM6f2KLzMjnSnjx/X7vpAM78bDi9L443FF3HTWCDyH2W3oMeYY93o/P1tQzaNrmu2XDqJUAPTCe7V+ln/UZMN3aczLM9PN+RMy+crkLFxO/fnFHkKRMOeccfLOpX59NWn8uF3L0gHD6rreyLLifl0XIDsrMc/KSESHFnj57hH5/GJSpg2HA2KKgOpOHtjUSnlL4ICPSFQa+D2IQMTiX+tbWNAc4MX36gnabswnZhOOTA9fPK6IO2YXUpre9+5OkaFmWRZOR/8njx0xfdo+P+8w+p+E+lucJBO3w6As3cUNM/Np7Ihw5+I6aAxgn9ZV9NCjiMXqVU18NhDmwsk5fOuQbEZk2OfeqgLgADpCJnM2tHDNu7VQ3m7fCX8GkJXC2bPzuXN2ISMz7fMCFTEA0zBobWvDsqx+Jdp2nw/L6F6ya2EZXXMA2js6D/bQgwoEgqgG6J2sFCe/P7GE9pDF3xbXQnsoetuywxMZfQ35wqz6qJFV2zvwBSP8/MgCclLssdLBbn0vQyZkWjyxsZVrXt0Bn7RC0IYTPaKrE91Zbs48Kp8nTylT8hfbsYBUt5v/PPcSoVDft9+1LIuVa9bhdHbfnHclmbUbN/YrRtO0qK6t7dc1kpXbYXDfqaX84swySHFGz3GwS2MrZjig0c+f3q3h5+/VErDJUYIqAPbBAv6xppmr51ZCjd9GFWkMJ1DshUOyuef80bxwxggyPfpziz05nU5qGhtZ/8nmPl8jEAzy9Iuv4fV4Yj5rYBkWzf08Tnp7ZSUV1SoA+srjNLh5diEvfWMSBRMy4h1OL0Vzg2VAfYD7F9fxq6W1tNqg0aghgD0EIhaPr2/muwuqCZW3Y7vEH8Odk8IXR6bzqSIvtR1hmoMRnEAizmIwgEDYJD/VxahMNw71pUpUd3vQwGB7VQ0zpk7p03Wqa+tpbGrBneLe2fKJ7oXJ3HeX8OkTj2Pi+J7tLrin+x5+jIK8nD49dqCFTahsD1HXGcbr6jq98EDt0e40Fa/mgQGELUhxGpw9JpOSsjTqt7R3BWaPhjQ7X6UWmI0BfrughtawxU2H5TE6y3PQR8eLCoAY/rDFvze28M0Xd0CDn926d2wo1Bjg8aDJh1UdOCJQGz5QRRrfd5rfhHZ/hPMnZvL8uaPjGosknu6T/f7yj8fw+XxcdN5nevX49z9eyf+79294Uty7vZu7/21ZFv/vnvv57U+/T2lRYY+va1kW/3n+ZbZXVmIM2H2if+/FjnCEr75bw8L1LWSnOnE6DeK5TeHBCgsTwIAsp4NRXiebm0OQ5oKOcGK2VvZrVxFgNQa4760q5lZ38NrZIxmZmZhFgAqAqJBp8cjaJq57uxrqO7F78scEmoPQHGRd2NzPPSWByutoKCudNn2+ZdA5gNQUL6+//Q4jSks47qgjevS4dZs28/f/PItnPy+t7o28W1vbuPHmX3PXbT+nuLDgoNc1TZOlH67k8TfeIMVMnPdSKGIxf1s7VPpogsS5hRkHeo4M6jHYDOB2gMOw3+mBQGwRQEeYNaua+ZzLwZ+PKeKY0rR4B7eXpB8UNi1o9kd4fH0LP1hYA9tju/0T5Z3TBxZdqxaC5q6utL0+jMT56L4Na28COQADaGpt4w9/eZif/+7Og36/r8PHr+64j5q6+oN+r8vpxLLg+p/ehq/z4KsCHnn8af7014dJGfCx3v7ddywMcMW8p+L93u7+MB0H+DB27c0cMKFzf40WO+h+7oHOCMuX1POZxbW0JeCcgKTvAXi3yseVC2vYvKmVUHuYYZH8d2Oz38O2b3oZKg7A4XBQvqOC8y+/hjNPPp5Lv/A5MtJTMS2Ljo5OPli5hn898zwtre0YhtHjlo5pmhjAxd/6Dvl5+Vzy+XM4YfaReDxuLMui3dfJE8+9wEtvLSAzM/3Ajdo4MboH1RPCzkGWg3x9OOruDbBoXt7I4R1h3jxvNOOyE2c4IKkLgAUVPr67qIb1HzXCbss2hvOLMrFpMxXpEQP8gSBej5u3Fi7mqRdeIRLpGjB2udxkpKeR6k3BYfRtZD7N66Wzw8cdf/0Hv77r/q7CwDBwOB0U5uaSnurFDCfwALUjphWaEBIplqEULQKCETavbuZr6S5+f0wxs4q8eBJguDMpC4CQabGizs+1C6pYvbolJvnH/w+S7BKl3SL24XY5KS7o+xkBB5KdkU52RvqgXFuSRTSvRCwWLK7jioDJ5YfkcNW0bLI88d0wKCkHXBdVdvDFuZVdyT8Bx2WkdwzASIBqWkRk/7p6ZVYvb+SH/9nCdW9XxTug5CsA3qns4MpFtWxdE5v8E627THrD4XSQ6vXGOwyRAWEAwWAIl9Me28lKH0QsHvugke8vqqW+s++7W/ZX0hQAvpDJW9vbuWpBNRtXNMLOQ32U+O3O7XZTVJAX7zBEBohFXk62CoDhrinIHa/s4K61zTTH6ZC5pJgDEIqY/G9zG5e8VQnVHXu0/MXuXE4nZSUleL0p+P32PJZTpFs4HOHKSy5CJwslgYDJr1+vxAhGuPXo4q65m0No2PcAWMCr29q4b0MLbPN1rTEFlPyHl4ljR1NWUoylP6vYXHunn+lTp+gOlSyagjy4poXOsDnkk6CHfQHwhw/qufCJrSx6r65rO0xL4/3DUXZWJqNHlAKoCBDbMi2TSWNHDdqqBklAFtRuaGXqQxu4e2UjnQfcsn1gDdshgPaQyb8/aeVH79Z0bYkLKPEPb1de+iVa2tpYvnJNvEMR6ZPW9g7+/Zc78HgSZ7MYGQImbN/Sxm8jFp2mxXcPzSXVNfjt82HZAxCIWDy7pY2rniuHHR3Rzyr5D3dul5sLzv40ednZ8Q5FpNda2n3ccMVlSv5JrLa8nd/Nq+bxDa34h2A3x2FXAFjAXR818tXny6ExgJb4JZepkyZw843X6yYqttLp9/O5s07js2ecGu9QJG668lRrVQdXPreNOWsbCQ3yIVPDqgBoCUZ4aHUTv1xQBXXdyV+STWlxIX+65cdMGte3s937w2LXmSb7e+uavfjojdjHdZ/31JPvHaif39PY+hPPQMc7kL9v7N/+wB9W9AMiEZNNW8q58epv8q1LL+5nBDIsWGC2BLlpcT23LKtnWXXHwR/TR4ZlxfGg6AH24NpmrnpiC3Qm8B7dckDjxmWy+ZopA3Ktqupa5i16j7cXvUdzS+uAXHNP3Yl2f4fCHGxC4kA+bn+P6cmBNZZhcaCC+WDX6M/Eyz2vfeBrDc2hMkbMj4qNZ18/ZedG4vv9PXb/ghH9QjgS5pCJEzh8xlQuPv+c/gUco8EfoWDOJtjUNmDXlKEU83pJczJiUjZPn1Y6KMcJD5tJgLcuqeWWhTVK/rJTaUkRl1x4HscedQQvvjGXzk4/HX4/wUAIq58LbkLhMDW19QRDoa5PGPtOTXueLbnX9+wvaR8sgH18w34f04PceNAjc/r35V49+MDXMvb616C1YIw9f+IBv+0Av8eufzkMg9ycHMqKC/nc2WcwbfIEXK5hcxuWARE9QAigI0LF2mYudho8dGwRp4/OGNC9AmzfAxA2LZ7a2Mol/yuPdvuLnQ1kD8C+BINBOjr99GdozTAs0tPS8Li7jogV6Y3BPvFSPQDDRcy9xWnA9FxWnDWCqXkpuAaoCrB96fmf9S1c/uRW6IjffspiHx6PZ0AnCOr4YhEZHDE9ARELVjVyigG/mZ7LJYfkkOnp/xQ+W08C/PE71Vz6v+1EfGGdIysiIsNMTAMjAo2rm/j2olqufa+W+gEY7rZlD8CWliBvVHbw+6X10KBufxERGa5iegJCFqHNbTzWGsIZNPn+YXnMKOj7Sai26gGwgGpfiOsX13DVvz6BGn+8QxIRERlke+xn0+Dn0dcrOeul7WxtDfZ5TpOtCoDy1iDHv1HJq4vqu070U7e/iIgkjWgRYAGWRdW6Vs57obzPewXYogDwhy3eLG/nhkW1bP6gHtOvCX8iIpKMYnoDIiarVjZz46Ia1jcG6O2iJFsUAIsq27nug3r+925NV8sf0C5/IiKSvKI50LRY9H4DFy2spj3Uu4mBCV8AlLeGeGR9Kxs2tkFA3f4iIiJdor0BEYv1q5p5sdxHMNLzJJnQBUBNR5ivLqzm3/OroSF2wp9a/yIiIl0Mgq0hLvn7Rh7b0vMNoBJyGWBtR5hH1zfzr/UtrNjYihWMsPemqiK95+vopNPv79cOfpZlkZudhVs7AUovaeMoGTQWELIINARgYs8eknAFQGvQ5M41TfxuYRVU+cGIXf6gN4/0jmVZ7KiqZt3GzbS0tlHX0Iivo4OI2b+z31xOJ4bTga+jc6+v7TwUxiB65kDvXrd7Hbyzn3MGev7Y7hgOdFrB3tew9riYsccpPT05fGj3a+zvebD2+vru19jfY3ryvO597b2/dmCGZez1XOz/mrGPi/6UmDMFsjLSGTt6JN6UFGYcMoXS4sIexSDSY724tSVMARA2LcIW/HZ5Pb9bVAvV0S5/NbCkj9rafSz7eCWPPvFfOv0H3jBq5026h683y4JgKNCVYPUald5yuhlZWszRh03nrFNOpKSoIN4RSRJKmALgrYoOWgJh/rC4Dmq61zTGVthq/Uvv/O6++9mwubxHSb2niX/n9xuQ4knpW2AiQH1tHS+9+TZ3PPAIc/87h/zc3HiHJEkmYSYBbq7w8Z3XK4lUd0Rb/XsmfDWzpGcqqmv42nd/1OPkLxI3lsWUCeP40lXfYdH7H8Y7GkkyCVMAAFRXdUT7Uw80Vtj9sb/P7+97DnStnj5muBl+v/PaDZu49Y/37HNsXiRR5Wfn8JPf/pFVazfEOxRJWPvLWX3PYwkzBJCd4earp5UStgyc8Q4mCaW6HCxo9LNuST193lg6zkLhCM+89AbNLW0aMBLbKc7L54Zf3MabTz6Kw5FQbbPeS3Ew8bA8jivwYtn0fmJXU0Zn9Ph7E6YA+MqhuXyZXN2448WAzS1BDllaT7h/E+Tj5q9z/s2KteviHYZIn+VmZfGHPz/E9676Oh6PO97h9F2Kk6dPLmZmQWq8I0k+vUiiCVMAGIam+cVbZ8Sy7YhAm6+D6po6rcsXW3M6nbyxcDGXXXQBZSVF8Q6n7ywLf8RC2x4kNpv3M8lAquuM2DX/s7V8O1W1dfEOQ6TfMtNT2VZRGe8w+seCxs7e7UsvQ08FgOzksmkfjGmaVFbV0Nbui3coIv3mdLm49+E5tu/Ncqr5n/BUAIjtBYJBKuvU+pfho6a+AbOfu1WKHIwKALE9M2Li83Uc/BtFbCQYDsc7BBnmVACI7VmA1YsjMEVsQS9pGWQJswpARKQvLMAfCOw2g8XlcuFy9n9HkXAkQjgcIfZQIW+Kp9/X3Z/dcr6G0GWQqQAQEduqb2rmhCNnccG5Z+D1dCXmQDDE48+/xLpNn2BZFt4Ub69zqT8QJBAKc+wRM/ni+WfjjBYT4XCYh//9JB+v3URhbvYA/zYiQ0sFgIjYigWEwmFGlpZwy003MH7MKLwpux/MNGPaIdQ1NFBZU8tv73kQK7rPyMEKAQuwLJObrruCyePHUVSQh7HHbPbf/fyHbK+o4tGnnmP9xs1a6y62pTkAImIbVvR/zjrlRP74yx8xbfLEvZI/gMvlpLS4iCNnTucrn/8sBTk5cIB9riwgYloUFuTwg2uv4MSjj6K4MH+v5A/gTUlh0vix3HzjdZx07GyCodBA/ooiQ0YFgIjYggkEQ2FOP/kYrv7ql/eZ+PflC+eeyQXnnNH1f/ZRBHQfn5KemspF553LMbMO79F1PW4313/zMiaMHUM4ok1vxH5UAIhIwjMBw4Liwhwu+8Ln99kyP5AzTjye42fPwul07qMAsIiYMHn8aE497uheXdcA/nTLj6mstOZ/VgAAF+lJREFUqe/V40QSgQoAEUloFl3JH+Db3/wa6Wm9P2DG5XLyjUu+iNPpwLC6CoruD8MyOPXY2fz0u9f2OcYHb7+V5ra2Pj++m6YTyFBSASAiCc80TXJzshgzsqzP18hIT2P8mFGEYjbY6S4sUlM9/TqCd+rkiZQV2fjwHklKKgBEJOGFImEuPOcsMtPT+3wNh8PBZRddQDAU2pn4u02fMqVf8bndLnJzc/p1DZGhpgJARBJeOGJSUlTQ67H/PRUV5O/n83n9ui5Aenpqv+MTGUoqAEQk4UXMCI4BSK7dB+xZxp6f7//BOwOV+nVTlqGi15qIJDyP283SD1f0e3v8p194GcOxd6qua2jq55Uh4g9hagN/sREVACKS8LxuD6+9/Q5NzS19vkYkYrL0o5WkpXjp3g3AMrqWAb730Yp+xRcMhli56ZOdPQwidqACQEQSmsGuLvv1n2zp83Uamppobm7FMizA2HnzMzCIhCKYZt+z96vzFuD1eHRDFVvR61VEEl5XEWDx9Iuv0t7R0evHR0yTZ198DYfDwIhJ/g7AMGDhBx9y251/6VNspmVx/5wndCaA2I4KABFJeF0H+Rhs2rKVJ557udePn7twMc+/OQ/TsvY5Wc9lGGzeto0lyz/q1XVN0+S+h+bgcetcNbEfvWpFxBYMIMXt4b8vvY7H7eJL53+mR+cBvPTmfJ783yukp+7/WGAH4PN18uA/n8TpcDD78JkHva6vo4PnX32TJR9+TIrb3avfRSQRqAdARGwlM83LMy+9zo9v+wOVNbW77ezXzTRNWlrb2LRlG/c89CidnR0YB1mo53AYtLe387Pf3cmKNetobW/f5/eFw2HqGhr55R/u5dmX3yQc2vvni9iBegBExHY8bhcV1TVc+f2fMm3SRE48ZjbTJk8EoKK6hjnPvEDA10FbZwfZmRm9unZOZia/uv0+nKkplBbm8ZULzqWooIBgKMTGzVt5cd5CKmvrSXU5BmXcv/87Eoj0jAoAEbElwzBIT01jc/l2Nm4pJ2JFMDAwDIMUpxvLASmuvnXNO9wOzGCIreUV/ObuB3au7ne7nVg48RhgRZSqxd5UAIiIrTkdTpwO2PN21t/GueEAjyM+t0gD0J5CMtg0B0BszzDQHuwyLMTmfL2kZbCpABDbczmd5ORmxTsMkX7rzvmhiInLpQ5aGVwqAMT23G43ZcVF6gWQYWNEcRFOh27PMrj0ChPbczgcjCgtJjdbvQBif8FgiKsvu1gFrQw6FQD/v717D4+rrvM4/jkzyVxybS5t03uSJumNtlAs9ikgFpAKIqi48uwCiohIQbq4XmCRXXTRlUddFVYUFxZlZXkAERaUghQsFIi10NLSe20LTZs0vaRN21zncn77Ry/GNG0mM5OcOXPer+fJH+mc853vpPPM73POnPP7ISvUVFVq7OgKp9sAUtbR2aXKCeOcbgMeQABAVvD7fJpSV6NcpmSFi8Vt6YJz5mjUiOFOtwIPIAAga1zxsfk6d87s4yvHAW6zs3mXbrvlBuVyASCGAAEAWeUTH/2IZkye5HQbwIA1NO3WEw/8RD6++8cQIQAgq1SMKNct139W0+pqMv4q6mTnkXPT/HN2jx+vsPXX+/kTed1GUswY3Xv3HaocN2bwGgN64TwTss6wokLd9fWFuv+Xj+q1+uWD9jyn+nC3EpjFzdKRD39jJbZ97/166++rj/6ewxzfYOBHoCer3bNSqhPbJfr6jm1nmYH/bdPhWJtGp/q/MorHLbV3dWvthvVa/9oiDSsqHLomAXEGAFns5s9frfvv+ZZOnz4lrXWN/jr4W6bvn4FI1wB1sl4S7cky1tGf/mul8nqTlWgPPX8f6sE/EbtbWrRx8zYVF+brn2/+vBpXLmXwhyM4A4CsNrysVHcsXCBJ2vLedjU07tLBQ4cVi8eTrumzjkw+1B2JKhaLyZg+RplED6JPNkAlsv+xQ8y+6p3s3wcqXYfwfb2ewRqc+/vbDeR5k/x/tKxe0/oe3SQUCGhUxUh9YMZp3LECx/EOhGfUVE1QTdUEp9sAgIzAVwAAAHgQAQAAAA8iAAAA4EEEAAAAPIgAAACABxEAAADwIAIAAAAeRAAAAMCDCAAAAHgQMwHCE+LxuLq6utXVHVFbR7ti0VjStWxjVDl+LGu2A3A1PsGQ1Tq7uvX8y0u0fUejmvfs06G2NtnxeErT0BvbaMyYCnV1RxS3e60J2Ht+/r7m6+/92Km2GVBjPer0XBPAHJ2bPpFedGzDv+5/7Ne/2bX3Mncnex2mj8d799nXPgP9m/X1PKfax0iWZcn0fBG9a0gJ/L0S6LlnbRkV5OeptmqCZkyepMl1ExXIzT3FjsDgIQAga23a+p5eWVqvV+v/nPbaGzdvTXtNeIOR0bpNW/TgY7/RxeefpzmzZuq8ObNlWelIgUDiCADIOrZt69DhNt31/Z/ItjNwPVh4miVLlqSRpaV6a+UavVb/lrq7unTheefI7+OyLAwd3m3IOpu2bNMNX7uTwR8Zz++T8vOCeuDXT+i+hx5xuh14DAEAWeWN5Sv07f/4qdNtAAnzyZLf79cflryhRYtfdbodeAgBAFljz74W/d+ixbJ7X5gHZDifpIKCfN378K/U1d3tdDvwCAIAssavnnhaDY1NTrcBJMUnqbCgSDfffpfa2jucbgceQABAVti1Z6+a9+xzug0gJT5JO3btUcuBVqdbgQcQAJAVdjY2ac8+AgDcryAvrPWbtzjdBjyAAADXi8ZiamhqViQSdboVIGU5fr8efOxJ2Ya7WDC4CABwvUgkol279zrdBpA2Bw8dVpRAi0FGAIDrGSOZOFf+I7vYKU1YDfSPAAAAmYjxH4OMqYABuJKRZJsjizP5fEcm05Ek28RlGyNjW8pJ4RDH6OgRks8nyZKRZEz8yEJCKXd/6ueVNLhPAogAAMClwuGQJowZrdOnTdElF3xIoVBIkhSJRrVpy3t69g+L1dp6WNsbm+Qb4EI7tbXVCgcCuubTl2t0RYX8fp9kjLojES16+TW9+fY7amxpkd3ZrXSv4cOBP4YKAQCA63z4nDmaXF2p88+de8JjwUBAM6ZO0oypkxSPx3X3j+7Xur9skZXgyJqfH9a//OMChYLBv33AshQOhXTFpfN1xaXztWzlaj2/eIk2bdmWhlcEDD2uAQDgCuboz8xpk/XR887uc/Dvze/367ZbbtDcM8/od9tAbq5qqybo4R/fc+Lg34c5s2bqn268TmNGjUygeyDzEAAAZLxjg39pYbE+cfFHVF05IeF9w6GQrrriMhUWFp7y9Pq4saP13Tu+KmsA5/RLiov0lS99XorGEt4HyBQEAAAZ7djgL9voc//wKU2bVDvgGiPKy3TPN78qS31/xx63bd3+5RuS6m/8mNGaPnNaUvsCTiIAAHAHnzRxwvikdy8ZVqzioiIZmeMhwNaReSQ+dclFKi4qTLr21xdcr4bGXUnvDziBAAAg49nxuEaWlam8dFjSNXL8flWPH6toNHbkFkJJlpGMJQ0vL0upv2AoqIvm9X9NQiL4UMZQ4b0GIKNZkrojUd1x64Lj9/ona2pdrSK9vq+3jDS1bmJKdS1JxQXFKdUAhhoBAEDGs21b4VD/V+b359L5806YX8eyLBUVFKRcOz8/nLZ7+P1+/4DnLgAGigAAIOPlhUJa9Mpraah0ZFD1Hf0xlpTjt7SjKfXv7zdu3pq2yfuK8vK1r2V/mqoBfSMAAMh4fr9Pbyxfobb2jpTqrFz9rvLzwsd/90mKxm0tXlqfUl1jpN1796VUo6e439LhFF8r0B8CAABXaNnfqu07GpPePxKJ6ulFi0/8CkBSfjiUUm/7W1sVt9O3ImXQ8iknJ7XrHYD+EAAAuIIlaeOWbUkPtAcOHtTW9xv6fOyVpfV6c/mKpHu778FHkt4XcAoBAIBrPPHs81r86hsD3m/vvhbdcse/nfRx2xg99fsXZScRLtas36QNf9k64P0ApxEAALjK04te0h+WvJ7w9vsPtOrhx3/b73a7du/VbXd/X/F4POHajc27df+v/jfh7YFMQgAA4CqtBw/pmUUv6elFL/U7WHd1des///vXWrF6bb91bdvW9p1NuvfBR/q9oM8Y6U9vv6P7Hvof7T/QOqD+gUzBcsAAXGd/60E9/szv1bx7j846Y6ZGVYxQcWGhLEvq6o6o5cABtexv1WPP/E679wzs6vxlK1ZpxbtrdcsXPqvCgnyNGjFcgUBAktTR2amGxiat2/QXPb/41cF4acCQIQAAcK1X65fr1frlKsgPq6ykRJLU0dWllv2tSX2ff0w0GtOPHnhYlmVpRHmpwqGQjDFqPXRYhw63yZh0TfkDOIcAAMD12to71dbemfa6xhjt3tuS9rpAJuAaAGSFgazhDmQ6pgHGUCAAwPV8Pks5AU5mIXsYSX4fEwFhcBEA4Hp+vz+ltdyBTOP3+RQKpr74EXAqBAC4XjAQ0ITRo+X383ZGdphSNzEtqx8Cp8InJrJCXU2Vxo6qcLoNIC0+ftEFnNXCoCMAICuUl5ZoDAEAWSAvL6xRI4dzYSsGHQEAWeP6q69U3cQqp9sAUnLD1VdqeFmp023AAwgAyBoFeWF97MIPO90GkLRpk2p01qyZTrcBjyAAIKucMX2qbrnuGk6fwnWqJozTgmuvUo6f2/8wNAgAyCqhYFBnzZqhaz59uYoKC5xuB+ifJVVXjtcXr/6MRpSXOd0NPITZU5B1gsGgLr3ofE2snKCfP/KY9rbsH9ASr15nLMlyYKp70+ukjRM9DCnLUn5+WCXFxfrW1xYqFAw43RE8hgCArDWlbqLu/c6d+t1Lr+hPb6/Wjl271B2JJD2wJDsw9hzY3DKoDUYI6Ktm70G/r8csk9jfsOf2mW7sqArVTqzSObNnafrUSU63A48iACCrWZaly+ZfqLkfmKU9+/arraMjqVXieo4pA726IJV9h1rvsTOd/Zo+6iUzVvfV02D2nW6hYFBlJcM0vLyU2f7gKAIAPKG8rFTl3FoFAMdxESAAAB5EAAAAwIMIAAAAeBABAAAADyIAAADgQQQAAAA8iAAAAIAHEQAAAPAgAgAAAB7ETIDwhFg8ro6OTnV2deng4cOKRqJJ1zLGqK6mWoHc3DR2CABDiwCArNbW3qFfPv6UdjTu0qHDberqjsgYWyaFBWOMjPLzwmrviiS1roAzLCU2836i27mfJUtmiF+rMUaB3BxNra3W3DNnafYZ0xVkPQA4hACArFW/fKWW1C/T6nUb0167uzuS9prwhmgkouWr1mjx63/SrJnTNaW6Up/7zCdlWZm8hBGyEQEAWac7EtGmLdt070OPyKRyqA8MAktHzj6UFBZqy5b3tXb9JklGf/+JjysYDDjdHjyEiwCRVWxjtGHzVn3nxz9j8EfG8/ukcCig5195Td+97+e8ZzGkCADIKq8ve0vfu+8Bp9sAEuaTJWOklavX6annXnC6HXgIAQBZo6l5t5594WWOouA6PkmhcEgPPf6k2jo6nG4HHkEAQNZ49LfPaeeuZqfbAJLik1RYUKQF3/hXHW5rd7odeAABAFlhZ1OzGhn84XI+Sbv3HVDLgVanW4EHEADgekZSw85G7dm33+lWgJQV5Yf19uq1TrcBDyAAwPWi0ah2NO9WPB53uhUgdT6fHvnN0y6aZApuRQCA60WjUe3l6B9ZwpLU0dmlSDTmdCvIcgQAuJ4xkuHoH1ni2HyAQz1NMbyHAIAswTSqADAQTAUMwJWMjGK2ZNlSKBxQOBSSJHV3d6s7GlE0ZhTwJxcMjx1750gK5uXJ7/fLtm1Fot2KRKI6Mpkv4G4EAACuVFZSotNPm6JJ1VWaO/sMBQJH5tGPxmJq2LlLS5f9WU3Ne/XOmnXy+/0J1zWSpk6pU+XoUbr4/A+pvKxUfp9PxhhFYzHVv7VSq9Zt1OrNW9TeekjpXsOHE/8YKgQAAK5z0bxzNX1SjT545hknPBbIzVVN1XjVVI2XJP3oFw/rzeUr5ff1/41nbm6uRo0crru+crN8vUZ2y7IUDAQ07+w5mnf2HK3ZsEmLXlmqt1e9m9aV/AgAGCpcAwDANWxJZ591pi67aF6fg39fFn7hc7p8/oX9bhcKBjR+dIV+eNftJwz+fZk+ZZIWXn+NaqsmJNQHkGkIAABcwZY0qrxcl1xwnkaUlye8X06OXx+ff74qRo445ZX1dROr9b07vz6gnsKhkL5y43XyxbgLBe5DAACQ8WxJso2u/rvLVVtdOeD9S4qLdOetC2TJUu/pdYykQCCoW2+4NqnehpeVas7c2UntCziJAAAgox0/ZvdJEyvHJ12nrKREw4qK1PMOe/voE1x8/rkqyM9LuvZN116l5j37kt4fcAIBAEDGs+NxjauoUFnJsKRr+P0+Ta6dqEgkKqMjg79lJGNJY0ePSqm/QG6u5p8/N6Uax/ChjKHCew1ARrMkdXVHdPvCL6V8tf202hpFe31fbxlp0sSqlOpKUjiYn3INYCgRAAC4Qk5O4vfyn8yF886WJR3/kY7e3hcMpFw7Ly+Utlv4cgOBhO5EAFJBAACQ8cKhoH7zuxdlm9SG2Eg0Jp/PdzwAGEvy+y2t37wl5R7XrN+UttkBC4IhNe/em6ZqQN8IAAAynt/n0+r1m9Te3pFSnVXvrlU4FDz+u09SLG5r1dr1KdW1jdH+A60p1egplmMpEoumrR7QFwIAAFfY17Jf7+/YmfT+3ZGInnnx5ROO0i1JuTm5KfW2/0Cr4nbvGwyTF5IvrbMLAn0hAABwBUvSO2vWKx5PbqA90HpQ7zf0HSBeeb1eS95YlnRvP/zZQ0nvCziFAADANX6/eIle+ONrA96vqXm3Fn7z7pM+bozRMy8sVjQ68NPu9W+9o23bdwx4P8BpBAAArvLoU8/qiWefT3j7PXtb9NOHH+13u+Y9e3XtwtsUi8USrv1ew079168fT3h7IJMQAAC4im3bevGPS/XTXz7a72Dd3tGpf7/v59ry3vaEakdjMd15z4/VsLPplNsZc+RsxA9+9pA6OjsT7h3IJCwHDMB12js6tbR+uQ4dOqzJtRM1uaZaFcPLZVmW2to71NDUpKbmPXr59XodOHBwQLW3bd+h27/7A33qkvkqGVasuupK5eeFZSQdPHhIq9dv1Hs7dmrZ26sG58UBQ4QAAMC1Vq3doFVrNygvHFJxUaGkI7MGHjx0WHYKV+XHYnE9+dwiWZal0mHFCgYDMsbocHuH2ts7ZFKcjwDIBAQAAK7X0dmljs6utNc1xqgljff3A5mEawCQFSwf90wjezAHAIYCAQCu5/f5FAimNpELkEksSTl+TtBicBEA4Ho5Of6UlokFMk0wGFQ4GOx/QyAFBAC4Xm5urkaPHJmW1eKATDC5plqhEAEAg4sAgKwwqaZa40aPcroNIC0u++gFKioscLoNZDkCALJC6bBijRld4XQbQMqKigo1vKyUCwEx6AgAyBpfvOpKTamrcboNICU3XnOlyktLnG4DHkAAQNYIh4L65MUfkd/H2xruNHvmafrA6TOcbgMewSclssppk2v1zVtv4vQpXGfq5FrddN01TrcBDyEAIKvk5ORoUk2VvnrjdRpeVup0O0D/LEtnTJ+mL119pfLzwk53Aw9hpglkndzcXJ01a6ZGlJfpyede0JoNG9UdGfg6715lLMlyYKp70+ukjRM9DCXLb6li+HBVjR+rm669SoFcJrPC0CIAIGtVjh+rb3z5i1ry5jK9sWyFtjY0qKOrS7KTG1mSHRh7DmxuGdQGIwT0VbP3oN/XY5ZJ7G/Yc/tM5vP5VDVurKZNrtMHZ81QbXWl0y3BowgAOC6aASucWSms4HYy886eow/OOl0dnZ2KRKOs5AZH5fpzFAoFlZcXVo5/ECavMpIy4D0ed74F9IMAgOOmlgb0wCcnyHbww6OocHBOg+aFQ8oLhwalNpBJ8gM+/eJDFdLpDn7tlevT9HJmMsx0luFwCAAAz+EuAAAAPIgAAACABxEAAADwIAIAAAAeRAAAAMCDCAAAAHgQAQAAAA8iAAAA4EEEAAAAPIgAAACABxEAAADwIAIAAAAeRAAAAMCDCAAAAHgQAQAAAA8iAAAA4EEEAAAAPIgAAACABxEAAADwIAIAAAAeRAAAAMCDCAAAAHgQAQAAAA8iAAAA4EEEAAAAPIgAAACABxEAAADwoP8Hxg+/Jc0A2zgAAAAASUVORK5CYII=;" vertex="1" parent="1">
          <mxGeometry x="30" y="73.4" width="29.67" height="26.6" as="geometry" />
        </mxCell>
        <mxCell id="-i5JZtjKqTrFo0PbQZQr-31" style="edgeStyle=orthogonalEdgeStyle;rounded=0;orthogonalLoop=1;jettySize=auto;html=1;exitX=0.98;exitY=0.9;exitDx=0;exitDy=0;exitPerimeter=0;entryX=0.15;entryY=0.151;entryDx=0;entryDy=0;entryPerimeter=0;" edge="1" parent="1" source="-i5JZtjKqTrFo0PbQZQr-19" target="-i5JZtjKqTrFo0PbQZQr-13">
          <mxGeometry relative="1" as="geometry">
            <mxPoint x="330" y="386" as="targetPoint" />
          </mxGeometry>
        </mxCell>
        <mxCell id="-i5JZtjKqTrFo0PbQZQr-19" value="" style="verticalLabelPosition=bottom;html=1;verticalAlign=top;align=center;strokeColor=none;fillColor=#00BEF2;shape=mxgraph.azure.express_route;pointerEvents=1;" vertex="1" parent="1">
          <mxGeometry x="190" y="359" width="50" height="30" as="geometry" />
        </mxCell>
        <mxCell id="-i5JZtjKqTrFo0PbQZQr-22" style="edgeStyle=orthogonalEdgeStyle;rounded=0;orthogonalLoop=1;jettySize=auto;html=1;exitX=0.5;exitY=1;exitDx=0;exitDy=0;entryX=0.5;entryY=0;entryDx=0;entryDy=0;" edge="1" parent="1" source="-i5JZtjKqTrFo0PbQZQr-20" target="-i5JZtjKqTrFo0PbQZQr-21">
          <mxGeometry relative="1" as="geometry" />
        </mxCell>
        <mxCell id="-i5JZtjKqTrFo0PbQZQr-20" value="Legacy System" style="rounded=1;whiteSpace=wrap;html=1;" vertex="1" parent="1">
          <mxGeometry x="40" y="157" width="100" height="40" as="geometry" />
        </mxCell>
        <mxCell id="-i5JZtjKqTrFo0PbQZQr-24" style="edgeStyle=orthogonalEdgeStyle;rounded=0;orthogonalLoop=1;jettySize=auto;html=1;entryX=0.02;entryY=0.9;entryDx=0;entryDy=0;entryPerimeter=0;exitX=0.5;exitY=1;exitDx=0;exitDy=0;" edge="1" parent="1" source="-i5JZtjKqTrFo0PbQZQr-21" target="-i5JZtjKqTrFo0PbQZQr-19">
          <mxGeometry relative="1" as="geometry" />
        </mxCell>
        <mxCell id="-i5JZtjKqTrFo0PbQZQr-21" value="Initiator" style="rounded=1;whiteSpace=wrap;html=1;" vertex="1" parent="1">
          <mxGeometry x="40" y="250" width="100" height="40" as="geometry" />
        </mxCell>
        <mxCell id="-i5JZtjKqTrFo0PbQZQr-25" value="Azure Subscription" style="text;html=1;align=center;verticalAlign=middle;resizable=0;points=[];autosize=1;strokeColor=none;fillColor=none;" vertex="1" parent="1">
          <mxGeometry x="316" y="75" width="120" height="30" as="geometry" />
        </mxCell>
        <mxCell id="-i5JZtjKqTrFo0PbQZQr-28" value="Subnet Function APP" style="points=[[0,0],[0.25,0],[0.5,0],[0.75,0],[1,0],[1,0.25],[1,0.5],[1,0.75],[1,1],[0.75,1],[0.5,1],[0.25,1],[0,1],[0,0.75],[0,0.5],[0,0.25]];outlineConnect=0;gradientColor=none;html=1;whiteSpace=wrap;fontSize=12;fontStyle=0;container=1;pointerEvents=0;collapsible=0;recursiveResize=0;shape=mxgraph.aws4.group;grIcon=mxgraph.aws4.group_security_group;grStroke=0;strokeColor=#147EBA;fillColor=#E6F2F8;verticalAlign=top;align=left;spacingLeft=30;fontColor=#147EBA;labelBorderColor=none;strokeWidth=1;perimeterSpacing=0;" vertex="1" parent="1">
          <mxGeometry x="339" y="279" width="130" height="80" as="geometry" />
        </mxCell>
        <mxCell id="-i5JZtjKqTrFo0PbQZQr-29" value="Gateway Subnet" style="points=[[0,0],[0.25,0],[0.5,0],[0.75,0],[1,0],[1,0.25],[1,0.5],[1,0.75],[1,1],[0.75,1],[0.5,1],[0.25,1],[0,1],[0,0.75],[0,0.5],[0,0.25]];outlineConnect=0;gradientColor=none;html=1;whiteSpace=wrap;fontSize=12;fontStyle=0;container=1;pointerEvents=0;collapsible=0;recursiveResize=0;shape=mxgraph.aws4.group;grIcon=mxgraph.aws4.group_security_group;grStroke=0;strokeColor=#147EBA;fillColor=#E6F2F8;verticalAlign=top;align=left;spacingLeft=30;fontColor=#147EBA;dashed=0;" vertex="1" parent="1">
          <mxGeometry x="339" y="170" width="130" height="80" as="geometry" />
        </mxCell>
        <mxCell id="-i5JZtjKqTrFo0PbQZQr-30" value="Subnet Azure SQL" style="points=[[0,0],[0.25,0],[0.5,0],[0.75,0],[1,0],[1,0.25],[1,0.5],[1,0.75],[1,1],[0.75,1],[0.5,1],[0.25,1],[0,1],[0,0.75],[0,0.5],[0,0.25]];outlineConnect=0;gradientColor=none;html=1;whiteSpace=wrap;fontSize=12;fontStyle=0;container=1;pointerEvents=0;collapsible=0;recursiveResize=0;shape=mxgraph.aws4.group;grIcon=mxgraph.aws4.group_security_group;grStroke=0;strokeColor=#147EBA;fillColor=#E6F2F8;verticalAlign=top;align=left;spacingLeft=30;fontColor=#147EBA;dashed=0;" vertex="1" parent="1">
          <mxGeometry x="342" y="506" width="130" height="80" as="geometry" />
        </mxCell>
        <mxCell id="-i5JZtjKqTrFo0PbQZQr-32" value="Subnet Event Hub" style="points=[[0,0],[0.25,0],[0.5,0],[0.75,0],[1,0],[1,0.25],[1,0.5],[1,0.75],[1,1],[0.75,1],[0.5,1],[0.25,1],[0,1],[0,0.75],[0,0.5],[0,0.25]];outlineConnect=0;gradientColor=none;html=1;whiteSpace=wrap;fontSize=12;fontStyle=0;container=1;pointerEvents=0;collapsible=0;recursiveResize=0;shape=mxgraph.aws4.group;grIcon=mxgraph.aws4.group_security_group;grStroke=0;strokeColor=#147EBA;fillColor=#E6F2F8;verticalAlign=top;align=left;spacingLeft=30;fontColor=#147EBA;dashed=0;" vertex="1" parent="1">
          <mxGeometry x="341" y="395" width="130" height="80" as="geometry" />
        </mxCell>
        <mxCell id="-i5JZtjKqTrFo0PbQZQr-46" value="" style="rounded=0;whiteSpace=wrap;html=1;" vertex="1" parent="1">
          <mxGeometry x="1090" y="96.6" width="120" height="618" as="geometry" />
        </mxCell>
        <mxCell id="-i5JZtjKqTrFo0PbQZQr-47" value="" style="shape=image;verticalLabelPosition=bottom;labelBackgroundColor=default;verticalAlign=top;aspect=fixed;imageAspect=0;image=data:image/png,iVBORw0KGgoAAAANSUhEUgAAAgAAAAHLCAYAAAC+vyAQAAAgAElEQVR4nOzdd5hcdfn38feZtrO91/ROQhIgEOkdAUEQUUT5gVhAqqgodhHksaHSFURAiSgISJHeEpJAEhIIkN5I2WR7L7M79Zznj51NJn37zNn5vK5rJe7unL13dubc97cblmVZiIiISFJxxDsAERERGXoqAERERJKQCgAREZEkpAJAREQkCakAEBERSUIqAERERJKQCgAREZEkpAJAREQkCakAEBERSUIqAERERJKQCgAREZEkpAJAREQkCakAEBERSUIqAERERJKQCgAREZEkpAJAREQkCakAEBERSUIqAERERJKQCgAREZEkpAJAREQkCakAEBERSUIqAERERJKQCgAREZEkpAJAREQkCakAEBERSUIqAERERJKQCgAREZEkpAJAREQkCakAEBERSUIqAERERJKQCgAREZEkpAJAREQkCakAEBERSUIqAERERJKQCgAREZEkpAJAREQkCakAEBERSUIqAERERJKQCgAREZEkpAJAREQkCakAEBERSUIqAERERJKQCgAREZEkpAJAREQkCakAEBERSUIqAERERJKQCgAREZEkpAJAREQkCakAEBERSUIqAERERJKQCgAREZEk5Ip3ACJiD6YFt71bwy0v7ej6P06DrMIU7j9nFBdPysLpMOIdooj0gnoARKRH5lf4eGhTK0QssICwSWtriDcrfFT6QvEOT0R6ybAsy4p3ECKS2Ha0hzh5zids3toe81kLDHBmuPnC0YXcf1IJuSlODHUEiNiChgBE5ICW1XRy8pNb6Kzy7/EVAyyLSHuIJ5fU4nLAiSWpXD09Ly5xikjvqAAQkX1qDkR4YWsb933QQOeOjq5u/710FQH4wvx7SS1vF3rJcjv5/IRMUl2JMcIYsSxeLffx1rZ2Ut0GhtOx719F+s1hQDhkkeFx8LVDshmR4Y53SHIAKgBEZC/+sMk/1jbzvdcrod4PHKhfP1oEtIWpbG/n6kgFXkcZF0zMIRHmBToNg/uX1fPS0rp4h5I80l0ckedRAZDgVACIyG5CEYvblzfwm7cqoTnYw0dFiwAL2sp9fP3NSur8Jt+akXfA0mGohEImBy5iZEBFIKxuloSnAkBEdmoPmdy+vIE/LK4h0NSd/HuaOA3AAhNat/n4BTVUhkyumpxNWZxbgp4UZ1x/ftJxGXgTZAhI9k9/IREBoCNksr0txMtb2/D3Ovl3i36/BXV1AZ5e38LGHvciyLCiHoCEpx4AESEYsbjrowbmVvr44IN6+tddHh0OaA+x5sNGvuEwePnMMibneuPWCa/FziJ7UwEgkuQCYZMHVjVx69wqgs1BdiX/fhYB0Sbg5o8aObYpyOrLJlKarluOSKLQEIBIElte08mZb1Xy49crCDYGunb5w2BgJsxFrxOxaNrSzulPbuaN7b4BuK6IDAQVACJJqDNk8k6ljxuW1LJgcR3++sAgjtl2DQmsXdfKjxZUs6YxMFg/SER6QQWASJKxLJi7o52LXq3g3cW10BGOfmWgWv770lUEfLiikbOe3kJle0hzxETiTAWASBIJmRYvb2nm2gXVVG9oAXMof7oBFuzY0s6sJzYzf4eGA0TiSQWASJIIRCwWVnZw5fxayte37pH8h2p+ftecgJqNrXxrQQ3vVHYM0c8VkT2pABBJEq9ta+fKNyqoWt8Ss03bYHb7709XT8DGjxq4+PltrKj3E9E6PZEhpwJAJAk8v7mVm96pZvP62G7/eG6N21V4VG71cdZz5Tz3SVvXAgQRGTJalCsyjAVNi2c2tnDjolqqNrYmSPKPYUH1hlauccL6phDfnplDprbtFRkSKgBEhrHfLavn1tcqMDvD7GpiJ0jyj1G3vo2fbWpnfX0Hj35mVLzDEUkKKgBEhqGOsMktS2r5w6I6aA/FfCXxkj8ApgWmxZwPGukMWzx45ghy1BMgMqg0B0BkmOkImfx7fQt/WFAD9f7oZ+Mx2a8PWkM89V49v1/eQG1H6ODfLyJ9pgJAZBhpDUT43Qd1XPX0Nmjp64l+cRY0+f3z27lqXjUhUzMDRQaLhgBEhok3t7fznfnVbKzswPSFsF3ij2GZFs8ta+DLDrj3pFLKdIiQyIBTD4DIMGAB83d0sGZbO6EWeyf/nTrDLNjYSnlb8ODfKyK9pgJAxOb8EYvvvV3J/3u3FlrCEBom3eYW1O/o5LLXKrhnRSOd4SHdt1hk2FO/moiNBcImf1vdzD1za8AfiXc4g2LT6ha+u72DYNjimhm5pLvVbhEZCCoARGwqbFpcN7+aRxfWYg3T5N/Nagty0/+24TdNbpiZT5ZHRYBIf+ldJGJDjf4IP1pUy8Pv1RPeeZzvMGYBHRF+Mb+a335QT3tQwwEi/aUCQMRm2oImj65v4Y5XdsQs9RvuopMaa/z8bmE1d6xoxBdSESDSHxoCELER04JvvlPNU29UwvDu9d+/+gC/fLEcj2Xx3SMK8LqGwYoHkThQASBiEx/WdvLEJ208/25dkib/7kRvQWeEn7xbS1vE4odH5JOtbYNFek0FgIgNfFDTybcW17J8US3DYo1/vxhgWVDZwW8W1pDidnDZxCyyU5zkpDhxJPvTI9JDmgMgkuBW1Qf4+twqli+ti3coCSSa5ev9/PK1Co59oZxvzqukol3nB4j0lHoARBLYijo/571VSfm6FghbqPUfK9oT0BykpjXEcx6DTI+D22YXMibLs9e3isju1AMgkqA+rvPz2UU1lK9ohM4kWOrXJ9HMblrgN/nnknp+sKiO2o4wVuyGiNYw2R1RZACpB0AkAa2o6+Syt6rYvqY52vIHNWP3J2ZyYEuQp9+vI2JY3HFMEWOzu3oCIsr/IntRASCSIIIRi3cqO5hX18krm9tZubY5ZntfJf+DMwALWkM8u6yedKeDPx1XRFGai8I0rRIQ2ZMKAJEEELG6jvP93Os7CG/vgEDsJjdK/j23qwh47J0aSlKd/OaYIpxGnJ9DwwKHA7dhYDGYGxh1/Z5h0wRTrxs5MBUAIgng8fXN3PBuLeEtvpj+at3A+yZaBHSE+fOyOuoDJk9XdsQ3JMvgrNNLuOeoQmo7IoP3lzUALE54eitsj/PvLAlPBYBIHFkWtAQjLKzqpKnB3zWZTQZAV4rtbA3xdoWP9tb4Lw88rsDLhGwPpWmD1wNgAIGIBV4NecjBqQAQiaMGf5hfLK3jwaV10BjoOvRGLf+B4wuzdUMrROJ/bsAorwunAZmDfJKhETK1vkt6RAWASJw0+sPcvryBBxbVQnMwmvxlQFnGHvMp4mfbEJ3a2Bk2IaQXkxycCgCROGj0R/jJ4lr+triu60S/nfdrtf6HK+8QTUQ0DAPthyw9oQJAZIgtrurgurlVfLi1DVpDSv4iEhcqAESGiGXBppYgVyyuZc3HjTFfsVvit8Awupa2mWC/+EUEVACIDAnLgnp/mGOe3Urj2paYr9gpeVpd4TodeIu8hC2LcE1nzMoFO/0uIqICQGQIrGrwc+prFTRuaI1+xobJ0jAg280fzx7BzAIv65oD3PBmFVR3YMvfRyTJqQAQGWSr6v1cPK+Kho8b6UqUNkyWBlCYwk3HFPL9WQUAfKo4leqOCI+sbqa6sgPaQtjydxNJUlotKjKIdrSH+NxL21m7rD7eofSDBeku7j1nFLefULLzs1kpTn45u5A3LxjNcUcVQIqja16AiNiCCgCRQfJuZQeHPbmFzZvasGfL3wIsHDke/vrFMXx1YuZuXzUAj9Pg0Hwvc44t4uij8kifkKEiQMQmNAQgMgg+rvPzpXdraFzXevBvTjjRBG4YkOvhRyeX8M2puTgPUL9MyPHwz5PKWFzdweWdlVDVocNoRBKcCgCRAfb6tnYuf2UH1dt98Q6lD2KSf4aLez87im8ekn3A5N9tUm4Ko7I8eFxOLnljO9a2Tu1uKJLANAQgMkAiFlzxRgVn/a+c6s3tNtyOtTv5w8jJmfzpc6O5dFIWqa6e3ya8ToMLx2fy95NLyJ6YqTuMSAJTD4DIAGgPmdy7opGHF9aCPxLvcPqge42/QcHYTG47rpivTc3p05U8ToPLD83H43JyZUcYX3Un2PEpERnmVACIDIAfLqjm/jeqbHqcbzT5F3oZWZzKM58u48jitH5f9eLJOTgdBhe/WQlbfRoOEEkw6qAT6YfWYIQVdX7e3G1HPLuw2JmVnQZTSlM5a2QaU/JSBuQsGYcBh+V7OWNUOmS47LcIQmSYUw+ASB/5wxb/WNvMLfOraaoNxDucXrJ2/dftYNwh2fz9tDIOyU0hy+McsJ8yJS+Fx04r4z8j07jpue0EOyPqCRBJECoARPqgI2Ryz4pGfrWohs4dNt4K12NQNi2Lh08q45iSNAbjxNriNBfXH1bA5g6TBxdW09kYVBEgkgA0BCDSS50hkznrmvn5gho6t3fEO5y+MQCvg5Jp2Tx0XCmnjkwflOTfzWHAnccVceWJxbatlUSGG/UAiPRCZ9jkL2ua+PGrlUQa/dHP2iyjGRbkpXDNMQXceFgBY7PcQ/NjgV/PLmR0qpMfPL0NwpZ6AkTiSAWASA+FTIvffNzIn9+pIdzgP/gDEpETKE3nJ7PzuG5GPiMyhib5d8twO/jmtFzqzje5e141/iYNB4jEiwoAkYMImRb1nWGe2dzGfQtraK6M7fa3UevfCZ5sF/edWsJlU3PxuuITe06Kk19/qgh/2OIvb1YS6tDEQJF4UAEgchBvlPs4d1E1rGuBgBnzFRslf8OCEi9/OWMk35iWO6jj/T3hNOCu44s5JMvNNc9th/aQigCRIaZJgCIHMLe8naverYGVTeA3Y5KUzZJ/qZffn1DC/x2SE/fkH+vSQ3L4xRmlUJYafUpVBYgMFfUAiOyDZcHiKh9febua2vXNe2xlm0AZ9GAcQL6XO08t48ppuXh7cqrPEMpwO7j12CIKUp389eNG1mxshaCKAJGhoB4AkT2UtwZ5dnML58+rpnZd8x6H+iRWAj0gAwonZvLKRWO4bkYe6e7EfLsbwLUz85l30Tg+c1xR1/iAegJEBp16AERiVPvC3PpxI/8p9+Fb2Qg7h/xtlPgBDBhzaCZ3HVfKWWOyEqrbf19cDihKc/Hb2QUEQyZvLarr6oax2/MuYiMqAESi6jsjXLWklv8tq4fWoD2TvwEYFqPHZPLUWaOZXZwa74h65bDCVP796RGc4QuzckVT9HwFGz3/IjaSmH2CIkNsQ1OAc57Zyv/eqYHGQNcmNYCtkk/0ON/DZuTw+AWjmVXkjXdEfVKU5uKZc0bxmZOKu7oGYg8tEpEBox4ASXrvVnXw4wXVLFvVBBH7jven57j5v+ML+NyoDI4r7f9xvvE0McfDnccUEeqMsGBDC8GmIF1FgI3+JiIJTj0AktSqfGGueaOCd5Y32jf5O7rivv6UIv560gjOGZcd54AGxpS8FN74wlg+c2Q+pLm0TFBkgKkAkKTlj1g89UkrG+v80QlnEB1Ej2dYvWMAlsGoyel8ekRGvKMZFBePzaR4XEbM3UpFgMhA0BCAJCULeHBVEze9VE6wOYStkn4sA4rHZ/LseaM5ssheE/566iuTsxmT6earLoNP1rZA0ETDASL9px4ASToh0+KHi2v58es77J38nQazPlXAM58dxRGF9pzw11NHl6Ty3zNHMmNaNni6/17qCRDpDxUAklSa/BH+sbaZP75dTWddAHsmfwvcMHlSFn87vpjjytJwJPpC/35yGgaHFXq564Riph+aq+EAkQGgIQBJKvetbebm/26LdiPbMWlaYBjMmJTN618aR0lacr2FTx2dySMeJ18xLT75uJHoJAjs+bcUiS/1AEhSsICvza/m969URJO/3UTXwhsGp8zO51+fHZV0yR+60vzMwlSeOGMEhx6RD3E60lhkOFABIMOeL2Ry+6omnnq7Gl9zMN7h9EG0mzvFwcwp2dx5SikzCob3mP+BpDgNZhWl8ttPFXLS7ELSi7w7l0KKSM8lXxNCkkrItLhzRSO/+M/WeIfSBzFJzWVw5Ixcll40HocavTgMOHd8FqePzuDfG1q4/s1KAtX+PfZyEJEDUQEgw9rX5lfzzOK6eIfRSzFJzLAg18M3ji7kp0cUKvnHcBiQ5nbw1UNy8IcjzK/w8fSSBvDbcYhHZOipAJBhpz0YobwtxGs7fDyxpA7TVt3+eyb/FL5zQjE/OSKf4nR3/MJKYB6nwRWH5vH58dn4QhavfNQEvki8wxJJeCoAZFhpDUb4+9pmntrazrvL6iFopy5ha7d/e/JS+MYxRfy/o4tId2u6zoF4XQ5GZDq4+6RSvF4nzy6sg5CpVYIiB6ACQIaNYMTinhVN/GJuJbSGbJr8LTDAlevheyeV8p0ZeWQo+ffYpNwUbj+6iGDY5KX36sFvp9eAyNBSASDDQsS0uOfjBn61oArqA9HP2mXAPCb5e5xQkspVM/L47sxcStL1Fu2tiTkp3H1CKaGQyevvN9l02afI4NPdRWyvI2TyyJpmfvFGBaHG7vF+uyT/KAPIdHP6YXl8Y3I2543LItOjln9fTcj2cP8pZdyU4uSZxfUQ0HCAyJ5UAIit+UImd3/UwC8XVBNuDEZv8vZL/vljM7h8Vj5XTspmQrYHt9Nmv0MCGp+Twm+OLmJifir3L6yhrcYf75BEEooKALEl04LOsMlTG1v52bJ62Hlzt1nidFiQ4eYHn8rnh0cU4tA6vwE1Jc/L7z/lpaY9xKOvVaoXQCSG+hjFlhwGvL6tjT+tbIQ6u435RxmAw+BTh+Rw1qhMJf9B9PXJWTA9G9SzIrKTCgCxnZZAhIdWNXH5/BpWfdQAvlC8Q+o9A3AbzD4slwdOLubwwtR4RzSsnTwyg9XnjiJ9ZJrODxCJUgEgttLoD3Pz0jqufXUHbRtbYOd+Lza6qRuAy8EJR+Xz11NKObwwlWF+mm9CmJrrZdmXxzFpUqatXi4ig0UFgNhGlS/EXR83cs/iWkJ1fti5ustGd3MDSHFw9Mxs7j6umCOK0+wUva0ZBkzN9/LwmSMoPTTHVi8bkcGgAkBs464VTfx6XhU0BGImc9noLh4N9fjDcnjwtBHMKlK3fzycOCKdVz8zEkamRU8R1MxASU4qACThBSMWVyyo5t6F1ZhNQfsmf7eDn31hNM+eM5rpSXycbyKYlp/C6v+bQOqhuewaf1EhIMlFBYAktC0tQS5ZWM0/F9XSaeOWf3qWm8tPK+GnRxRQmOrSqX5x5nIYTMtL4b8nFHP87HxIdcY7JJEhp30AJCG1h0x8IZMfLK3jmYU1EIjYM/kDeB189phC/nFaWbwjkT18ZlwmU/JSODvFSflHjQTaQtju9SXSR+oBkIRjWnDz0jpO+u8WnnmzCvyRmB3+bHZzNuBn547kidOV/BPV+GwPG84bzUtfn4Qj3UXXi03DATL8qQCQhNIaNPnLyib+srCGDetaweq+Edss8QNGjpurPjOC70zPi3co0gMnlKZx+4VjyBrRPTlTRYAMbxoCkIQRiJj8a0Mz3362PGZzH/slfgAyXZx3dD73nFiCR7vP2UKK0+D7M/IwIxY/fbWCcGOAriJAfz8ZnlQASMK4bWl91zI/uyf/slQeOKOU88dlKfnb0NXTchib4eZLz2yDej+7egL0t5ThRUMAEncW8Jtl9fx6QTU0B7HlWD+AYTH+qDwePqOUq6bnUZqu+tqOMj1OLpqYxa9OLcE5LoNdSzY0JCDDi+5QElehiMUjqxv55cvbwRfBfok/mhQMA9fUHOafM4qRGe74hiQD4qdHFXBMcSoXv7KDpm0+iJjROSl2e42K7Jt6ACRuwqbFDW9XcfWLFYR9kYM/IOHsSv7HH1PAhgvHUJau5D9cOA2DT4/O4KXzRjN+Rg54uvcKUE+ADA8qACQuLKDSF2bhjo5ot7/d7Er+jjQnJ5SlMS7Low1+hqGZhV5OLEuDrNjiTkWA2J+GACQuPqrzc95z26jY1B7vUHop5sZvGDjyPTxw7ii+OCErfiHJoEp3O7j/+GJyPA7ufrsamgJ0DQNoOEDsTQWADLn3azq5ZlENFZvabNaQignWbUBJGj88Mo+vTc3Brab/sJbqcvCTw/JxAX9aUAMNflQEiN2pAJAhY1rQ6A9z4Uvb2b6+1cbJ30Hu5CyeOKWUU0elK/knieI0F7ceVUhNwOSxZXVQpyJA7E1zAGTIfFjXyelPbLF38vcYlE7O4tnTyzhzTIaSf5JJdzu4++hCrj+hBPJTsNkLWWQ36gGQQRex4IO6Tn72bg0r1rbEO5xeirnBOyB1ciYPHF/MySPT4xeSxFVeqoufzMjFY1r8dU0zHTvasYIW2HEhiyQ19QDIoAqZFk+ub+bkOZt4c2l9vMPpJWvXf10GTM7imZNHcN54TfhLdmUZbn57TBFLLxzD8bPyyC3xgqHeALEXFQAyaBo6Izy4qomv/m87/oZAV1eAHbkd5B6Sybtnj+K0kekY6vUXwOM0mJrv5Y6jS/jxKWWUjsvUVACxFQ0ByKD4oNbPPasambOhNbqfOtjr7miBAa48D0dMzOLGGXkcW5qm5C+7MYDZJalMy08hxWHyc1+I9roAmPGOTOTgVADIgLKAdY0BrlxYzYfv1bIr6dsscxrgyE/hj2eN4PIpOeR4nQd/jCStdLeDb03No8Dt5MqXd9BZqyJAEp+GAGRArWsM8NlXd/Dhhw3YMvkbQKoDz8g0bj2tlK8douQvPZPqcvCFiTn88YwR5IxJt9XLXpKTegBkQFS2h3m/tpNbVjayeVUThG14hKoBeJ1Mn57Fl8Zl8p2ZeWR6lPyl57wug69Py8EwLK4NVEGVf+dcUpcmCUqCUQEg/WIB7UGTW5bV8bfl9VDrj1k5Z6PkD+A0OPPIHG4/toRx2R4lf+mTVJeDrx6Si9th8NN5VdRt7wTAp/wvCUYFgPRLsz/Mrcvq+dt7tdAUtGfyN8BwOzjiyFxuP7aEwwpT4x2R2Fy628FXJucwJsPDpfOrqV3dzBZbHnolw5nmAEifNfkj3L68gXvfqbF18ifDxdnHFDLnpBJmKvnLAEl3O/j0mAweObEIxqYxJdsT75BEdqMeAOk1y4KmQISfLqnhr0sbuo7ztWXyt8Dr4idnlfGzIwpIcznsFL3YxGmjMvjkkolkedTeksSiAkB6LWJZbGgKsLCyA1psmvwBHAajir2cUuwl3a2bswwOj8NgfLaHiKVJAJJYVABIr1jAggofV79Tw8Y1LRDqXuxss+RvQNb4DF64YIzG/GVQOaMHRjm1i5QkGBUA0mP+sMlDq5v54bJaOrd1QNC+yd8zPZv/nKgxfxFJXioApEc6wybPbm3j2y9t7xrz38lmyd9pUFjm5elTyzhJJ/qJSBJTASA9cv/qZr7/WgW0hKKfsVnijxo5PoMnPzuKY0vT4h2KiEhcqQCQg3pgVRPfn1dp00N9dhkxM4f7ji1S8hcRQQWAHMSrW9u49vlttm/5O8ams+D8MYzPcsc7FBGRhKACQPZpY3OQz71WwbqNLVhtIeyZ+LuWXY0+NIdFXxhLSbpe7iJDxdJxiAlPd0TZy9wdPn7ybg1rP26MHupj0+RvGMw4PJe7TyhhRIZa/iJDxmEwPscb7yjkILT7iexkWlDpC3P1W5Us/aARwmC/5G917fDnclAyIYPHPj2CU0dptr/IkIpYvLS9nfaQegESmQoA2anKF2L839azcXVLvEPpA4udWxKmuWFmLh9dOpGZBWqFiAy5zjDfe3wLty2ti3ckcgAaAhAAFlZ08LX5VQSqOuMdSh9EE3+Kk4LR6Vw/M5cTStMoTtPLWyQuTMC0uP29OkKGwc9m5ZPv1fHaiUZ3SOGT5iBXzq1k88rmeIfSB9Hk7zKYNCWLu08o5jNjM+Mbkoh0qfZz56sVZKc6+M60XHJSVAQkEhUASW5zS5CTnthM5Y6OeIfSB9Hk7zYonpzNP88YwaeKtbWvSELxR7jlxR1sawzw4KlluBx2m1c0fGkOQJLqCJk8vq6JI16voHJze8y+/nbR3fKH4mk5PHZqKZ8qTkXnrYgkoLYwf59fw23v19PgD8c7GolSAZCEOkIm/1jXzNdfqaT1/fp4h9MHu1r+o6fm8OgJJZw+OkPJXySR+U1+9Xw5D6xtIWxamDodOe5UACSh8rYQz25rJ9AU2JlL7SMm4Ew3Z47KYHKOx3aLFUWSUsjiuS1tzN3hoyNk2u/2M8yoAEgiFl1j/j94r5Y3F9dBIIL91vkDHgPyPFx2VAG/PbqQsVmeeEckIj30/pI6Ln5uGw+taWJtg189AXFkWJalpz9JVLSFOPGtSrYsrYvu8Af2KgAsSHFSdHgWj8wq4qhiLfUT2VODP0LBnE2wqS3eoeyfYYHXSfbUbBZ9egTT8rVfRzyoByBJbGoO8tUF1WxbXm/f5O91MHFKJi+fMIJzxmUp+YvYlQV0Rmj5uImvL6hmea0d9x+xPxUAw5hlQci0WNsY4Ofv1TL33RpMf/dsf5slf8Ng5vQc/nXGCI4sTrVV9CKyp+g7OGKxdGk9P1hUy8d1/gM/RAacmlDDVMSyeHlLGy9UdPDixlaqdvhs2vIHXAZTDs/nLycU8amStHhHIyIDwgAsiFjMe7+Bi/wRXjxrBJNyU+x2h7ItFQDDkGnBx3V+zl9UC9t90BRgV9K30VvLAFwGhVOymXNSsZK/yLATLQKCETauauIKr4NvH5rLKSPSKdQQ36DTEMAwNH9HO6e/Xgmrm6ApiG2TPzB5Ri5vnDOS2cVK/iI9YVkWROy0sVf0zR40Wbiknkuf3ca3l9bRZrvNyexHJdYw88rWNq5bXEfz2iaIxH7FXsl/1swcTh6TwTWH5jIpNyXeEYnYhmkBAbslz2hPgGkRrA/wn6V1uBwGd8wupChV5wcMFhUAw0TYtPiozs83FtVSvboZQrGrO22U/F0Go4pS+f3JpRye76VAb36RXvG6HMycmMWKxgD47VQIRIsAgPoA/1pcS47L4LLGnlgAACAASURBVBeH52vFzyDRPgDDQNi0WFTVwcnzqmBNc8xkP7BV8jdgzMg03rh0glr9Iv2wvjHAlxZWs2Jp/R6NATuIxmsAOSlcfmwhfzq6kFyvC50jNLBUAAwDP3yvlvsX19Fe0wkRm870N+DQadn87cwRHFuq8X6R/jCtrmO+/7WxhVvfqorOBbKTmCIgy8OUcRn845QSjilLj2tUw40mAdpYIGLx19VNPLCwhvbKDvsmfyxGjs3gztNKlfxFBoDDgEm5Hn44K5+rjy6AXHe8Q+ql6D3MAlqCrF/RxPcX17K+MYCarANHPQA2FbHgzysauOnFHQRbYqt7myV/A7JHpTLvS+M5oig13tGIDDv+iMUfltdz6/+2E7Hd5EDY2RvgMBg9LYeFnx/D6Ey7FTSJST0ANhQxLW5bWsf33qiISf4Gdkz+h87O56nzx3BYoZK/yGDwOg2+d3g+1589AneeHQ/Oit7bTIvyNc1c+NJ2ltdq18CBoB4Am2kLmry8rY3/e66cSJ0f2yX9bk6YMDGLJz47iqOKlfxFBlvEsvjOgmr+PL8a2sPY796xa17A8UcV8NDpZeR5HRSlqTegr9QDYDNbW4L8Y00zkebYDX7sxoIcD/83LZcJ2XZskYjYj9MwuHBCFkdPygYjZsmdbUR7AixYU97BT1c26fyAflIPgE1YFmxvD3L1ghpeeadmj01+7MLqeg9nuLn2+CLuOqUUt9b1iAypj+v9fPnZbazb3GbricMA02bl8cQZXccJO+32KyQAFQA2Ud0RZuJ/tuBb14o9p8F2JX+H18UdF4zm24fna02vSBxYgC9oMvPxT9iytiW6dSDYrwgADAtGZbDiy+OYUeCNdzS2oyEAG1jbEGDyC+X41tsx+Vt0H+dLtoefnjWCa2bmKfmLxIkBZHgcPHJ6GdOPKoCR3Utv7XZvASwDyn0c+8oO3qnwxTsa21EPQAJr7DRp8Ie4Zm4Vb71XH+9w+qB70o4BmV3d/vedWmrHdobIsLSuMcBbO3xc/1Yl1HbGDC3a7106Y3o2z31uDGOzPGpg9JAKgARlWnDNohoefK8eGgIQstv63ZidvErSeOjsMi6emE2GW51OIokkELF4r9rH1+ZWsWVdS8zWwTbLok6DzFHpfHzpBMZlaWVAT+hunIDaQya/XFrH3xfXQXWnzZJ/d5c/kOKgYGImc84ewZeV/EUSUorT4PiydP55WhnTDs0Fl80Sf7eIRdt2Hxe/WM7Dq5vwh+1034wP9QAkmGDE5KlP2rj0kU0xk3PsICZWA8jxcNS0bH40NY8vTMrqWnUkIgnt1a1tXPdODZvXtXQ1PCw7vnEtnCPTuOeUUq6cnoPboYbH/qgASCBbWoJc/XYVb61oItIWjnc4vdTd5d+1xv+GE0r4+VEFZHuceLQ+R8QWghGLba1BfrOigX8uqSfSGLTl3EAckJafwu/OLOOaGXm4NClgn1QAJIhNzUGunlfJWx83QkcEe42/7Ur+rmwP3z65lBtn5jIyU5v8iNhReVuIe1Y18rdl9bRWdNqwCOgKOH1UGj87rpjvHZaP165DG4NIBUACWN8U4EeLa3n+nRoIW9gr+QNY4DLw5nn43KwCHjmphDRXYnW7hcNhNm0tZ0dlJa2t7YQjfd1JycAfDDJ10gQy0tOwenFn3N9f1drH9wzUm/JAr6Se/oydMe3vAb18ucZ+uzVI880OdrkDvcsG84bocbnJysqkMC8XI8HHxcKmxV9XNnDTG9V01vvBdkPq0blIJance3oZnx+fSUGqixT1SO6kAiDOtrQE+eZbFcxbUof9DvTZNdN/zKFZ/PpTxVwyJSehxvvb2n3c/ue/sXHzVrpf6v19yXdNc7Tw7+eGGDIiuE0n1iDs1uiwAgN/0QRlGikYmFiDMFc5Xs+jaZrUN7VQ39jMScccxc9uuJqJ48bEJZaeCEYsHlrdxHXzqqDSpj0BBhipLsZNyuSeY4s5d3xmvINKGCoA4mh9U4Cr5lUxf2UT+LrH/BMoex6UBR6DGdNy+fWxhZw5OjOhqutHn3yGxe9/RFNzS7+Tfk/s9SP281Ts1gJm363+PXsWDIydnzP2ceHePOvdP3Nfz8hg/fV6+NT0+PFdn9v339TYz0/oae9KT2Pb33X2/Xlrt392/w2dKR68Tid//v0tpKcm5qFYbUGTpzc2c/P7DexY3xrtpbSTaLwugynTcnjktDJml6RqG3JUAMRFsz/CtrYQP15Wx6uLaiHY3ZS00QvSsMDtYNbMHB4+dQQzC7wJs/lGW7uPF16fy/9eewvTtF2/pQxzuxV6lkUgFGLapIlccckXmTR+bNziOpiNTX6OfXwLDTs6wXZL7KLPuttgzOQsHj9zJBNzPBSmuuIbVpypABhiDZ1hfvNBA3esaOxa4x+IRF+bCZI9e6Qr+R87O497jy3hyAQ6zrfN52P+oqXMefLZeIci0iMWFlgG2VkZ3H7zD8nLyYl3SPv1UW0nX3llB+tWt8Q7lF7afZnyITNyOb4slVtmFyb1ZGUVAEOo0R/mzyubuPntKqjzs3vSt1EB4DGYOTWbR84YkVDJH+DPjzzG/MVL4x2GSK+ZQGNzM3OfmhPvUA7o7e3tnPpKBWxqi3cofRCzQ2mWmxtOKuEXRxZQkJacPQGJNVV7mFtZH+DlrW3QEmJXwrfZxD8DyEnh8xOzmJiTWJXzK3Pns+yjFfEOQ6RPHEBGairPJ/jQ1aziVL5zaLatblu7xATtC/P61jaWVHfEL5w4UwEwBMKmxeqGAD9eUsuSFU0xY/424wBHiZffnFzItw/LJzvFGe+IdgpHIrz/0Uo6Ov3xDkWkz7wpKdz7yD+pb2yKdyj7leVxcvORhVxyZhkTx2VAit3SiNHVERC2WLe+he8urOGvq5toCQzCsp0EZ7e/nO34QiYbmoN8+c0KlnzYAIHY5G+jEtppkFaQwtPnjeamI4vI9yZO8geoqKympq4h3mGI9Ft6Ria1Cf5azvM6eez0Ml79ynimjs+AxLod9ED03hu0+GRNM1c/W87jm1oI2Wr79f5TATCIWgMRbl1ax+VzK1n1QX3MKVtgq+RvwOhx6bx08Vg+PzEr4bbVtCzYun0H9Q2N8Q5FpN88hsE9j8wZkqWr/WEAE3I8vHThWE45qoCdB4HZRnT41QJag1zzwnZuW1oX76CGlAqAQbKlJcQv36/n7neqef/DBmw74c8ARqXxx1NLOWVUYm6gEQwF2VZZiZngN0yRnrAM2Lxte0LPA4g1LtvDnSeXMHFG90mCdiwEgMYgf5hfzZw1Tfhtt9dB36gAGAQtgQhfX1zDXXOrCDYE9zhf2ybJvzvUghTmfX4MF03KjndE+xUOh2lt9cU7DJEBFQrbZ0z68AIv73xhLGOnRYsAA+xVCHTdl/0NAb7xzDb+ua6JiF1C7wcVAANsdUOAz7+wnflL66AtFPMVmyT+bplujjujhDcvHsdxJWnxjuaALAusiD1aSyIHY1jgdrmxT/LsUpzm4oWzy/jS6WVQ4I35il1+j65WT6Q1xLdeqeTGt6uIDPM5Acm5+HGQVLSHuGlJDfOW1Q/eKSeDzQBXppuzZ+Xx3OkjcCbYeL/I/lh0v+0sug+kGIgWjrXzv12bKA9FqykjLc1udw4Aphekcs8xbjI9Dh5eVAsN3Wcu2OmQMwPq/NzzXh0Tcz18a3ouKQl2uNlAGZ6/VZx84cXtvPJunX2Tf/RWd/1pxTx5ppK/JD4Ti4bWdsKWwaGHTGLKxHHk5eRQ29iEg74fYGcBoUiEitpaykpKOGTSRCaOHQumRX1zMyYBTMIHvU5/WLa7f3QpTnfxh9mFXHVsIeSndHVpAPbpCYhqCvK9Z7bxl5WJuySzv9QDMAA2Ngf5xus7eG9VU3SPbDu+cS1Ss9z8/oIxXDIhk9RhWvGK/VlAJBIhJzuLM048jrNOOZG83Oydx+ualkUgEGDtxk9YsvxjXn/7HTyunt/qauobuOTC8zhq5nSOmDENwzAwDKNrqAmL9nYfby1czMtvzKOpvX3AW1GWAc0tLdguYcbI9Tq59ahCRmS4uGNRHc07fPY7TtiCiN/kR69VsLYlyN0nlJDqsuO9ff9UAPTTuqYA319YwzvLG8G0UzdXLIu0bA/nn1TMtdNy1PKXhNQ9pSwUCnHIpAlceclF+zxK12EYpHq9zJpxKLNmHEp9QyPLV67B7XId8N3ZXVicc8bJXHXZl/f6umF0neKXlZnB58/5NIdPn8pj/32ej9esH/giADun/y7FaS6+Nz2fdIfBPR82sm1rO3RGsNs9MtQY5G/zaziq0MupI9KYlJMS75AGjJp5/dAUiHDpi+W8/E6NTZN/123GcDv5wdllPH5iiZK/JC6rqzd56uSJ/OYnN+4z+e/LzTdez6dPPI6IGcHczyHCFl09B7MPn86PrvtWj647bvRIbrr2CsaOLCMyQEtQ7Z7095ThcXDj4QW88NnRnHREPti1Z7EjzFVzPuGS+dVsaArGO5oBY9O/Rvx9WOfnmMc388H6Vmy1vA/YrX2R5eHeL4/j29Ny4xqRyIF09x5blsV1l1+C09G7W9fXvvwFcrOzcTtdWHsUASZdW0kXF+Txkxuu6dV1vSkp/Pw712JFTLQNxf5NL/By13HFzDoyHxJsF9Eeic4wfX9ZPee/toPNzSE6h8FeASoA+uCjOj/XL6phw9oWCNrtRbArXmeBl68cX8g3p+ZQkOTnYkvisuhq+RsGXH/FZYwaUdrra6SnpXLrD26go9OPYRldLX66CwuLSWPHcOevft6n+HJysjjn9JN3xip7Mww4vNDLY6eUMOXQbPDaNPUETdavauKityv540cNtj8/wKZ/hfgwLdjRHuJzL5SzaFGdDd/tuwL2Fni59zMjmHNyKd5hNrFFhifLgqmTxvf58aXFhRQV5Hdfbed/DcsgPz+XFI+7z9e++IJzaWpr7fPjk4FhwNR8L0+cWsLps/K7DhGy1a2n+/wAk+WLarh5biV/XtNMe8husxt3UQHQCyvrO7notQrK17XaN/kbwPhMfv3pMq6YlpNw+/qL7EsoHGbmtCkU5ecf/Jv3w+l0cuRhh9Lu74x+ZtebePbM6f2KLzMjnSnjx/X7vpAM78bDi9L443FF3HTWCDyH2W3oMeYY93o/P1tQzaNrmu2XDqJUAPTCe7V+ln/UZMN3aczLM9PN+RMy+crkLFxO/fnFHkKRMOeccfLOpX59NWn8uF3L0gHD6rreyLLifl0XIDsrMc/KSESHFnj57hH5/GJSpg2HA2KKgOpOHtjUSnlL4ICPSFQa+D2IQMTiX+tbWNAc4MX36gnabswnZhOOTA9fPK6IO2YXUpre9+5OkaFmWRZOR/8njx0xfdo+P+8w+p+E+lucJBO3w6As3cUNM/Np7Ihw5+I6aAxgn9ZV9NCjiMXqVU18NhDmwsk5fOuQbEZk2OfeqgLgADpCJnM2tHDNu7VQ3m7fCX8GkJXC2bPzuXN2ISMz7fMCFTEA0zBobWvDsqx+Jdp2nw/L6F6ya2EZXXMA2js6D/bQgwoEgqgG6J2sFCe/P7GE9pDF3xbXQnsoetuywxMZfQ35wqz6qJFV2zvwBSP8/MgCclLssdLBbn0vQyZkWjyxsZVrXt0Bn7RC0IYTPaKrE91Zbs48Kp8nTylT8hfbsYBUt5v/PPcSoVDft9+1LIuVa9bhdHbfnHclmbUbN/YrRtO0qK6t7dc1kpXbYXDfqaX84swySHFGz3GwS2MrZjig0c+f3q3h5+/VErDJUYIqAPbBAv6xppmr51ZCjd9GFWkMJ1DshUOyuef80bxwxggyPfpziz05nU5qGhtZ/8nmPl8jEAzy9Iuv4fV4Yj5rYBkWzf08Tnp7ZSUV1SoA+srjNLh5diEvfWMSBRMy4h1OL0Vzg2VAfYD7F9fxq6W1tNqg0aghgD0EIhaPr2/muwuqCZW3Y7vEH8Odk8IXR6bzqSIvtR1hmoMRnEAizmIwgEDYJD/VxahMNw71pUpUd3vQwGB7VQ0zpk7p03Wqa+tpbGrBneLe2fKJ7oXJ3HeX8OkTj2Pi+J7tLrin+x5+jIK8nD49dqCFTahsD1HXGcbr6jq98EDt0e40Fa/mgQGELUhxGpw9JpOSsjTqt7R3BWaPhjQ7X6UWmI0BfrughtawxU2H5TE6y3PQR8eLCoAY/rDFvze28M0Xd0CDn926d2wo1Bjg8aDJh1UdOCJQGz5QRRrfd5rfhHZ/hPMnZvL8uaPjGosknu6T/f7yj8fw+XxcdN5nevX49z9eyf+79294Uty7vZu7/21ZFv/vnvv57U+/T2lRYY+va1kW/3n+ZbZXVmIM2H2if+/FjnCEr75bw8L1LWSnOnE6DeK5TeHBCgsTwIAsp4NRXiebm0OQ5oKOcGK2VvZrVxFgNQa4760q5lZ38NrZIxmZmZhFgAqAqJBp8cjaJq57uxrqO7F78scEmoPQHGRd2NzPPSWByutoKCudNn2+ZdA5gNQUL6+//Q4jSks47qgjevS4dZs28/f/PItnPy+t7o28W1vbuPHmX3PXbT+nuLDgoNc1TZOlH67k8TfeIMVMnPdSKGIxf1s7VPpogsS5hRkHeo4M6jHYDOB2gMOw3+mBQGwRQEeYNaua+ZzLwZ+PKeKY0rR4B7eXpB8UNi1o9kd4fH0LP1hYA9tju/0T5Z3TBxZdqxaC5q6utL0+jMT56L4Na28COQADaGpt4w9/eZif/+7Og36/r8PHr+64j5q6+oN+r8vpxLLg+p/ehq/z4KsCHnn8af7014dJGfCx3v7ddywMcMW8p+L93u7+MB0H+DB27c0cMKFzf40WO+h+7oHOCMuX1POZxbW0JeCcgKTvAXi3yseVC2vYvKmVUHuYYZH8d2Oz38O2b3oZKg7A4XBQvqOC8y+/hjNPPp5Lv/A5MtJTMS2Ljo5OPli5hn898zwtre0YhtHjlo5pmhjAxd/6Dvl5+Vzy+XM4YfaReDxuLMui3dfJE8+9wEtvLSAzM/3Ajdo4MboH1RPCzkGWg3x9OOruDbBoXt7I4R1h3jxvNOOyE2c4IKkLgAUVPr67qIb1HzXCbss2hvOLMrFpMxXpEQP8gSBej5u3Fi7mqRdeIRLpGjB2udxkpKeR6k3BYfRtZD7N66Wzw8cdf/0Hv77r/q7CwDBwOB0U5uaSnurFDCfwALUjphWaEBIplqEULQKCETavbuZr6S5+f0wxs4q8eBJguDMpC4CQabGizs+1C6pYvbolJvnH/w+S7BKl3SL24XY5KS7o+xkBB5KdkU52RvqgXFuSRTSvRCwWLK7jioDJ5YfkcNW0bLI88d0wKCkHXBdVdvDFuZVdyT8Bx2WkdwzASIBqWkRk/7p6ZVYvb+SH/9nCdW9XxTug5CsA3qns4MpFtWxdE5v8E627THrD4XSQ6vXGOwyRAWEAwWAIl9Me28lKH0QsHvugke8vqqW+s++7W/ZX0hQAvpDJW9vbuWpBNRtXNMLOQ32U+O3O7XZTVJAX7zBEBohFXk62CoDhrinIHa/s4K61zTTH6ZC5pJgDEIqY/G9zG5e8VQnVHXu0/MXuXE4nZSUleL0p+P32PJZTpFs4HOHKSy5CJwslgYDJr1+vxAhGuPXo4q65m0No2PcAWMCr29q4b0MLbPN1rTEFlPyHl4ljR1NWUoylP6vYXHunn+lTp+gOlSyagjy4poXOsDnkk6CHfQHwhw/qufCJrSx6r65rO0xL4/3DUXZWJqNHlAKoCBDbMi2TSWNHDdqqBklAFtRuaGXqQxu4e2UjnQfcsn1gDdshgPaQyb8/aeVH79Z0bYkLKPEPb1de+iVa2tpYvnJNvEMR6ZPW9g7+/Zc78HgSZ7MYGQImbN/Sxm8jFp2mxXcPzSXVNfjt82HZAxCIWDy7pY2rniuHHR3Rzyr5D3dul5sLzv40ednZ8Q5FpNda2n3ccMVlSv5JrLa8nd/Nq+bxDa34h2A3x2FXAFjAXR818tXny6ExgJb4JZepkyZw843X6yYqttLp9/O5s07js2ecGu9QJG668lRrVQdXPreNOWsbCQ3yIVPDqgBoCUZ4aHUTv1xQBXXdyV+STWlxIX+65cdMGte3s937w2LXmSb7e+uavfjojdjHdZ/31JPvHaif39PY+hPPQMc7kL9v7N/+wB9W9AMiEZNNW8q58epv8q1LL+5nBDIsWGC2BLlpcT23LKtnWXXHwR/TR4ZlxfGg6AH24NpmrnpiC3Qm8B7dckDjxmWy+ZopA3Ktqupa5i16j7cXvUdzS+uAXHNP3Yl2f4fCHGxC4kA+bn+P6cmBNZZhcaCC+WDX6M/Eyz2vfeBrDc2hMkbMj4qNZ18/ZedG4vv9PXb/ghH9QjgS5pCJEzh8xlQuPv+c/gUco8EfoWDOJtjUNmDXlKEU83pJczJiUjZPn1Y6KMcJD5tJgLcuqeWWhTVK/rJTaUkRl1x4HscedQQvvjGXzk4/HX4/wUAIq58LbkLhMDW19QRDoa5PGPtOTXueLbnX9+wvaR8sgH18w34f04PceNAjc/r35V49+MDXMvb616C1YIw9f+IBv+0Av8eufzkMg9ycHMqKC/nc2WcwbfIEXK5hcxuWARE9QAigI0LF2mYudho8dGwRp4/OGNC9AmzfAxA2LZ7a2Mol/yuPdvuLnQ1kD8C+BINBOjr99GdozTAs0tPS8Li7jogV6Y3BPvFSPQDDRcy9xWnA9FxWnDWCqXkpuAaoCrB96fmf9S1c/uRW6IjffspiHx6PZ0AnCOr4YhEZHDE9ARELVjVyigG/mZ7LJYfkkOnp/xQ+W08C/PE71Vz6v+1EfGGdIysiIsNMTAMjAo2rm/j2olqufa+W+gEY7rZlD8CWliBvVHbw+6X10KBufxERGa5iegJCFqHNbTzWGsIZNPn+YXnMKOj7Sai26gGwgGpfiOsX13DVvz6BGn+8QxIRERlke+xn0+Dn0dcrOeul7WxtDfZ5TpOtCoDy1iDHv1HJq4vqu070U7e/iIgkjWgRYAGWRdW6Vs57obzPewXYogDwhy3eLG/nhkW1bP6gHtOvCX8iIpKMYnoDIiarVjZz46Ia1jcG6O2iJFsUAIsq27nug3r+925NV8sf0C5/IiKSvKI50LRY9H4DFy2spj3Uu4mBCV8AlLeGeGR9Kxs2tkFA3f4iIiJdor0BEYv1q5p5sdxHMNLzJJnQBUBNR5ivLqzm3/OroSF2wp9a/yIiIl0Mgq0hLvn7Rh7b0vMNoBJyGWBtR5hH1zfzr/UtrNjYihWMsPemqiK95+vopNPv79cOfpZlkZudhVs7AUovaeMoGTQWELIINARgYs8eknAFQGvQ5M41TfxuYRVU+cGIXf6gN4/0jmVZ7KiqZt3GzbS0tlHX0Iivo4OI2b+z31xOJ4bTga+jc6+v7TwUxiB65kDvXrd7Hbyzn3MGev7Y7hgOdFrB3tew9riYsccpPT05fGj3a+zvebD2+vru19jfY3ryvO597b2/dmCGZez1XOz/mrGPi/6UmDMFsjLSGTt6JN6UFGYcMoXS4sIexSDSY724tSVMARA2LcIW/HZ5Pb9bVAvV0S5/NbCkj9rafSz7eCWPPvFfOv0H3jBq5026h683y4JgKNCVYPUald5yuhlZWszRh03nrFNOpKSoIN4RSRJKmALgrYoOWgJh/rC4Dmq61zTGVthq/Uvv/O6++9mwubxHSb2niX/n9xuQ4knpW2AiQH1tHS+9+TZ3PPAIc/87h/zc3HiHJEkmYSYBbq7w8Z3XK4lUd0Rb/XsmfDWzpGcqqmv42nd/1OPkLxI3lsWUCeP40lXfYdH7H8Y7GkkyCVMAAFRXdUT7Uw80Vtj9sb/P7+97DnStnj5muBl+v/PaDZu49Y/37HNsXiRR5Wfn8JPf/pFVazfEOxRJWPvLWX3PYwkzBJCd4earp5UStgyc8Q4mCaW6HCxo9LNuST193lg6zkLhCM+89AbNLW0aMBLbKc7L54Zf3MabTz6Kw5FQbbPeS3Ew8bA8jivwYtn0fmJXU0Zn9Ph7E6YA+MqhuXyZXN2448WAzS1BDllaT7h/E+Tj5q9z/s2KteviHYZIn+VmZfGHPz/E9676Oh6PO97h9F2Kk6dPLmZmQWq8I0k+vUiiCVMAGIam+cVbZ8Sy7YhAm6+D6po6rcsXW3M6nbyxcDGXXXQBZSVF8Q6n7ywLf8RC2x4kNpv3M8lAquuM2DX/s7V8O1W1dfEOQ6TfMtNT2VZRGe8w+seCxs7e7UsvQ08FgOzksmkfjGmaVFbV0Nbui3coIv3mdLm49+E5tu/Ncqr5n/BUAIjtBYJBKuvU+pfho6a+AbOfu1WKHIwKALE9M2Li83Uc/BtFbCQYDsc7BBnmVACI7VmA1YsjMEVsQS9pGWQJswpARKQvLMAfCOw2g8XlcuFy9n9HkXAkQjgcIfZQIW+Kp9/X3Z/dcr6G0GWQqQAQEduqb2rmhCNnccG5Z+D1dCXmQDDE48+/xLpNn2BZFt4Ub69zqT8QJBAKc+wRM/ni+WfjjBYT4XCYh//9JB+v3URhbvYA/zYiQ0sFgIjYigWEwmFGlpZwy003MH7MKLwpux/MNGPaIdQ1NFBZU8tv73kQK7rPyMEKAQuwLJObrruCyePHUVSQh7HHbPbf/fyHbK+o4tGnnmP9xs1a6y62pTkAImIbVvR/zjrlRP74yx8xbfLEvZI/gMvlpLS4iCNnTucrn/8sBTk5cIB9riwgYloUFuTwg2uv4MSjj6K4MH+v5A/gTUlh0vix3HzjdZx07GyCodBA/ooiQ0YFgIjYggkEQ2FOP/kYrv7ql/eZ+PflC+eeyQXnnNH1f/ZRBHQfn5KemspF553LMbMO79F1PW4313/zMiaMHUM4ok1vxH5UAIhIwjMBw4Liwhwu+8Ln99kyP5AzTjye42fPwul07qMAsIiYMHn8aE497uheXdcA/nTLj6mstOZ/VgAAF+lJREFUqe/V40QSgQoAEUloFl3JH+Db3/wa6Wm9P2DG5XLyjUu+iNPpwLC6CoruD8MyOPXY2fz0u9f2OcYHb7+V5ra2Pj++m6YTyFBSASAiCc80TXJzshgzsqzP18hIT2P8mFGEYjbY6S4sUlM9/TqCd+rkiZQV2fjwHklKKgBEJOGFImEuPOcsMtPT+3wNh8PBZRddQDAU2pn4u02fMqVf8bndLnJzc/p1DZGhpgJARBJeOGJSUlTQ67H/PRUV5O/n83n9ui5Aenpqv+MTGUoqAEQk4UXMCI4BSK7dB+xZxp6f7//BOwOV+nVTlqGi15qIJDyP283SD1f0e3v8p194GcOxd6qua2jq55Uh4g9hagN/sREVACKS8LxuD6+9/Q5NzS19vkYkYrL0o5WkpXjp3g3AMrqWAb730Yp+xRcMhli56ZOdPQwidqACQEQSmsGuLvv1n2zp83Uamppobm7FMizA2HnzMzCIhCKYZt+z96vzFuD1eHRDFVvR61VEEl5XEWDx9Iuv0t7R0evHR0yTZ198DYfDwIhJ/g7AMGDhBx9y251/6VNspmVx/5wndCaA2I4KABFJeF0H+Rhs2rKVJ557udePn7twMc+/OQ/TsvY5Wc9lGGzeto0lyz/q1XVN0+S+h+bgcetcNbEfvWpFxBYMIMXt4b8vvY7H7eJL53+mR+cBvPTmfJ783yukp+7/WGAH4PN18uA/n8TpcDD78JkHva6vo4PnX32TJR9+TIrb3avfRSQRqAdARGwlM83LMy+9zo9v+wOVNbW77ezXzTRNWlrb2LRlG/c89CidnR0YB1mo53AYtLe387Pf3cmKNetobW/f5/eFw2HqGhr55R/u5dmX3yQc2vvni9iBegBExHY8bhcV1TVc+f2fMm3SRE48ZjbTJk8EoKK6hjnPvEDA10FbZwfZmRm9unZOZia/uv0+nKkplBbm8ZULzqWooIBgKMTGzVt5cd5CKmvrSXU5BmXcv/87Eoj0jAoAEbElwzBIT01jc/l2Nm4pJ2JFMDAwDIMUpxvLASmuvnXNO9wOzGCIreUV/ObuB3au7ne7nVg48RhgRZSqxd5UAIiIrTkdTpwO2PN21t/GueEAjyM+t0gD0J5CMtg0B0BszzDQHuwyLMTmfL2kZbCpABDbczmd5ORmxTsMkX7rzvmhiInLpQ5aGVwqAMT23G43ZcVF6gWQYWNEcRFOh27PMrj0ChPbczgcjCgtJjdbvQBif8FgiKsvu1gFrQw6FQD/v717D4+rrvM4/jkzyVxybS5t03uSJumNtlAs9ikgFpAKIqi48uwCiohIQbq4XmCRXXTRlUddFVYUFxZlZXkAERaUghQsFIi10NLSe20LTZs0vaRN21zncn77Ry/GNG0mM5OcOXPer+fJH+mc853vpPPM73POnPP7ISvUVFVq7OgKp9sAUtbR2aXKCeOcbgMeQABAVvD7fJpSV6NcpmSFi8Vt6YJz5mjUiOFOtwIPIAAga1zxsfk6d87s4yvHAW6zs3mXbrvlBuVyASCGAAEAWeUTH/2IZkye5HQbwIA1NO3WEw/8RD6++8cQIQAgq1SMKNct139W0+pqMv4q6mTnkXPT/HN2jx+vsPXX+/kTed1GUswY3Xv3HaocN2bwGgN64TwTss6wokLd9fWFuv+Xj+q1+uWD9jyn+nC3EpjFzdKRD39jJbZ97/166++rj/6ewxzfYOBHoCer3bNSqhPbJfr6jm1nmYH/bdPhWJtGp/q/MorHLbV3dWvthvVa/9oiDSsqHLomAXEGAFns5s9frfvv+ZZOnz4lrXWN/jr4W6bvn4FI1wB1sl4S7cky1tGf/mul8nqTlWgPPX8f6sE/EbtbWrRx8zYVF+brn2/+vBpXLmXwhyM4A4CsNrysVHcsXCBJ2vLedjU07tLBQ4cVi8eTrumzjkw+1B2JKhaLyZg+RplED6JPNkAlsv+xQ8y+6p3s3wcqXYfwfb2ewRqc+/vbDeR5k/x/tKxe0/oe3SQUCGhUxUh9YMZp3LECx/EOhGfUVE1QTdUEp9sAgIzAVwAAAHgQAQAAAA8iAAAA4EEEAAAAPIgAAACABxEAAADwIAIAAAAeRAAAAMCDCAAAAHgQMwHCE+LxuLq6utXVHVFbR7ti0VjStWxjVDl+LGu2A3A1PsGQ1Tq7uvX8y0u0fUejmvfs06G2NtnxeErT0BvbaMyYCnV1RxS3e60J2Ht+/r7m6+/92Km2GVBjPer0XBPAHJ2bPpFedGzDv+5/7Ne/2bX3Mncnex2mj8d799nXPgP9m/X1PKfax0iWZcn0fBG9a0gJ/L0S6LlnbRkV5OeptmqCZkyepMl1ExXIzT3FjsDgIQAga23a+p5eWVqvV+v/nPbaGzdvTXtNeIOR0bpNW/TgY7/RxeefpzmzZuq8ObNlWelIgUDiCADIOrZt69DhNt31/Z/ItjNwPVh4miVLlqSRpaV6a+UavVb/lrq7unTheefI7+OyLAwd3m3IOpu2bNMNX7uTwR8Zz++T8vOCeuDXT+i+hx5xuh14DAEAWeWN5Sv07f/4qdNtAAnzyZLf79cflryhRYtfdbodeAgBAFljz74W/d+ixbJ7X5gHZDifpIKCfN378K/U1d3tdDvwCAIAssavnnhaDY1NTrcBJMUnqbCgSDfffpfa2jucbgceQABAVti1Z6+a9+xzug0gJT5JO3btUcuBVqdbgQcQAJAVdjY2ac8+AgDcryAvrPWbtzjdBjyAAADXi8ZiamhqViQSdboVIGU5fr8efOxJ2Ya7WDC4CABwvUgkol279zrdBpA2Bw8dVpRAi0FGAIDrGSOZOFf+I7vYKU1YDfSPAAAAmYjxH4OMqYABuJKRZJsjizP5fEcm05Ek28RlGyNjW8pJ4RDH6OgRks8nyZKRZEz8yEJCKXd/6ueVNLhPAogAAMClwuGQJowZrdOnTdElF3xIoVBIkhSJRrVpy3t69g+L1dp6WNsbm+Qb4EI7tbXVCgcCuubTl2t0RYX8fp9kjLojES16+TW9+fY7amxpkd3ZrXSv4cOBP4YKAQCA63z4nDmaXF2p88+de8JjwUBAM6ZO0oypkxSPx3X3j+7Xur9skZXgyJqfH9a//OMChYLBv33AshQOhXTFpfN1xaXztWzlaj2/eIk2bdmWhlcEDD2uAQDgCuboz8xpk/XR887uc/Dvze/367ZbbtDcM8/od9tAbq5qqybo4R/fc+Lg34c5s2bqn268TmNGjUygeyDzEAAAZLxjg39pYbE+cfFHVF05IeF9w6GQrrriMhUWFp7y9Pq4saP13Tu+KmsA5/RLiov0lS99XorGEt4HyBQEAAAZ7djgL9voc//wKU2bVDvgGiPKy3TPN78qS31/xx63bd3+5RuS6m/8mNGaPnNaUvsCTiIAAHAHnzRxwvikdy8ZVqzioiIZmeMhwNaReSQ+dclFKi4qTLr21xdcr4bGXUnvDziBAAAg49nxuEaWlam8dFjSNXL8flWPH6toNHbkFkJJlpGMJQ0vL0upv2AoqIvm9X9NQiL4UMZQ4b0GIKNZkrojUd1x64Lj9/ona2pdrSK9vq+3jDS1bmJKdS1JxQXFKdUAhhoBAEDGs21b4VD/V+b359L5806YX8eyLBUVFKRcOz8/nLZ7+P1+/4DnLgAGigAAIOPlhUJa9Mpraah0ZFD1Hf0xlpTjt7SjKfXv7zdu3pq2yfuK8vK1r2V/mqoBfSMAAMh4fr9Pbyxfobb2jpTqrFz9rvLzwsd/90mKxm0tXlqfUl1jpN1796VUo6e439LhFF8r0B8CAABXaNnfqu07GpPePxKJ6ulFi0/8CkBSfjiUUm/7W1sVt9O3ImXQ8iknJ7XrHYD+EAAAuIIlaeOWbUkPtAcOHtTW9xv6fOyVpfV6c/mKpHu778FHkt4XcAoBAIBrPPHs81r86hsD3m/vvhbdcse/nfRx2xg99fsXZScRLtas36QNf9k64P0ApxEAALjK04te0h+WvJ7w9vsPtOrhx3/b73a7du/VbXd/X/F4POHajc27df+v/jfh7YFMQgAA4CqtBw/pmUUv6elFL/U7WHd1des///vXWrF6bb91bdvW9p1NuvfBR/q9oM8Y6U9vv6P7Hvof7T/QOqD+gUzBcsAAXGd/60E9/szv1bx7j846Y6ZGVYxQcWGhLEvq6o6o5cABtexv1WPP/E679wzs6vxlK1ZpxbtrdcsXPqvCgnyNGjFcgUBAktTR2amGxiat2/QXPb/41cF4acCQIQAAcK1X65fr1frlKsgPq6ykRJLU0dWllv2tSX2ff0w0GtOPHnhYlmVpRHmpwqGQjDFqPXRYhw63yZh0TfkDOIcAAMD12to71dbemfa6xhjt3tuS9rpAJuAaAGSFgazhDmQ6pgHGUCAAwPV8Pks5AU5mIXsYSX4fEwFhcBEA4Hp+vz+ltdyBTOP3+RQKpr74EXAqBAC4XjAQ0ITRo+X383ZGdphSNzEtqx8Cp8InJrJCXU2Vxo6qcLoNIC0+ftEFnNXCoCMAICuUl5ZoDAEAWSAvL6xRI4dzYSsGHQEAWeP6q69U3cQqp9sAUnLD1VdqeFmp023AAwgAyBoFeWF97MIPO90GkLRpk2p01qyZTrcBjyAAIKucMX2qbrnuGk6fwnWqJozTgmuvUo6f2/8wNAgAyCqhYFBnzZqhaz59uYoKC5xuB+ifJVVXjtcXr/6MRpSXOd0NPITZU5B1gsGgLr3ofE2snKCfP/KY9rbsH9ASr15nLMlyYKp70+ukjRM9DCnLUn5+WCXFxfrW1xYqFAw43RE8hgCArDWlbqLu/c6d+t1Lr+hPb6/Wjl271B2JJD2wJDsw9hzY3DKoDUYI6Ktm70G/r8csk9jfsOf2mW7sqArVTqzSObNnafrUSU63A48iACCrWZaly+ZfqLkfmKU9+/arraMjqVXieo4pA726IJV9h1rvsTOd/Zo+6iUzVvfV02D2nW6hYFBlJcM0vLyU2f7gKAIAPKG8rFTl3FoFAMdxESAAAB5EAAAAwIMIAAAAeBABAAAADyIAAADgQQQAAAA8iAAAAIAHEQAAAPAgAgAAAB7ETIDwhFg8ro6OTnV2deng4cOKRqJJ1zLGqK6mWoHc3DR2CABDiwCArNbW3qFfPv6UdjTu0qHDberqjsgYWyaFBWOMjPLzwmrviiS1roAzLCU2836i27mfJUtmiF+rMUaB3BxNra3W3DNnafYZ0xVkPQA4hACArFW/fKWW1C/T6nUb0167uzuS9prwhmgkouWr1mjx63/SrJnTNaW6Up/7zCdlWZm8hBGyEQEAWac7EtGmLdt070OPyKRyqA8MAktHzj6UFBZqy5b3tXb9JklGf/+JjysYDDjdHjyEiwCRVWxjtGHzVn3nxz9j8EfG8/ukcCig5195Td+97+e8ZzGkCADIKq8ve0vfu+8Bp9sAEuaTJWOklavX6annXnC6HXgIAQBZo6l5t5594WWOouA6PkmhcEgPPf6k2jo6nG4HHkEAQNZ49LfPaeeuZqfbAJLik1RYUKQF3/hXHW5rd7odeAABAFlhZ1OzGhn84XI+Sbv3HVDLgVanW4EHEADgekZSw85G7dm33+lWgJQV5Yf19uq1TrcBDyAAwPWi0ah2NO9WPB53uhUgdT6fHvnN0y6aZApuRQCA60WjUe3l6B9ZwpLU0dmlSDTmdCvIcgQAuJ4xkuHoH1ni2HyAQz1NMbyHAIAswTSqADAQTAUMwJWMjGK2ZNlSKBxQOBSSJHV3d6s7GlE0ZhTwJxcMjx1750gK5uXJ7/fLtm1Fot2KRKI6Mpkv4G4EAACuVFZSotNPm6JJ1VWaO/sMBQJH5tGPxmJq2LlLS5f9WU3Ne/XOmnXy+/0J1zWSpk6pU+XoUbr4/A+pvKxUfp9PxhhFYzHVv7VSq9Zt1OrNW9TeekjpXsOHE/8YKgQAAK5z0bxzNX1SjT545hknPBbIzVVN1XjVVI2XJP3oFw/rzeUr5ff1/41nbm6uRo0crru+crN8vUZ2y7IUDAQ07+w5mnf2HK3ZsEmLXlmqt1e9m9aV/AgAGCpcAwDANWxJZ591pi67aF6fg39fFn7hc7p8/oX9bhcKBjR+dIV+eNftJwz+fZk+ZZIWXn+NaqsmJNQHkGkIAABcwZY0qrxcl1xwnkaUlye8X06OXx+ff74qRo445ZX1dROr9b07vz6gnsKhkL5y43XyxbgLBe5DAACQ8WxJso2u/rvLVVtdOeD9S4qLdOetC2TJUu/pdYykQCCoW2+4NqnehpeVas7c2UntCziJAAAgox0/ZvdJEyvHJ12nrKREw4qK1PMOe/voE1x8/rkqyM9LuvZN116l5j37kt4fcAIBAEDGs+NxjauoUFnJsKRr+P0+Ta6dqEgkKqMjg79lJGNJY0ePSqm/QG6u5p8/N6Uax/ChjKHCew1ARrMkdXVHdPvCL6V8tf202hpFe31fbxlp0sSqlOpKUjiYn3INYCgRAAC4Qk5O4vfyn8yF886WJR3/kY7e3hcMpFw7Ly+Utlv4cgOBhO5EAFJBAACQ8cKhoH7zuxdlm9SG2Eg0Jp/PdzwAGEvy+y2t37wl5R7XrN+UttkBC4IhNe/em6ZqQN8IAAAynt/n0+r1m9Te3pFSnVXvrlU4FDz+u09SLG5r1dr1KdW1jdH+A60p1egplmMpEoumrR7QFwIAAFfY17Jf7+/YmfT+3ZGInnnx5ROO0i1JuTm5KfW2/0Cr4nbvGwyTF5IvrbMLAn0hAABwBUvSO2vWKx5PbqA90HpQ7zf0HSBeeb1eS95YlnRvP/zZQ0nvCziFAADANX6/eIle+ONrA96vqXm3Fn7z7pM+bozRMy8sVjQ68NPu9W+9o23bdwx4P8BpBAAArvLoU8/qiWefT3j7PXtb9NOHH+13u+Y9e3XtwtsUi8USrv1ew079168fT3h7IJMQAAC4im3bevGPS/XTXz7a72Dd3tGpf7/v59ry3vaEakdjMd15z4/VsLPplNsZc+RsxA9+9pA6OjsT7h3IJCwHDMB12js6tbR+uQ4dOqzJtRM1uaZaFcPLZVmW2to71NDUpKbmPXr59XodOHBwQLW3bd+h27/7A33qkvkqGVasuupK5eeFZSQdPHhIq9dv1Hs7dmrZ26sG58UBQ4QAAMC1Vq3doFVrNygvHFJxUaGkI7MGHjx0WHYKV+XHYnE9+dwiWZal0mHFCgYDMsbocHuH2ts7ZFKcjwDIBAQAAK7X0dmljs6utNc1xqgljff3A5mEawCQFSwf90wjezAHAIYCAQCu5/f5FAimNpELkEksSTl+TtBicBEA4Ho5Of6UlokFMk0wGFQ4GOx/QyAFBAC4Xm5urkaPHJmW1eKATDC5plqhEAEAg4sAgKwwqaZa40aPcroNIC0u++gFKioscLoNZDkCALJC6bBijRld4XQbQMqKigo1vKyUCwEx6AgAyBpfvOpKTamrcboNICU3XnOlyktLnG4DHkAAQNYIh4L65MUfkd/H2xruNHvmafrA6TOcbgMewSclssppk2v1zVtv4vQpXGfq5FrddN01TrcBDyEAIKvk5ORoUk2VvnrjdRpeVup0O0D/LEtnTJ+mL119pfLzwk53Aw9hpglkndzcXJ01a6ZGlJfpyede0JoNG9UdGfg6715lLMlyYKp70+ukjRM9DCXLb6li+HBVjR+rm669SoFcJrPC0CIAIGtVjh+rb3z5i1ry5jK9sWyFtjY0qKOrS7KTG1mSHRh7DmxuGdQGIwT0VbP3oN/XY5ZJ7G/Yc/tM5vP5VDVurKZNrtMHZ81QbXWl0y3BowgAOC6aASucWSms4HYy886eow/OOl0dnZ2KRKOs5AZH5fpzFAoFlZcXVo5/ECavMpIy4D0ed74F9IMAgOOmlgb0wCcnyHbww6OocHBOg+aFQ8oLhwalNpBJ8gM+/eJDFdLpDn7tlevT9HJmMsx0luFwCAAAz+EuAAAAPIgAAACABxEAAADwIAIAAAAeRAAAAMCDCAAAAHgQAQAAAA8iAAAA4EEEAAAAPIgAAACABxEAAADwIAIAAAAeRAAAAMCDCAAAAHgQAQAAAA8iAAAA4EEEAAAAPIgAAACABxEAAADwIAIAAAAeRAAAAMCDCAAAAHgQAQAAAA8iAAAA4EEEAAAAPIgAAACABxEAAADwoP8Hxg+/Jc0A2zgAAAAASUVORK5CYII=;" vertex="1" parent="1">
          <mxGeometry x="1082" y="67" width="29.67" height="26.6" as="geometry" />
        </mxCell>
        <mxCell id="-i5JZtjKqTrFo0PbQZQr-57" style="edgeStyle=orthogonalEdgeStyle;rounded=0;orthogonalLoop=1;jettySize=auto;html=1;entryX=0;entryY=0.5;entryDx=0;entryDy=0;" edge="1" parent="1" source="-i5JZtjKqTrFo0PbQZQr-48" target="-i5JZtjKqTrFo0PbQZQr-52">
          <mxGeometry relative="1" as="geometry" />
        </mxCell>
        <mxCell id="-i5JZtjKqTrFo0PbQZQr-58" style="edgeStyle=orthogonalEdgeStyle;rounded=0;orthogonalLoop=1;jettySize=auto;html=1;entryX=0;entryY=0.5;entryDx=0;entryDy=0;" edge="1" parent="1" source="-i5JZtjKqTrFo0PbQZQr-48" target="-i5JZtjKqTrFo0PbQZQr-55">
          <mxGeometry relative="1" as="geometry" />
        </mxCell>
        <mxCell id="-i5JZtjKqTrFo0PbQZQr-59" style="edgeStyle=orthogonalEdgeStyle;rounded=0;orthogonalLoop=1;jettySize=auto;html=1;entryX=0;entryY=0.5;entryDx=0;entryDy=0;" edge="1" parent="1" source="-i5JZtjKqTrFo0PbQZQr-48" target="-i5JZtjKqTrFo0PbQZQr-56">
          <mxGeometry relative="1" as="geometry" />
        </mxCell>
        <mxCell id="-i5JZtjKqTrFo0PbQZQr-48" value="Express Route" style="verticalLabelPosition=bottom;html=1;verticalAlign=top;align=center;strokeColor=none;fillColor=#00BEF2;shape=mxgraph.azure.express_route;pointerEvents=1;" vertex="1" parent="1">
          <mxGeometry x="1010" y="380" width="50" height="30" as="geometry" />
        </mxCell>
        <mxCell id="-i5JZtjKqTrFo0PbQZQr-52" value="Receiver" style="rounded=1;whiteSpace=wrap;html=1;" vertex="1" parent="1">
          <mxGeometry x="1100" y="236.6" width="100" height="40" as="geometry" />
        </mxCell>
        <mxCell id="-i5JZtjKqTrFo0PbQZQr-55" value="Mobile" style="rounded=1;whiteSpace=wrap;html=1;" vertex="1" parent="1">
          <mxGeometry x="1103" y="301.6" width="100" height="40" as="geometry" />
        </mxCell>
        <mxCell id="-i5JZtjKqTrFo0PbQZQr-56" value="Mobile" style="rounded=1;whiteSpace=wrap;html=1;" vertex="1" parent="1">
          <mxGeometry x="1103" y="374.6" width="100" height="40" as="geometry" />
        </mxCell>
        <mxCell id="-i5JZtjKqTrFo0PbQZQr-60" value="Express Route" style="text;html=1;align=center;verticalAlign=middle;resizable=0;points=[];autosize=1;strokeColor=none;fillColor=none;" vertex="1" parent="1">
          <mxGeometry x="162" y="379" width="100" height="30" as="geometry" />
        </mxCell>
        <mxCell id="-i5JZtjKqTrFo0PbQZQr-67" style="edgeStyle=orthogonalEdgeStyle;rounded=0;orthogonalLoop=1;jettySize=auto;html=1;" edge="1" parent="1" source="-i5JZtjKqTrFo0PbQZQr-66">
          <mxGeometry relative="1" as="geometry">
            <mxPoint x="717.5" y="256.79998779296875" as="targetPoint" />
          </mxGeometry>
        </mxCell>
        <mxCell id="-i5JZtjKqTrFo0PbQZQr-68" value="CI/CD Deployment Pipeline" style="edgeLabel;html=1;align=center;verticalAlign=middle;resizable=0;points=[];" vertex="1" connectable="0" parent="-i5JZtjKqTrFo0PbQZQr-67">
          <mxGeometry x="-0.8483" y="-1" relative="1" as="geometry">
            <mxPoint as="offset" />
          </mxGeometry>
        </mxCell>
        <mxCell id="-i5JZtjKqTrFo0PbQZQr-66" value="GitHub Action" style="shape=image;verticalLabelPosition=bottom;labelBackgroundColor=default;verticalAlign=top;aspect=fixed;imageAspect=0;image=data:image/png,iVBORw0KGgoAAAANSUhEUgAAAIcAAACACAYAAAAh4nqyAAAgAElEQVR4nO2deZgU1bn/P1XV+zYzPfsGDOuwKSAICkGjKBHUiGskUWNuEvV6zb25PzUaTWK85npj9pjcRKNJ9LoGdwQSUCMKGFcgbMM6DDDMwmzd02t1Lb8/xpHpqeqe7llYdD7Pw/Pw1HRXna761jnved/3vEeIxGSdHui6TmNTI+hQWlKE0+EgG3YeOMKD/7Cy/rCXqCISV4Wsvm+TwGVRmFlp4aYp9cyYUJ7V94fpm2gsRkNjMwhQUlyCIJg/I6G3OI4cOYKiKIysLEeSpIwuJisqK3ZoPPtBmPeP5KLpfX8nEyQRTvUHWTIZLj3VhsuZnVCHSY2qqtQdrMdisVBYWGj6mSRxRCIRmpqbqRpZmVGPoWkam+uCfOtvuRwKDF7DzShyqfx6UZTTRrmwSOLQXuwzQjQWo7buIMVFRbhcLsPfk8TR1NSEzWalrKS4zxN3hBV+uEZjTa2NsDy4jU6F3QLnVga4f7ETn9t2bC76KedwYxOynKC42PjMLd3/0XWdSDRKQb4/7cl0XWd7o8LtLwXZHsxP+1lRgDKPQplXZUyhnfH5CYoSe/E4ux5sKCrT4qhmdwvsaZapb0/QGHeTUM3PF1dgZW0Omx6HXy4MMWu0p6/fPkwf+LxeDhyqR9d1g+3xiTgSiQQAToc97ck27WniayuL6YilFoYgwBfGKtwwI8zoEh9Oq4hFArAC1abfUVQLUVnkUHuYh9e2s+JQBQnN/PyHg/DVl9w8cPYRFs8wHy+HyYzu551IJLDZknvjT4aVWCxGQ2MjkyaMS3mil/4Z4841DmKK+d9zrDKXTVK4cqrKhHLvgBpd2xzh+R1WntxkoSNmbk3bJJ0ffb6Ty0/zDehan3W279xNaUkJjl52piXF55PQdZ1Ne5q4c02JqTAEAaaX6vzmghilBYPzoKqKXNxaBDfOjHDTczE2NPkNsyBZFbjtNR+i3saS0/ykmJEN008yMvu3Nyp8bWWxqTDsFvjB3FYev1IbNGH0xON28fCXvPz4vCjeFCPevety2XqgY9Cv/VmnT3F0hLuMT7Ou3eeAX3whxnVz83HbM/OJ9Aen3crl0538ckErpW7j1CgQF/nqy7kcak8x3g3TL9KKQ9M07lmjms5KfA546oo4X5h07BxT50zJ59ElCm6rcTrTFoWf/P0Yzak/I6QVx+a6IK/VGvtyuwX+Z0GMSaX2lON8R2eEV7Ym+O078PC7sG53CE0fuOt0YrmLRy8OkW/02bByr4vVNfEBX2OYLlIapLKi8q2/5RocXIIAd85p5YLJqaeya3cEuXGVj1ii51EP1QUqv71IpqrQkdKfnwmzx+bw7bkJvrfGSk+5KRrc8Tcrsypk8jzDTrKBkrLnWLFDM3WJTy/VuXxmbsoT/n1bG99a5ewljC5qWiSueMbJf78WR1ZSODEy5IqpIheOajMcD8RFVtfEBnTuYbpIKY5nPwgbjuVYZX5zQWdK47MjFOeOv+cSTFhTXrAtCo985GDRn0Xe3hVG7+dQY7NK/PCiHIrdyfaHpsMfNvmQU7lZh8kYU3HsPHCE948Ye4fLJilpp6u72220RzMLiu1tha+/7OTrz2kEw/1703NdEpdPNV5vbyus2tTar3MOcxTTJ/ngP6wGh5MgwJVT07+NQVkwuLztFrCk0IusibyxT+KiPyZ49qM4ippdLyIA/zIjht/EOF2+Pw9VG9jQ9VnH8NjaglHWHza6vr8wVunbJW7ybKvcQV64tJEJBVrKmc2BiJc71thZ+ozAgeZQRg3vJs/r5MqqQ4bjOxoShOODlFjyGcUgjoOdNqJK8mFRgBtmGG2QTBlbkc8zX1K596xOctK4Rd4/BJc94+Cna1UiZhZtChZMK8fWywxqiruobx+e1g4Egzh2N8cMqX1lHoXRJQNzjee6rXxltpdlV0U4e6SMRTB/q1uiFn77D4kv/1+I9+vkjHwjVb4obkvykKdqsPrDgwNq82cdgzg+2tlg+FCZV8VpHZwuelyJi4cvt/DIombynKk/t6ktj2uWWbl1hUAkmt5g9ftcTCg2zqA2BMYOtLmfaQziqNWNN3RMoX1QU/OsFpGzphTzypdjfGVKGGeKmW9cFXhxG3xlmYW2YCTtOecWGEW9pVlCVYeN0v5ieOJmwc3x+ZmP/9lQke/gvxa7efyLQSp8Oql8phsbLNyy0pn2QU8rMvYu0QQE+jlNHsZEHC0mdmdRYu+QNmLmGB/Lr9O4Y04LnhRh+U2HYU9ranGMKMkzPR4MDxul/cUgDtnEldGd8zmU5LokvnlWAU9fGmRWWYLeo1hUEWgMp85NKi80N5hDkWFx9JcTLsd/QpmLU7yN9J6k6HrXDCQVknjC/ZSTHsOraJOMvUcoOvR5Eoqi8sY+kd+u1/lnc6Xh73ZJI9+u0pWkbKShpRMwOumcjtRxnmHSYxBHnguaOpOPtTjMM8YHAx3oiKj8cEWAV2r96Lr5wyx2q4zNTz2d3t/Qjpk4fO7hVXL9xSCOkblGcexuGZqLJxIKf17Xwp93FHK4M/V6Gb8Lfn9RFLcztSNuc72xd7NZwO9L40wZJi0GcYxiN++RvDxhT7OMoloGzdehqho7jgjc/5rChvqSlJ+TRJiYF+UHC21MrEjvoX2n0+ifmVQ4bIsMBIM4Zk2s4C+9vM717QmisojXOfAbrWoa965o4y+7C4gpqbt8iwR3zGrmy2f4cfQOnPQiEIqxrcEKJH9utmsLMHXAbf6sYhDH6GKnwShtjLs51B5mojOjZS6mJBSFv+4W+c06lV1tBakbJMKi0RFunisxvqQoo3PvD0iE5GQXmijAxWeM7nd7hzERR7kjhMviQFaP/imhwsNr2/nF1e6sL6Dr0BGFH/wtzpr9blLNngUBcmwqP7lAY8EEkwSNNKzd2UlcTbZZij06FfnZt3eYoxieVFGem5mVxh5ixaEKapvTxzfMOBB2s/hxy8fCMEcS4abpAVZfn2DBhOymnuFIlCe2G43ZMXkJ3NbhuMpAMIhDEARumlJv8FAmNHh+R/oH57Ebs76iqkR71DxqYhHhtFKZZVeEuO28HArTJXuYoOs6j2yIcMTE5X/xRB1puI7HgDC9ezMmlHOqP2g4/uQmC6Fw6t6jyhsxXXBkemER7vtcM09ebWH6qP6VUgjJAs/vMfYaJV5YMnXY+TVQUr5aSyYbj3XEBG56LkY0bh6lLcp1cfdZCaxpJhdWES6dEOGN60JcNacIu7V/b7eqatz31yAHA0ZD9KaZ0eHqP4NAyjt46ak2ilzGXmBDk58V21OvSb18uoO75oVxW9WkELwkdHk5H7ukk59d4mJk0cAKr6zYKfCXGqPvI8+hsXDC0K3b/SyRcm7qcjr49aIQ173kId5DC5oO96514re2cs4U81Vv185xM39MjPfqouw80ILTbmXGuGKml8j4fQOr2wGwpzHCfa/bTJt/19wOinPSVycaJjPSOi5OG+Xi3MoAK2tzko53xuHuN708mhdhYrlJoTGgqtBBVSEws2cP0X8/STe7GsIsfc5Ja8TY6S0YEWTJacPCGCzSDswWSeT+xU7KTDzXDWEbVzxr5909Q1xGsAd7GiMphSGKcNe5w3bGYNLn3fS5bfxyYQiXSYJxOCFx86ocnvwoMaTLD1VV45XtOkuX2UyF4bHI/OmiIKMGaMcMk0xGr9qs0R4eOLsFm2QUSGsEvrfGyq0vBGiPqGbrmvqNrut0xuG7r4b49+UCRyLGYckiwi3zrMyvHq4LNthkbAQsnlFIVA9y22vGh6ADy/f7ee+PKleeqnP9tBh53oGFysORKI9siPD8Hj8HA+YP3iLCnWcpXDdThJTpycP0l6wsxMtP6yrOdu+6XAJxY6fTFJZ4cAM8ualrieKCaeVU+aL4fZnFSgKhGPsDEmt3dvLEdj9HwqkF5rHI3DLPynUzxeGw/BCRValJ6AqkbT3QwVdfzqUtmv7kNgncFpUJxRJzCxqYVhRjREke5YU+JFGkoaWT/Q3tbK6XeadzLNsaVEKyQFxN/7BFEf50UXB4KBkkUpWazFoc3RxqV/jJ32VW7nUxwDosWbFgRJC7zhWzMj6b2sOsO2hj00GZHQ1xDst+2qN8Uh3RbYMCF5Q7OphU5mBmBcwbCW7X8U8xrGsOseGwi811IWqaNRrkXDqiR1MqvHYodEOlo4PJFS5mlcqcMdqO3ZZ5+GDQxdHN6po4d/zNSiAuDtpuCb0RhS7P511zOzL2Y2iaTiAu8NPVbTxVk73vwybB/zsjwtUzXXhsxtLPQ4mqajSFNO5bHWfVvuzTDnwOuHtukEWneHHb+m73kIkDoD0ks7omxh82+dg7yDVTSrxdsZKFEySKczJbP9MZivCT9XaW14gpqx9nSkWOzlcmdvCN+bmIx0Ag7YFO7n3TwZp91gFvODDGr/HNU9q44vT8tOIeUnF0IydUVm1qZfn+PHY0JGiKu9KuNTFDFLoSdcbkJbh4os6SqdaMg2g6sLkuxO2r7exuG9yo7OdGJLh/oUa5P31t+P6i6zpv7gxz22oXrRlWR8qUS6uj3HWuBb/H/J4cE3F0o2oa4bhOfXuc595r5fHdlWntEpulKxl4tmsLF58xmop8N26rlnU+xvJtCrevEoipQxN4y3NoPLYkzNQRA48P9UTXdR56V+MXb4OsDX7bBaDSp/DUVQrlfqMddUzFkXThZrj8ia5FzT25acIuLpuVj8/twO9zDmg6qgMvbVH4wesWOlOsfhQEmJQfZ06FxqRyJyV6HT6XHU3XCSp2Dsb8bDkUZt0BGwc7U/c6I71xHrxQHjSB6LrOo++p/GydJeWGA4IA0wtCzB5lpbrETrF+ALfDhqppdChu6qI5bK4L8Xa9iyPh1Pdxsj/Cry6GMcXJroUBFcYfCjZFx3Nb2eAYeh8c1LhztSUpetyNJEKZV+P+BVHmju1p3I00fPbqaV1/X/buEX7yXj4tUdGwLLOu0851L1pZfk18UIaYl7bBj940fwwWESYW6jywIEh1Rc/g5wjjh2d0zd4eeivAbz/0EpJFg7d6W5uL/1iR4OmlCh5H34/+uHmP3j0Iuxv6X0qqm+b2EN9+RTEVhijA9+dH+OtX1V7CSM8VswtZcZ3C9dPNk5raYyJ3/k0ccEXmQ0cC/OgN85iU26rx8wtk/rJU7SWM9NwwP4cV1yW4sNr8vNtarNy1Ss2oxOdxE4emw7LtA1u9r2o6P3rLSX3IeJ5Cl8azV4S5drYLVz/Wyxb6bHzvPCs/nNtsmvr49gErD63t6Hcd1YiscvNKH61R4xtclavw0tIYF02x4bBl37lX+u38+osSt0xvxSImt0/X4ZVddpZv7kzx7aMcV7/zM1usNLe29/v7B1uirN5j/AkWCR66OMbMqoEvTbhmbhG3n24+P39yRy6dcv+GxfV7E2xrMn7XJsFDlyiMLclueYYZ/77AzzcnHTb92yOb+raZjqs4QrLA117JoS2UfeUgTdO4a5VCTOm1L5kI/31ujOkjB35zocsYvHZeEV+bkTCUyqwPCjzzQfbLNVRN48H1Kr3Lrnps8OdLwowrHhzPrCQK3La4nEXjjWPuliaBlzenb/txj1htaxa5Z2Un8VQbuqX6Xl0bGxqNsZUJ+QqXTOmfna3rOsGYTlsE4r3yU26crVPgNLbxZ++4CEeyKy21buthtrQae7Vzq2Rmj+6fqFVNpyMG7VFIKMlt/88zZdOk7wfWO4jLqV/M4y4OgOW1fm54NkQoi9qja+uNRprdAr9ZHMdqzV4ciqJy3xs6Cx/V+PwfYOmTCWqbj0YWC302bjMZXmQV1tVlfh1d13m+ttRw3GWF78xXEcXshyk5oXDHKo3zH9E55w/wjb/Eaek8ei/HFLv49+lHDN9ri8KeNB7tE0IcAGvrfSz8k5U124LIadTczQf7jV3imSVBRhVnb2eoqsaP18IfPxBpDEkEY/BRk4M//CO5O75idiGVXmPbPjAWUE5JVNbY2Wj0iy8Z3UKpP/scmKis8p8rRJ7bKnEkLNARhbcOunhpY/K6o6VnFpDnSO5R4orI9obUZbFOGHFA15agN6/0cMGfJV7dmL4oSE3A2HPMr87eMaWqGt/5K/zpQ2O/u6fe+FrNG2F8sNsPZz6sxFSJxmiyCCQRLpiWfo9eMxKKwo0viazalfwYdWDjruTSmx6bzji/avjcP/aktjuOixPMYYVx7g62dBh3ZkhoIvva4ZbVBfzgbZjgaqCy0I3LkTxdbQ4bjbZJ3hYgeZ/ZSEymLRiltMBr8MIqisqP18JL2ySDcQgwaaSxGsDUCjdPb0s+VhPM5ZfrUvzYXoQTEOz1sjpFhXJnDEhOQwiGY0RiCYr9HoOzMKEo3LZS5K1a4zAkCHD6xPKkY1ZJZGq5jfd6TV52hIsA8yTx4yIOpwUeuzaX218M8PqhHIMXspu2KLwTLeWdDCO9IwqOvpG6rvP29mb+4/Vi2qM2ppXBHy6RKfB2iUxRNe55XeDJTeadZ4lX56Y5xoZVOtqA5BSAtgj8an1mbTTDZhHwe44+Ck3XefmDZu5eV0xEdjC/Cn59YYIcV5e/Jiqr3PiSZC4MoLpAYck04xBV7WoAku2dw8ZVr59wXIeVX13m4b/O6sQ3SIHO/Jyjln5du84trxXR/rFNuekwXPuclZZOGUVRuec1+MsW858/qVDlhS8rFPtNaoxZBr90pUWScDuP3oQPDmrc9mYxkY9HsLdq4V9fthCTZeSEwm0rBdbtNzdczxqV4JmrzWuh5VuNQ0ggzYh43GIrAC67xJdne5k5IsxP19vZcEAikuh/rKWnod8YEj+5ud3saBa48hkbZ1QoPPVP8+jnpEKVPyxRKM0xV+yQ5HQIJPlQalokQ6rDhgMCX3rGSqFL47W9RlELAswsU/jpYvClKLIjZTkTOq7i6GZCqZvfLdFpi2j8fm0Hj+3Ipz/76ARC8U8KxOU4wCphSBWobYPaNvOfXeLVeeQyLaUwAIJDUPRWVTWicQX3x3ZVaYrU2M0NAr1LW3Uzs0zhj5cLaQNqrSb149MVazohxAFgkQSKvBLfvzCfWxfIbDqss7PNTt2RKC2BMDE5eVr5eoOx0Fx9W+wTcYzzq9w0PcyDH/rIZL3VtBKF331RpSSNMAAaBWM0122DOfmNfV8EiKsi65qTy1nJqkZH+Kg45o9IcO2UGE9u9/aZLCXQNZT8dDF9RlprxSmGY2VpYnonjDh64nLYOHM0nDkawPnxv2Sm/7qrnFRPajrzPikPZ7FI3PJ5H7oe5Fcf+NLmt5Z49S5h5PZt/GyvjxraU+1t45FrU1dF7ElrBOb/HiI93CUx1UJDVKJ7fmG3Wfn+F0TCSoQXdrpSGuwCUF2o8quLhZRDSTeqpvHRQWOR37EO424T3ZxQfo5sGOsy+kE21Bi3Er3xcy7unNOWcp+5buMzE2EA/OOQ8UQTSzO3qO2iQqEteauyhArrtib3PJIkcd8XLHxtajDl9mddxqfepzAAwrJAbbvxRGeOSe2uP2nFcVqVcSbx5mE/HaHk7sRmtXD9vFxunBFKEogAnFIkf2x8ZhbSX78nzPZWoxCmVWaeeuC0SYwpMs4knt5baiji77DbuPUcB5dOiCSV4RIFOKM8ltb47M3rNREaQsmftUk6UypTL/E4acUxr9JoGHbE4K41xgcliSL/8XkX3597tAeZUqzyx0sVyvIye+sjsQR3vuY07eLnVWaeJi6JAotGGZ1OzSH4/ftGkTrsNn58oZ1vTDuaf7FwdIxHr5DIT5Ew3Jv2zih3/91tyAzz2HTG+lMbZCekzZEJs6pcjCswlt5+fa/I27tCfG588hshiSLXnOln4cQQ4ahMVZkfyDwC+tzmBIdNckuXVrdRnJfduphFp/r41UY42Gvjo2c3a1xaHWV0r/iQJEl85zwv10wPoqoalcWpdwQ343//YZzWA1w3uQOfK3XbT9qew2618MN5rYaqh3FV4NY1Hlo6zd/mojzPx8LInA9qw/xwrXGZRa5D59bzs18w5bRbuWFawGBLtEQtXPeim0DEPPBYVuDLShi6rvPGjk4e3WjsHcu9Gt86N33bT1pxAJw2xs/pZcZElubQUW/oQNlYF+HmFU7T2c5F1Ro59v6lCS6a4qbUY/zuocBRb+hA+eu2GP+2ymM6FF5/Wt/z+5NaHDaLwN1nxUz3qt3RLLD4cRtv78puE+NuEgmFZRtjXLnMRbNJuv84f4Lb5sb7lX8BkOe28Ivzg7hNbNkNBwQufMzCpgPZZ5kBROIKD68LccsqJ1ETj/O0Ypmlp/btZTypxQEwqcLDfQtkw/ACXT3IN15xc/OLqmEWk479TWGW/B989zUHiskL5pBUHjg/jtczsFTE08fmcMMs88Uqe9tEli5zcM9fo4bMrnRsrA2w6E8SP97gMXWglTgiPHSpgNPRtyF+0hqkPTl/vMiNDUF+/5HPEHqPqwIrd0lsOODk7LI2zqz2U+1tp9zvIMdjR9ehNRChriXK9s4C3qrpZEOjz3SpA3Stav/ReTqnjhycElP/MlOlvi3KshqvYeiKKiKPbXayYk9XdYE5YzyM93ZQ6neR47YjKyqtgQj7W2S2dOTxZk0nH7bkpvQI+13wwGIbRb7MHvunQhw2q4VbF/iAIL/f6DN9Yzpi8NI+Py/tA+i9k6SHo7kUqWt+2C1wzzkKF00evNvmctj5r0UWYmqE5btdprZNSxie2eHjmR2QnC5g6dXe1MaqzwG/u1jm9JGZ+2RO+mGlJ986y8UvF8mmNshAKffI/N+VGktOGfz3yWqR+J9FFu46W0lb/bm/TMmP8JelZCUM+JSJw2a1cOFkG09dFuKMCsXUDskWh0Xn4mqVF5bKzKoUh6zymMNu42unW3jikgDTStSULvNs8Nk0rj5V44kviUwo7PvzvflUDCu9mVTh4c9X6Xy4t5UfrMvv9x51c4qD3L/IQmWBE0k8NmUsTx+bw9MjddbuaOWedfk09r0wzYAowPkVLdy90EOZ344g9K8r/VSKA7qmuWdMyGf5aIX3ayOsO2jnw9pO9kQKDNFc6EqWKXJDdU6AmaNcfK60g6lV+YjHoRidwyqw8JR85k9IsH6fzPo6kY2HEuwL+UyrCAgClPug2tPC6eNymV/azvjKggEvUv/UiqMbu9XCvPE+5o0H6Jq+NbYG2d/QQXN7CFEQKMzzMKmqCK/LDnQnOPSjHx5knHYrCyZaWTARwImu6xxqDlDX2EFrIIzNIlHk9zJ5dPHHa2q7E6IHp+2fenGYUZLvoyT/5KtEKAgClcW5WcdW+sunyiAdZnAZFscwKRkWxzAp+czYHKqmE5VV4pqF+iNBak0MUr/HjkNScdrEY1p3tC9UTUNWdBRdpOFIgIaWDjqCYWxWCX+OlzGVxbgcFiRdwWaVBq3tn3pxROMJVm4OsnJ/DnubYxyRPUQSPgxu8jfBZ4cSp8yEEhuXVTUwb0rZca2rHonGeb8uxq4OF60hlajuIKHl8ombPAoEgYNdq/RdxBhZ6KLaWc+kMeUn/lTWSgIBiZ4jWCQBiqozlDsdtIcVVm4N89CmHA52dC9STu/ICsYhGHeyqwOW11Qw9b0wt8yVmDvGiquPLdMHk46Iyge1Id5tziEsd0dP06cERhIQwUPLYfhIqKC8voNzxjsYV2zrt8CHXBxuMYoFJz3FEVdg7+F2CscPzZZb7+0J8O3VPhpCqdfhZsKWVjc3LYfJxTq/XRSgojDzwm39ZeOeVlYd9BOS+38tXYdDsVye3KIz4iBcMTFMrjf70hRD3mfm+1w47UYNvrot+1JPfRGJxXlwncLXludwuFMYkDC6UXX4Z6PAJU+7eXGr3u8CcX0RCkdYvk3l+X35hPpZZ6w3qt61HOHh9y3sbCHrjZKGXBx2m4XZFcYY+vO1xcQyKNKSKQlF5d7VMj9fb0lbM9wqgdemkO/UKPJ0ucz9DhWPJX2grjVq4T9XCDz6XmZlGrMhGk/w9D9F3jkkpV18ZRG71r24rRpee1f2uNOiYhUU0iWkdSTsPLERttbLWbX9mBikS6qaeKWmLOlYLAFv7dM5v3rg54/FZe5YqbB8d+riLUUeuHpMA/OmlFDqlMl1W3Dareg6hKMJ2kIK9VE3qza18uK+AlLk+PKzdRYUXeWG2YMzowmFIzz9T5H9wdTBsTwnTMttoXpEPi4hjtthw2EXUVSdaCxBZ0whkHDw7u42amNFmJVXUzV4ocZGQleZUZGZ/XRMxHH2KWWUvJWgMZxsVL2wVRsUcTy1WUyZKFPgVLjqVJEbZyXwuLprU/RI7xO6yhX43DAKmDuqgJvbovz4LYnXa22EevVCMQV+8TZMyA3z+eqBR2r/vt9ObdD8YfmsMmeO0JlbZUWSuuMmR20HiyTidTvwuqEMmFhSxKGWEK/VOtjXYTEsIo8r8Or2BCUumbIMSkwds3naeWOMeXev1ToGvPXoe3sC/M9bFlNhVOTAs1fFufUsEY8r8yWLpX4nP7/YysMXhTGbpMiaxG2rXbQH+hFP78HGPa28W28ujDKvxjdnacwfa89qg4CKAg/XnCZxyZgAkknHFtMdPL7ZTjjSd07tMRPHkinGm6Bq8O3VPhqD/dvqKZbQuX+9xzRn8swROq9emzAsEMoUURQ4Y6ybV6+JUZVrFHZrVOTeNx2o2e4Z8jEdEZVVB/2moj61ROOG0zX83v7lYUiiwIzROVxzShSHxXiBoCyyPoMKiMdMHNMrbSwab7yRDZ0C//3XDhJK9kbe2h1tbG4yim6MX+PRy46WSRoI44odPPxFGbfV2PY1+6w0hfonjg9qQ6azkjKvxqWTNayWgY/440ucXDMlhEUw3tv3G50kEimyqD/mmLr/vvf5BMVOY7bKq7V+vrsylpVAovEE96zLN0xXnRaNny6M4bANrK56T8aWuLj/fMWwUj8sw32rsy/mEonGebfZ6MfwWWWWTpUHRRjdVEjEfgQAAAmFSURBVBV7ObvK2LWGZVixPX3bj6k4SnLtfHO2aJh26cDzO5x8d3mAI8HMVnqt3yebptBdOTnOtBGDU9q6J+eNF5lYaBTvqn1u6pqzWzj1fl3MdLp95gi930NJOuZUqKZJ11tanATDJ1Ad0utmSVxVbSxhpwPP7crlS89Y2HnAWG23N+vrjE0vcMNdCwavx+iJw2bhgQXmtTI2HM5cjKqmsavD+Pk8J8ytGtytx7pxOe0srgoYghWyKtIaT32/jrk4JFHk1nOcnF5gXj9yX7vIxc/mc/vLIT7c15FyT5ONh4yOiAUjglgtQxcDqa7IYXqBsZfYXJd5zyErOq0hYzc/Lbcl623LsmFsiRefNbmXUHXYU28seNPNcQk5+j1Wnro+j9PKzI05WRNZVuPh8mW5XPSYwLJ3m2kJQzCqEo7JRONdyba9mTPG3O+g6zpxOYGi9r2sMJFQkNMYarNHGd/umub0RqmmaSQUlYSiEpV1onqv7bJEqB6RfQXjbLBZu2qu9WZvywlYn0MSRX5/SYL7Vwd5cU9uSr//9ia4vakI+9uQb0/gFKJYLRKdceNDGu/toHcB2UAowqo9dg63xnA7rSwYGWBMuXnAb0NNKx82OVA1nUkVbs6p0rD06omqS4z+kgbZPKdT03U2HlLZeBhi8QSgE01oJLRetUNQcAlxejq4BhtREBjpt7C7V0cRtpxgFYy7KfBa+fElPkaui/LYZmfa7c/jKhyOOIDUBlup3ziWr9ml888jEuClpRMe3+HgFneYgtzkB7GrMcardUff3uZ94LHCmaOSz1esH6D3HmvtKRbD76rv5OUa38eeytS32iKJn1QSHEqk9h3AxKRj6YrUHvc0QYskcst8B89fHWN6aearyc3IcRvf6rpQsps4ocKhiNF1fCBk/O7W/cbVUGYPMdVWMe80uDPayl0URRz2oTFGe+JxGn9juvYdd3FAV8r9qEIHz10j8vAXZc6vbDOtW9EXvTfQAXBIRvvBIRqNWZfVOA3xmexlr2ZRPdeuZ1ZfQ9d1lH56WrMhm7bDCSKObkRB4LxqGw8t9bPu61H+36w2qvw6PmsCh6XLcEsXB20zqdA7t8qChS7RiOiMy9cZX2xU3iR/GJ9NQxC6rmGXNGZVGm9Ph2K0C7wpwjYLq214bH079lRNIxobeCWfvohLRsdbupfwhM0hzfU6+bdznPzr2RpNbVHaVCud8a50OF2Hb7yAwTu6v0WmrNcuGKeUCOTbYoR1F1ZBozJHRxSMPzvX6+bm2TKNURuaDgV2hXyvMQWgLmq8wfkp3Bx+r42vz9TZ3xLrisEIoAsSr+5O7pEUVaczptCPZK2saDNZCZebxud2woqjG1EUKS3w0Xvjq3JfV/2snmzpyONMw/cFKgu6n156H4jXZcP7yYM2f6W6fBrJs42Rzg7MamMIgkCRV6DIe9TGiSTgjf3JFYxVLAQSDsoMZxg8EorGobYE3UtCu8nTm1N+54QaVrKh2mM0Ft+sGVgIPRPerjd2E5MrMveQSrqCi2SnmabDu73nmIOMrIm0xIyCr65IvSz0pBXH6eOMb+qHLblsrB1Yfkg6HnorYLpX/KzSzO0Fm1ViZKFRTLWxrkSdoWL11gBxNdliswoqJWl2PjtpxTG/tN0QwEuo8O2/+YikKug1AA62xfnthyab8zjgjNGZJxIJgsAER70hRpPQupKf1HRJpP1kf3OY948YbaUcp0iRN/UU+qQVx/jKAr5QaRxaDgYFnng/u31eM+Enb1sIycbbdffcIHZbdj6KyWMrKLd3GI7v67CweX+afbX6yWv7zVMCF47qNHiAe3LSikMQBL57vgefLXnurunwwDseVm6NDEqWuKrp/Hx1K8trJIOLf4xfY9Ep2e9IKQgC54x3IPVKwlE0eHFPDrsaMy+LmY54QuWJDc3sazc+5qpclcmV6ctQnLTiACjz21k80Xhc1eDW1U7+XjPwMfznqw7zu83msZh/mdKK29a/DPRxxTZGmIRkVB2e2eagtmngxvWy91vZ0Vlk+rc5JX3fm5NaHIIg8J15MlPyjc6vaELg68u9/GhNnPbO7N/EvU0Rbn5R4X+3lqNoyQIQgEuro3xpjnFr0UyRRJErJkbItRqTbWKKwJ82e3hjt0Ikmn2m2f7mMI+8p7G9s8jQ2wnAmaUhpozou3iNEInJOoAsy9QfPsyEsaORpGO3LnQw2HkErnoqdRDJZYP7Ph/m3GoXbpuecu1oQtUIyQJPbWjhVxsLUxZ7HeFTePEaHX+GW1qkbXsLPLGRlNt15ThgcVWAsSVebFYh5QaECUVD1kRWbw2YGp/dVPniXH+6FcvHuSOqqrJzzz7Ky8qw9Uqt/EQcuq6zv66OERXleNyDn2Y31Lx/QObGl220pQhnCECpR6EqT2dGpZUqbSv5PheqptOacFETKWVLvczuNon2WOqXY7I/wkOXiZT7ByedT6drJdoLNbaUVZMFwGeNU+SVGOm3ILXvwOO0o2oacSmHNgo51BanJWYzTFd7MsIV5OoZDnJ6+MxD4QgHDtUzauRIwyKtT8QB0NTUhM1mpaykeEA/+Hjx9j6F25fLNMYGX9yCAJMLEvxycYIxxYN7fl3X2Viv8er2BDF98HNIBWCUL86VpwhJwgA43NiELCcoLjY+86T+1ev10hEIEo0N/lTwWPC50RZevt7KtOLBD2JdNC7O00uFQRcGdNlOMyokvj5TN8y+BoMzSkNcf7rVIIxoLEZHIIjXJIYEvXoOgCNHjqAoCiMry08626ObaCzOU5tF/vShRH3nwGzuqcU6X5/WyUWneo9JtZ9wJMr6uq51JekWhGdCVa7KnJIu47N321VVpe5gPRaLhcJC89KUBnHouk5jUyPoUFpShNMxBIXEjyG/fr2Nx7blEpIF5DTjcTcCYLdo+J1w+9wYXzz1+NhfiYTCiu1xtrQ4kVXRsBtEKqyCSo5TZOGozpR+jGgsRkNjMwhQUlySUvQGcUCXQFpaWgiFw+Tm+PB5vTgd9pO2JwlGZPa0SWw9GGLD3gh7YqUcDkD0YwMwxwFlPpjobmbOWBeTSu2MzSdrz+dQEAzHaY3b2FPfxt4WlbCliEDsaAaX29YVds/Tm6mu8FHihSKv1eD5VFWVaCxOsLOTjkAQj9tNQUH6Ksem4ugmEonQ2dlJJDo4Hrthjj8upxOv14vL1XePmFYc3ei6TiKRQOvPBvPDnBCIoojVas3Kbsoo2UcQBIODZJhPPye1+3yYoeX/A31N3rvz2gIuAAAAAElFTkSuQmCC;" vertex="1" parent="1">
          <mxGeometry x="670" y="850" width="95" height="90.07" as="geometry" />
        </mxCell>
        <mxCell id="-i5JZtjKqTrFo0PbQZQr-69" value="Azure Monitor" style="image;aspect=fixed;html=1;points=[];align=center;fontSize=12;image=img/lib/azure2/management_governance/Monitor.svg;" vertex="1" parent="1">
          <mxGeometry x="353" y="670" width="64" height="64" as="geometry" />
        </mxCell>
        <mxCell id="-i5JZtjKqTrFo0PbQZQr-70" value="Azure DNS" style="image;sketch=0;aspect=fixed;html=1;points=[];align=center;fontSize=12;image=img/lib/mscae/DNS.svg;" vertex="1" parent="1">
          <mxGeometry x="472" y="670" width="60" height="60" as="geometry" />
        </mxCell>
      </root>
    </mxGraphModel>
  </diagram>
</mxfile>
